<svg xmlns="http://www.w3.org/2000/svg" viewBox="0 0 442.97 317.11"><g id="Layer_2" data-name="Layer 2"><g id="OBJECTS"><path d="M176.63,54.92C161.26-.84,92-18.8,52.3,22.87q-.86.9-1.71,1.83c-56.9,61.86-30,214.3,88.74,252.94s242.3-31.92,249.24-95-47.86-82.89-132.89-65.26C207.64,127.36,186.2,89.63,176.63,54.92Z" style="fill:#e0d5f8"/><path d="M275.42,64.46c-15.89,2.59-20.29,16.66-8,26.65,4.05,3.3,9.84,6,18.1,7.41,31.42,5.22,48.1-8.69,35.5-26.72C313.23,60.68,291.17,61.89,275.42,64.46Z" style="fill:#e0d5f8"/><path d="M29.5,178.41C21.7,164.32,7,164.93,1.71,179.86,0,184.79-.65,191.17.84,199.39c5.71,31.35,24.44,42.35,37.15,24.4C45.84,212.71,37.24,192.36,29.5,178.41Z" style="fill:#e0d5f8"/><path d="M399.77,190c-1.47,7.66,4.86,13.09,12,10.14a15.22,15.22,0,0,0,6.89-6.17c8.1-12.6,4-23.41-7.28-22.3C404.44,172.33,401.22,182.38,399.77,190Z" style="fill:#e0d5f8"/><path d="M359.6,109.11c7.63,1.6,13.17-4.64,10.34-11.85a15.25,15.25,0,0,0-6.05-7c-12.46-8.31-23.34-4.39-22.42,6.9C342,104.14,352,107.53,359.6,109.11Z" style="fill:#e0d5f8"/><path d="M174,27.11C180,32,187.8,29.05,188.61,21.34a15.16,15.16,0,0,0-2.15-9c-7.24-13.11-18.7-14.64-23.08-4.19C160.67,14.61,168,22.23,174,27.11Z" style="fill:#e0d5f8"/><path d="M415.8,302.31a8,8,0,0,0,7.18-2.23,6.61,6.61,0,0,0,2-4.31v-.06c0-10.69,13.1-10,17.32-23s-12.45-14.17-22-6.1c-6.84,5.8-15.05-2.3-25,4.47-8.63,5.87-3.82,20.33-18,15.81-4.52-1.45-8.57,0-12,2.51a20.29,20.29,0,0,0-7.56,11.59l1.13.8C386.85,318.86,399.44,299.58,415.8,302.31Z" style="fill:#9c78ed"/><path d="M388.11,301.74l37-23.78a1.06,1.06,0,1,0-1.15-1.79l-39.84,25.57Z" style="fill:#7846d1"/><path d="M62.22,282.94l-3-.12-1.61-.07L53,282.57s-42.24-71.7-15.78-95.09c8.14-7.2,22.38-1.23,19.24,31.86C53.54,250,62.22,282.94,62.22,282.94Z" style="fill:#7846d1"/><path d="M59.18,282.82l-1.61-.07c-7.38-17.37-11.1-36-13-49.13a227.24,227.24,0,0,1-2.29-27,.72.72,0,0,1,.72-.74.74.74,0,0,1,.74.72,225.53,225.53,0,0,0,2.28,26.8C47.93,246.6,51.69,265.42,59.18,282.82Z" style="fill:#5b23a9"/><path d="M400.11,301.4a27.76,27.76,0,0,0-.61-5c-3.47-15.87,6-18.86,18.39-23.87s13.91-19.89,5.11-32.26,7-22.31,1.18-40.93-26.05-6.23-30.47,10.93c-3.18,12.34-19.35,9.67-25.34,25.67-5.2,13.89,12.23,26.72-7.9,33.09-6.43,2-10,7-11.85,12.75a28.8,28.8,0,0,0,.73,19.64Z" style="fill:#7846d1"/><path d="M375.48,301.4l33.16-81.88a1.51,1.51,0,0,0-.83-2,1.53,1.53,0,0,0-2,.84l-33.62,83Z" style="fill:#5b23a9"/><path d="M301.64,190.46c-9.75,7-25,11.8-25,11.8L273.52,191l-2.44-8.76-1.72-6.18H251.88c1,3.27,1.93,6.62,2.91,9.92,1.26,4.25,2.52,8.41,3.71,12.25,1.69,5.4,3.25,10.15,4.5,13.54.29.8.64,1.66,1,2.58,2.33,6.31,4.22,13.15,13.14,8.86,7.85-3.78,18.49-9,23.81-12.5Z" style="fill:#ffa681"/><path d="M254.79,186c1.26,4.25,2.52,8.41,3.71,12.25a24.85,24.85,0,0,0,15-7.22l-2.44-8.76Z" style="fill:#f97853"/><path d="M251.08,124.69s18.23,43.49,26.08,57.58c0,0-11,9.35-21.7,9.6C255.46,191.87,249.29,144.13,251.08,124.69Z" style="fill:#6020bd"/><path d="M208.38,301.41c.19-3.05.36-5.94.52-8.63.64-11,1.06-18.47,1.06-18.47l-4.3-.19-2.42-.11L174,272.71s-.54,8.38-1.16,20.69c-.13,2.51-.26,5.2-.4,8Z" style="fill:#9c78ed"/><path d="M205.66,274.12l4.3.19s-.42,7.49-1.06,18.47a260.75,260.75,0,0,1-36.05.62c.62-12.31,1.16-20.69,1.16-20.69l29.23,1.3Z" style="fill:#7846d1"/><path d="M204.12,301.41c.68-11.73,1.24-21.78,1.54-27.29l-2.42-.11c-.31,5.54-.86,15.63-1.54,27.4Z" style="fill:#7846d1"/><path d="M217.8,301.41h35.93c-.13-2.81-.26-5.5-.39-8-.63-12.31-1.16-20.69-1.16-20.69L223,274l-2.42.11-4.3.19s.41,7.49,1.06,18.47C217.45,295.47,217.62,298.36,217.8,301.41Z" style="fill:#9c78ed"/><path d="M220.53,274.12l-4.3.19s.41,7.49,1.06,18.47a260.75,260.75,0,0,0,36.05.62c-.63-12.31-1.16-20.69-1.16-20.69L223,274Z" style="fill:#7846d1"/><path d="M224.49,301.41c-.68-11.77-1.24-21.86-1.54-27.4l-2.42.11c.3,5.51.86,15.56,1.53,27.29Z" style="fill:#7846d1"/><path d="M167.66,251.87v1.78c0,10.69.07,19,.12,23a171.18,171.18,0,0,0,31,5.44l1.4.11.75,0,1.67.11,1.84.1a166.84,166.84,0,0,0,21.09-.38c1.42-.12,2.83-.26,4.25-.41l.27,0,1.09-.12.65-.08a174.07,174.07,0,0,0,24.53-4.78c0-1.85,0-4.59,0-8v-2h0c0-4.94,0-11.09-.09-18,0-.59,0-1.19,0-1.79,0-4.63-.09-9.59-.15-14.75,0-.6,0-1.2,0-1.8-.07-5.3-.15-10.81-.24-16.39q-.09-5.13-.19-10.31t-.23-10.46c0-.75,0-1.51-.06-2.27-.8-32.85-2.18-63-4.47-66.41-1.59-2.33-5.23-5.07-9.51-7.83l-1.6-1c-1.82-1.13-16.71-6.19-18.6-7.3l-15.73-1.1c-.1,0-15.14,5.13-15.24,5.18-.64.37-1.3.74-1.94,1.12-5.57,3.21-11.07,6.6-14.24,9.51-.46.43-.87.84-1.22,1.24a8.23,8.23,0,0,0-.74,1,4.91,4.91,0,0,0-.55,1.38c-1.9,6.91-2.9,34.1-3.4,63.67l-.09,6.39c0,.94,0,1.88,0,2.82,0,.65,0,1.3,0,1.94v1c0,1.61,0,3.22-.06,4.82,0,1.18,0,2.36,0,3.54C167.69,225.61,167.65,240.08,167.66,251.87Z" style="fill:#7846d1"/><path d="M139.53,294.11c-.39,4.2,4.73,1.92,3.28-6.59s2.65-16.21,4.42-16-1.46,9.29.11,12.55,3.6-3.08,5.63-6.92,2-12.69,1-18.9,10.3-43.93,10.36-54.86l1.37-4.64,5-17,7.86-26.57s-4.71-20.11-12.65-18.38c0,0-4.2,14-8.7,29.8-.76,2.69-1.53,5.42-2.29,8.15-3.2,11.45-6.21,22.76-7.6,29.47-3.7,17.72-4,54.55-4,54.55s-6.52,13.53-6.67,19.55C136.54,284.81,139.91,289.91,139.53,294.11Z" style="fill:#ffa681"/><path d="M155,174.82l10.76,24,5-17-13.49-15.15C156.49,169.36,155.72,172.09,155,174.82Z" style="fill:#f97853"/><path d="M154.43,167.68c4.72,8.09,9.52,16.13,14.29,24.19,1.58-5.27,3.21-10.33,4.74-15,0,0,0,0,0,0,.61-1.86,1.21-3.65,1.78-5.36a.19.19,0,0,1,0-.09c.19-.61.39-1.2.58-1.78h0c2.29-6.9,4-12.39,4.56-15.58,1.36-8.61-2.35-25.47-7.59-28.79h0c-.13.3-.54-.63-.79-.06-.92,2.12-5,7.37-7,12.48-.26.65-.52,1.32-.79,2C161.31,147.2,157.74,157,154.43,167.68Z" style="fill:#7846d1"/><path d="M212.6,122.92c6.81,0,11.62-6.22,11.82-6.48a.92.92,0,0,0-.12-1.24.79.79,0,0,0-1.16.13c-.06.08-4.53,5.83-10.54,5.83s-9.55-6.51-9.59-6.57a.79.79,0,0,0-1.12-.32.9.9,0,0,0-.3,1.2C201.75,115.77,205.71,122.92,212.6,122.92Z" style="fill:#6020bd"/><path d="M241.41,182.48a.74.74,0,0,0,.37-.1.92.92,0,0,0,.37-1.19l-3-6.28a.82.82,0,0,0-1.12-.39.92.92,0,0,0-.36,1.2l3,6.27A.81.81,0,0,0,241.41,182.48Z" style="fill:#6020bd"/><path d="M247.6,177.34a.92.92,0,0,0,.36.13.85.85,0,0,0,.9-.81l.59-7a.87.87,0,0,0-.76-1,.86.86,0,0,0-.9.81l-.58,7A.9.9,0,0,0,247.6,177.34Z" style="fill:#6020bd"/><path d="M231.64,166.47a.84.84,0,0,0,.81-.74l1.08-6.95a.89.89,0,0,0-.69-1,.84.84,0,0,0-1,.73l-1.07,6.95a.88.88,0,0,0,.68,1Z" style="fill:#6020bd"/><path d="M204.94,169.05a.85.85,0,0,0,.43-.12.93.93,0,0,0,.29-1.22l-3.35-6.05a.81.81,0,0,0-1.14-.31.92.92,0,0,0-.29,1.21l3.35,6.06A.82.82,0,0,0,204.94,169.05Z" style="fill:#6020bd"/><path d="M237.74,141.91a.77.77,0,0,0,.45-.14l5.52-3.82a.92.92,0,0,0,.25-1.23.8.8,0,0,0-1.15-.26l-5.52,3.82a.92.92,0,0,0-.25,1.23A.81.81,0,0,0,237.74,141.91Z" style="fill:#6020bd"/><path d="M213.12,198.33a.86.86,0,0,0,.38-.1.91.91,0,0,0,.36-1.19l-3-6.28a.8.8,0,0,0-1.11-.39.91.91,0,0,0-.37,1.19l3,6.28A.83.83,0,0,0,213.12,198.33Z" style="fill:#6020bd"/><path d="M226.18,146.64a.82.82,0,0,0,.7-.42.92.92,0,0,0-.26-1.22L221,141.26a.8.8,0,0,0-1.14.28.93.93,0,0,0,.26,1.23l5.58,3.73A.82.82,0,0,0,226.18,146.64Z" style="fill:#6020bd"/><path d="M239.44,120.53a.89.89,0,0,0,.1.48.82.82,0,0,0,.67.46.85.85,0,0,0,.89-.82l.26-4c-.52-.34-1.05-.67-1.6-1Z" style="fill:#6020bd"/><path d="M246.88,159.05a.84.84,0,0,0,.7-.41.93.93,0,0,0-.26-1.23l-5.58-3.73a.79.79,0,0,0-1.14.28.92.92,0,0,0,.26,1.22l5.58,3.74A.78.78,0,0,0,246.88,159.05Z" style="fill:#6020bd"/><path d="M202.4,128.41a.86.86,0,0,0,.46-.14.93.93,0,0,0,.23-1.23l-3.18-5.17a.8.8,0,0,0-1.15-.25.93.93,0,0,0-.23,1.23l3.18,5.16A.81.81,0,0,0,202.4,128.41Z" style="fill:#6020bd"/><path d="M199.55,217.58a.82.82,0,0,0,.6-.27l4.55-5.08a.92.92,0,0,0,0-1.25.79.79,0,0,0-1.17,0L199,216.08a.92.92,0,0,0,0,1.25A.77.77,0,0,0,199.55,217.58Z" style="fill:#6020bd"/><path d="M216.3,216.52a.79.79,0,0,0,.59-.27l4.56-5.08a.92.92,0,0,0,0-1.25.79.79,0,0,0-1.18,0L215.7,215a.94.94,0,0,0,0,1.26A.82.82,0,0,0,216.3,216.52Z" style="fill:#6020bd"/><path d="M228.33,250.84a.94.94,0,0,0,0-.7l-2.85-6.34a.81.81,0,0,0-1.11-.42.91.91,0,0,0-.38,1.18l2.84,6.35a.81.81,0,0,0,1.11.42A.89.89,0,0,0,228.33,250.84Z" style="fill:#6020bd"/><path d="M180.28,271.78a1,1,0,0,0,0-.7l-2.84-6.34a.81.81,0,0,0-1.11-.42.91.91,0,0,0-.39,1.18l2.85,6.35a.79.79,0,0,0,1.1.41A.86.86,0,0,0,180.28,271.78Z" style="fill:#6020bd"/><path d="M200.92,282.29l1.66.1.58-4a.88.88,0,0,0-.69-1,.84.84,0,0,0-.95.74Z" style="fill:#6020bd"/><path d="M194.3,270.34a.89.89,0,0,0,.34-.59l1-6.95a.89.89,0,0,0-.69-1,.85.85,0,0,0-.95.74l-1,7a.88.88,0,0,0,.69,1A.78.78,0,0,0,194.3,270.34Z" style="fill:#6020bd"/><path d="M234.31,212.21a.78.78,0,0,0,.41-.12.92.92,0,0,0,.3-1.21l-3.29-6.1a.81.81,0,0,0-1.14-.32.93.93,0,0,0-.3,1.21l3.3,6.09A.81.81,0,0,0,234.31,212.21Z" style="fill:#6020bd"/><path d="M224.63,197a.8.8,0,0,0,.73-.48l3-6.25a.92.92,0,0,0-.36-1.2.8.8,0,0,0-1.11.39l-3,6.25a.91.91,0,0,0,.36,1.19A.75.75,0,0,0,224.63,197Z" style="fill:#6020bd"/><path d="M250.84,196.07a.87.87,0,0,0,.31.24.81.81,0,0,0,.86-.14l3.39-3c0-.75,0-1.51-.05-2.27l-4.41,4A.94.94,0,0,0,250.84,196.07Z" style="fill:#6020bd"/><path d="M224.67,130.63a.82.82,0,0,0,.74-.48l3-6.25a.93.93,0,0,0-.35-1.2.81.81,0,0,0-1.12.39l-3,6.25a.91.91,0,0,0,.36,1.19A.75.75,0,0,0,224.67,130.63Z" style="fill:#6020bd"/><path d="M205.33,153.54h.16a.88.88,0,0,0,.66-1l-1.25-6.91a.83.83,0,0,0-1-.7.89.89,0,0,0-.66,1l1.25,6.91A.85.85,0,0,0,205.33,153.54Z" style="fill:#6020bd"/><path d="M216.1,159.61a.47.47,0,0,0,.16,0,.87.87,0,0,0,.65-1l-1.24-6.91a.85.85,0,0,0-1-.71.89.89,0,0,0-.66,1l1.25,6.91A.83.83,0,0,0,216.1,159.61Z" style="fill:#6020bd"/><path d="M208.39,136.81a.81.81,0,0,0,.7-.41l3.52-5.94a.91.91,0,0,0-.25-1.22.81.81,0,0,0-1.15.27l-3.52,5.94a.93.93,0,0,0,.25,1.23A.84.84,0,0,0,208.39,136.81Z" style="fill:#6020bd"/><path d="M240.73,198.08a.93.93,0,0,0,.15-1L238,190.74a.8.8,0,0,0-1.1-.42.91.91,0,0,0-.39,1.19l2.83,6.35a.8.8,0,0,0,1.11.41A.63.63,0,0,0,240.73,198.08Z" style="fill:#6020bd"/><path d="M219.4,179.65a.84.84,0,0,0,.78-.56l2.39-6.55a.9.9,0,0,0-.47-1.15.81.81,0,0,0-1.07.5l-2.4,6.55a.9.9,0,0,0,.47,1.15A.8.8,0,0,0,219.4,179.65Z" style="fill:#6020bd"/><path d="M193.06,220.13a.74.74,0,0,0,.37-.1.92.92,0,0,0,.37-1.19l-3-6.28a.8.8,0,0,0-1.11-.39.92.92,0,0,0-.36,1.2l3,6.27A.81.81,0,0,0,193.06,220.13Z" style="fill:#6020bd"/><path d="M236.72,265.26a1,1,0,0,0,.09.4.82.82,0,0,0,1.12.38l5.84-3.24a.92.92,0,0,0,.36-1.2.81.81,0,0,0-1.12-.38l-5.84,3.24A.9.9,0,0,0,236.72,265.26Z" style="fill:#6020bd"/><path d="M252.58,269.28a.9.9,0,0,0,.09.4.8.8,0,0,0,1.12.38l2.54-1.41v-2l-3.3,1.83A.89.89,0,0,0,252.58,269.28Z" style="fill:#6020bd"/><path d="M228,277.11l2,4.56,1.09-.12.65-.08-2.24-5.11a.8.8,0,0,0-1.1-.43A.93.93,0,0,0,228,277.11Z" style="fill:#6020bd"/><path d="M182.27,204.12a.85.85,0,0,0,.82-.74l1.07-6.95a.88.88,0,0,0-.68-1,.83.83,0,0,0-.95.73l-1.07,7a.88.88,0,0,0,.68,1Z" style="fill:#6020bd"/><path d="M181.59,152.89a.74.74,0,0,0,.42-.13.9.9,0,0,0,.29-1.21L179,145.49a.79.79,0,0,0-1.13-.31.93.93,0,0,0-.3,1.22l3.36,6A.82.82,0,0,0,181.59,152.89Z" style="fill:#6020bd"/><path d="M192.37,177.5a.85.85,0,0,0,.45-.14l5.52-3.82a.92.92,0,0,0,.25-1.23.8.8,0,0,0-1.15-.26l-5.52,3.82a.92.92,0,0,0-.25,1.23A.82.82,0,0,0,192.37,177.5Z" style="fill:#6020bd"/><path d="M250.87,218.78a.84.84,0,0,0,.37-.09.92.92,0,0,0,.36-1.2l-3-6.28a.8.8,0,0,0-1.11-.39.93.93,0,0,0-.37,1.2l3,6.27A.81.81,0,0,0,250.87,218.78Z" style="fill:#6020bd"/><path d="M183,187a.83.83,0,0,0,.71-.42.93.93,0,0,0-.27-1.22l-5.57-3.73a.8.8,0,0,0-1.15.28.93.93,0,0,0,.27,1.22l5.57,3.73A.74.74,0,0,0,183,187Z" style="fill:#6020bd"/><path d="M196.32,195.92a.81.81,0,0,0,.78.21.9.9,0,0,0,.59-1.09L196,188.25a.82.82,0,0,0-1-.63.9.9,0,0,0-.58,1.09l1.73,6.79A.86.86,0,0,0,196.32,195.92Z" style="fill:#6020bd"/><path d="M172.79,124.25l1.44,2.34a.82.82,0,0,0,.69.39.78.78,0,0,0,.46-.14.93.93,0,0,0,.23-1.23L174,123A14.12,14.12,0,0,0,172.79,124.25Z" style="fill:#6020bd"/><path d="M166.48,139.68l1.53,2.49a.82.82,0,0,0,.7.4.77.77,0,0,0,.45-.14.92.92,0,0,0,.24-1.23l-2.18-3.53C167,138.32,166.73,139,166.48,139.68Z" style="fill:#6020bd"/><path d="M238.19,240.7a.8.8,0,0,0,.6-.27l4.56-5.07a.94.94,0,0,0,0-1.26.78.78,0,0,0-1.17,0l-4.55,5.07a.94.94,0,0,0,0,1.26A.81.81,0,0,0,238.19,240.7Z" style="fill:#6020bd"/><path d="M207.87,258.45a.8.8,0,0,0,.6-.27L213,253.1a.92.92,0,0,0,0-1.25.79.79,0,0,0-1.17,0L207.27,257a.93.93,0,0,0,0,1.25A.78.78,0,0,0,207.87,258.45Z" style="fill:#6020bd"/><path d="M199.45,251.4a1,1,0,0,0,.17-.67l-.82-7a.84.84,0,0,0-.92-.77.87.87,0,0,0-.72,1l.82,7a.84.84,0,0,0,.93.76A.82.82,0,0,0,199.45,251.4Z" style="fill:#6020bd"/><path d="M216.72,271.08a.79.79,0,0,0,.59-.27l4.56-5.08a.92.92,0,0,0,0-1.25.8.8,0,0,0-1.18,0l-4.55,5.08a.92.92,0,0,0,0,1.25A.79.79,0,0,0,216.72,271.08Z" style="fill:#6020bd"/><path d="M167.66,251.87v1.78l5.15.46a.84.84,0,0,0,.89-.81.87.87,0,0,0-.75-1Z" style="fill:#6020bd"/><path d="M227.9,230a.8.8,0,0,0,.6-.27l4.56-5.08a.93.93,0,0,0,0-1.25.79.79,0,0,0-1.17,0l-4.56,5.08a.93.93,0,0,0,0,1.25A.77.77,0,0,0,227.9,230Z" style="fill:#6020bd"/><path d="M206,227.82a.87.87,0,0,0,.29.62l5,4.53a.78.78,0,0,0,1.16-.11.91.91,0,0,0-.1-1.24l-5-4.53a.79.79,0,0,0-1.17.1A.92.92,0,0,0,206,227.82Z" style="fill:#6020bd"/><path d="M182,252.74a.81.81,0,0,0,.42-.12.93.93,0,0,0,.3-1.21l-3.3-6.1a.8.8,0,0,0-1.13-.32.92.92,0,0,0-.3,1.21l3.29,6.09A.83.83,0,0,0,182,252.74Z" style="fill:#6020bd"/><path d="M176.28,234.63a.8.8,0,0,0,.73-.48l3-6.25a.92.92,0,0,0-.36-1.2.8.8,0,0,0-1.11.39l-3,6.25a.91.91,0,0,0,.36,1.19A.75.75,0,0,0,176.28,234.63Z" style="fill:#6020bd"/><path d="M185.27,163.62a.82.82,0,0,0,.74-.48l3-6.25a.91.91,0,0,0-.36-1.19.8.8,0,0,0-1.12.38l-3,6.25a.93.93,0,0,0,.35,1.2A.92.92,0,0,0,185.27,163.62Z" style="fill:#6020bd"/><path d="M182,137.38l.16,0a.87.87,0,0,0,.65-1l-1.24-6.91a.83.83,0,0,0-1-.71.89.89,0,0,0-.66,1l1.25,6.91A.83.83,0,0,0,182,137.38Z" style="fill:#6020bd"/><path d="M166.83,161.22H167a.88.88,0,0,0,.65-1l-1.24-6.91a.84.84,0,0,0-1-.7.87.87,0,0,0-.65,1L166,160.5A.85.85,0,0,0,166.83,161.22Z" style="fill:#6020bd"/><path d="M192.74,143.45l.16,0a.88.88,0,0,0,.66-1l-1.25-6.91a.83.83,0,0,0-1-.7.89.89,0,0,0-.66,1l1.25,6.91A.86.86,0,0,0,192.74,143.45Z" style="fill:#6020bd"/><path d="M187.8,119.38a.79.79,0,0,0,.46,0,.89.89,0,0,0,.54-.63l1.39-6.35-1.95,1.12-1.05,4.82A.89.89,0,0,0,187.8,119.38Z" style="fill:#6020bd"/><path d="M168.84,171.91a.82.82,0,0,0,.7-.42l3.52-5.94a.92.92,0,0,0-.25-1.22.81.81,0,0,0-1.15.27l-3.52,5.94a.92.92,0,0,0,.25,1.23A.82.82,0,0,0,168.84,171.91Z" style="fill:#6020bd"/><path d="M192.38,235.73a.93.93,0,0,0,.15-1l-2.84-6.35a.8.8,0,0,0-1.1-.42.91.91,0,0,0-.39,1.19l2.83,6.35a.8.8,0,0,0,1.11.41A.72.72,0,0,0,192.38,235.73Z" style="fill:#6020bd"/><path d="M250.7,247.67l5.54,1c0-.6,0-1.2,0-1.8l-5.25-.92a.84.84,0,0,0-.95.74A.89.89,0,0,0,250.7,247.67Z" style="fill:#6020bd"/><path d="M252.39,231.44l3.69.64c0-.6,0-1.2,0-1.8l-3.4-.59a.83.83,0,0,0-.95.74A.87.87,0,0,0,252.39,231.44Z" style="fill:#6020bd"/><path d="M171.05,217.3a.82.82,0,0,0,.77-.56l2.4-6.55a.9.9,0,0,0-.47-1.15.81.81,0,0,0-1.07.5l-2.4,6.55a.9.9,0,0,0,.47,1.15A.8.8,0,0,0,171.05,217.3Z" style="fill:#6020bd"/><path d="M204,97.06v12s3.56,6.09,8.38,6.5,9.1-5.24,9.1-5.24V97.9Z" style="fill:#ffa681"/><path d="M204,97.06v5.31c3.23,3.59,9,4.49,17.48,3.23V97.9Z" style="fill:#f97853"/><path d="M168,196.63c1.55-6.43,3.51-13.58,5.45-19.74v0c.6-1.9,1.2-3.71,1.78-5.37l0-.08c.18-.53.37-1,.55-1.53a1.09,1.09,0,0,0,0-.25h0a.73.73,0,0,0-.48-.68.74.74,0,0,0-.94.44c-2,5.42-4.33,13.22-6.35,20.87Z" style="fill:#6020bd"/><path d="M295.92,194.3c-1.54,14.08-10.74,45.54-17.1,51.7-8.29,8-35.57,24.91-49.77,33.57-2.57,1.57,9.47,12,9.47,12s37.72-16.13,52.13-28.85c4.08-3.6,12.35-14.94,21.69-36.56,2.83-6.55,9.7-19.77,9.34-28.39C321.27,187.82,305.51,189.46,295.92,194.3Z" style="fill:#7846d1"/><path d="M267.13,275.67s-10.49,3.23-14.39,7.28-8.93,7.36-7.87,9.12,6.68-2.82,6.68-2.82,1.11,5.5,6.23,6.42,15.51-8.54,15.51-8.54Z" style="fill:#ffa681"/><path d="M367.76,233.61c0,.9,0,1.95,0,3.14s0,2.52-.08,4q0,1.5-.09,3.15c0,.93-.07,1.9-.11,2.9s-.09,2.07-.15,3.16c-.71,14.74-2.44,35.11-6.24,51.43H281.26c2.66-11.86,6.73-30.58,10-54.86.14-1,.27-2.05.4-3.09s.27-2.09.4-3.15c.07-.57.13-1.14.2-1.71s.11-.93.16-1.4c.15-1.3.29-2.59.41-3.85.1-1.06.19-2.1.28-3.12,1.37-16.32.88-28.56,2.85-35.88,2.29-8.53,29-18.31,29-18.31l16.74.87s15.95,5.21,24.48,12.7,1.4,29.84,1.61,42.53C367.76,232.53,367.76,233,367.76,233.61Z" style="fill:#9c78ed"/><path d="M367.74,236.75A184.65,184.65,0,0,1,345.48,238a331.61,331.61,0,0,1-52.69-4.68c.1-1.06.19-2.1.28-3.12,6.42,1.14,43.61,7.29,74.69,3.43C367.76,234.51,367.76,235.56,367.74,236.75Z" style="fill:#e0d5f8"/><path d="M367.66,240.72q0,1.5-.09,3.15a186.09,186.09,0,0,1-22.09,1.21A330.41,330.41,0,0,1,292,240.26c.07-.57.13-1.14.2-1.71s.11-.93.16-1.4C296.08,237.83,335.18,244.73,367.66,240.72Z" style="fill:#e0d5f8"/><path d="M367.46,246.77c0,1-.09,2.07-.15,3.16a185,185,0,0,1-23,1.32,330.36,330.36,0,0,1-53-4.75c.14-1,.27-2.05.4-3.09C297.39,244.44,335.8,250.91,367.46,246.77Z" style="fill:#e0d5f8"/><path d="M329.75,192c8.32,0,16-8.84,16.33-9.23A.6.6,0,0,0,346,182a.59.59,0,0,0-.83.07c-.08.09-8.12,9.35-16.16,8.79a.58.58,0,0,0-.62.55.58.58,0,0,0,.54.62C329.22,192,329.48,192,329.75,192Z" style="fill:#7846d1"/><path d="M337,291.51a.59.59,0,0,0,.07-1.17c-21.49-2.48-30.4-39.68-30.49-40.06a.59.59,0,0,0-.7-.44.59.59,0,0,0-.44.71c.37,1.57,9.19,38.39,31.5,41Z" style="fill:#7846d1"/><path d="M328.4,280.25a.59.59,0,0,0,.31-1.09c-11.43-7-13.13-17.43-13.14-17.54a.59.59,0,0,0-.67-.49.6.6,0,0,0-.5.67c.07.44,1.78,11,13.7,18.36A.55.55,0,0,0,328.4,280.25Z" style="fill:#7846d1"/><path d="M342.54,166.64v12.07s-5,5.33-9.84,5.75-7.82-5.36-7.82-5.36V167.48Z" style="fill:#ffa681"/><path d="M342.54,166.64V172c-3.27,3.63-9.07,4.54-17.66,3.27v-7.78Z" style="fill:#f97853"/><path d="M362.75,186.94c-8.39,12.71-40.48,56.66-47.73,61.76-9.42,6.65-35.12,16.1-49.88,25.95-5,3.35,6.83,12.82,6.83,12.82s36-10.11,52.17-20.45c4.58-2.92,23.64-22,35.79-38.95,4.16-5.8,10.93-13.86,11.91-22.42C373,195.78,369.87,190.5,362.75,186.94Z" style="fill:#7846d1"/><rect x="196.84" y="288.77" width="104.61" height="12.59" rx="2.31" style="fill:#1a0b42"/><path d="M196.86,301.36,177.2,227.72a6.51,6.51,0,0,1,6.29-8.19h43.27a6.51,6.51,0,0,1,6.27,4.75l21.65,77.08Z" style="fill:#403657"/><path d="M233,224.28l21.47,76.45h4.95L238,224.28a6.53,6.53,0,0,0-6.28-4.75h-4.94A6.51,6.51,0,0,1,233,224.28Z" style="fill:#1a0b42"/><path d="M221.91,263.74c1.12,4.86-1.9,8.8-6.76,8.8a11.74,11.74,0,0,1-10.83-8.8c-1.12-4.86,1.9-8.79,6.76-8.79A11.74,11.74,0,0,1,221.91,263.74Z" style="fill:#614c6e"/><rect x="7.51" y="301.38" width="404.45" height="15.73" rx="7.51" style="fill:#5b23a9"/><path d="M412,308.88v.36H7.51v-.36a7.5,7.5,0,0,1,7.51-7.5H404.45A7.5,7.5,0,0,1,412,308.88Z" style="fill:#7846d1"/></g></g></svg>