<svg xmlns="http://www.w3.org/2000/svg" viewBox="0 0 393.52 90.25"><g id="Layer_2" data-name="Layer 2"><g id="OBJECTS"><path d="M354.14,37.63a6.6,6.6,0,1,1,6.61-6.6A6.61,6.61,0,0,1,354.14,37.63Zm0-11.13A4.53,4.53,0,1,0,358.68,31,4.54,4.54,0,0,0,354.14,26.5Z" style="fill:#7846d1"/><path d="M377.92,60.8a6.61,6.61,0,1,1,6.6-6.6A6.62,6.62,0,0,1,377.92,60.8Zm0-11.13a4.53,4.53,0,1,0,4.53,4.53A4.54,4.54,0,0,0,377.92,49.67Z" style="fill:#9c78ed"/><path d="M386.07,82.26a1,1,0,0,1-1-1V76.65a1,1,0,0,1,2.07,0v4.57A1,1,0,0,1,386.07,82.26Z" style="fill:#7846d1"/><path d="M386.07,90.25a1,1,0,0,1-1-1V84.65a1,1,0,1,1,2.07,0v4.57A1,1,0,0,1,386.07,90.25Z" style="fill:#7846d1"/><path d="M392.49,84h-4.11a1,1,0,0,1,0-2.07h4.11a1,1,0,0,1,0,2.07Z" style="fill:#7846d1"/><path d="M383.77,84h-4.11a1,1,0,0,1,0-2.07h4.11a1,1,0,0,1,0,2.07Z" style="fill:#7846d1"/><path d="M349.61,56.66a1,1,0,0,1-1-1V51.06a1,1,0,1,1,2.07,0v4.57A1,1,0,0,1,349.61,56.66Z" style="fill:#5b23a9"/><path d="M349.61,64.66a1,1,0,0,1-1-1V59.05a1,1,0,0,1,2.07,0v4.57A1,1,0,0,1,349.61,64.66Z" style="fill:#5b23a9"/><path d="M356,58.38h-4.1a1,1,0,0,1,0-2.08H356a1,1,0,1,1,0,2.08Z" style="fill:#5b23a9"/><path d="M347.3,58.38h-4.1a1,1,0,0,1,0-2.08h4.1a1,1,0,1,1,0,2.08Z" style="fill:#5b23a9"/><path d="M47.69,7.32a6.61,6.61,0,1,1,6.61,6.6A6.62,6.62,0,0,1,47.69,7.32Zm2.08,0A4.53,4.53,0,1,0,54.3,2.78,4.53,4.53,0,0,0,49.77,7.32Z" style="fill:#7846d1"/><path d="M21.18,32.49a6.6,6.6,0,1,1,6.6,6.6A6.62,6.62,0,0,1,21.18,32.49Zm2.07,0A4.53,4.53,0,1,0,27.78,28,4.54,4.54,0,0,0,23.25,32.49Z" style="fill:#9c78ed"/><path d="M7.45,41.75a1,1,0,0,0,1-1V36.15a1,1,0,1,0-2.07,0v4.57A1,1,0,0,0,7.45,41.75Z" style="fill:#7846d1"/><path d="M7.45,49.75a1,1,0,0,0,1-1V44.14a1,1,0,0,0-2.07,0v4.57A1,1,0,0,0,7.45,49.75Z" style="fill:#7846d1"/><path d="M1,43.47h4.1a1,1,0,0,0,0-2.08H1a1,1,0,0,0,0,2.08Z" style="fill:#7846d1"/><path d="M9.76,43.47h4.1a1,1,0,0,0,0-2.08H9.76a1,1,0,0,0,0,2.08Z" style="fill:#7846d1"/><path d="M31.31,6.64a1,1,0,0,0,1-1V1a1,1,0,1,0-2.07,0V5.6A1,1,0,0,0,31.31,6.64Z" style="fill:#5b23a9"/><path d="M31.31,14.63a1,1,0,0,0,1-1V9a1,1,0,1,0-2.07,0V13.6A1,1,0,0,0,31.31,14.63Z" style="fill:#5b23a9"/><path d="M24.9,8.35H29a1,1,0,0,0,0-2.07H24.9a1,1,0,0,0,0,2.07Z" style="fill:#5b23a9"/><path d="M33.62,8.35h4.11a1,1,0,0,0,0-2.07H33.62a1,1,0,0,0,0,2.07Z" style="fill:#5b23a9"/></g></g></svg>