<svg xmlns="http://www.w3.org/2000/svg" viewBox="0 0 41.93 118.57"><g id="Layer_2" data-name="Layer 2"><g id="OBJECTS"><path d="M16.6,117.21c-1.56-23.3-1.82-47.74-.08-63.94,2.26-21.17,7.39-35.9,15.23-43.79a1.34,1.34,0,1,1,1.9,1.88C19.94,25.16,15,62.2,19.36,118.57Z" style="fill:#5b23a9"/><path d="M20.11,34.57s-11.17,0-10.37-19.65C9.74,14.92,26.82,19.8,20.11,34.57Z" style="fill:#7846d1"/><path d="M19.17,44.67s-.6-11.15,19-11.45C38.21,33.22,34.3,50.55,19.17,44.67Z" style="fill:#7846d1"/><path d="M27.71,17.14S23.43,6.83,41.84,0C41.84,0,43.93,17.64,27.71,17.14Z" style="fill:#7846d1"/><path d="M16.67,64.92S6.15,68.68.27,49.94C.27,49.94,18,48.75,16.67,64.92Z" style="fill:#7846d1"/><path d="M17.27,75.35S14.75,64.48,34,60.79C34,60.79,33.18,78.53,17.27,75.35Z" style="fill:#7846d1"/><path d="M16.68,89.72S6.24,93.68,0,75.05C0,75.05,17.7,73.52,16.68,89.72Z" style="fill:#7846d1"/></g></g></svg>