<svg xmlns="http://www.w3.org/2000/svg" viewBox="0 0 54.26 68.08"><g id="Layer_2" data-name="Layer 2"><g id="OBJECTS"><circle cx="29.03" cy="31.95" r="23.55" style="fill:#403657"/><path d="M5.87,27.73S-.8,25.89.08,19.41c.75-5.5,7.22-1.93,6.65-6.24S4.9,5,10.47,3.88c4.87-.94,4.95,2.39,11.35-2.45C29.37-4.29,35.18,9,41.92,9.36c9.95.58,11.21,6.21,12.18,10.71s-2.85,7.66-2.85,7.66Z" style="fill:#403657"/><path d="M9.44,38.54s-3.73-5-6.5-.86S4.08,53.94,10.87,51Z" style="fill:#f97853"/><path d="M9.39,47.22a.58.58,0,0,1-.55-.42c-1-3.75-4.94-5.27-5-5.29a.57.57,0,1,1,.41-1.07c.18.07,4.46,1.73,5.67,6.05a.58.58,0,0,1-.39.71Z" style="fill:#ea5143"/><path d="M5.47,45.33a.59.59,0,0,1-.31-.09.58.58,0,0,1-.17-.8,5.22,5.22,0,0,1,2.15-1.73.58.58,0,0,1,.47,1A4.14,4.14,0,0,0,6,45.07.56.56,0,0,1,5.47,45.33Z" style="fill:#ea5143"/><path d="M49.23,30.25a117.64,117.64,0,0,1-1.57,15.26c-.22,1.17-.48,2.27-.76,3.26-2.54,8.9-8.9,24.16-26.7,17.81C12.34,63.77,8.7,55,7.07,46.11A86.23,86.23,0,0,1,5.89,29.58a12.61,12.61,0,0,1,6.39-10.73c10.51-6,21.6-3.73,28.9-.93A12.59,12.59,0,0,1,49.23,30.25Z" style="fill:#ffa681"/><path d="M27.87,38.78v1A7.12,7.12,0,0,0,35,46.87h.23a6.43,6.43,0,0,0,4.43-1.95,7,7,0,0,0,2-5V38.78a2.34,2.34,0,0,0-.17-.88A2.36,2.36,0,0,0,41,37a2.52,2.52,0,0,0-1.77-.73H30.38a2.49,2.49,0,0,0-2.26,1.43,2.28,2.28,0,0,0-.24,1A.13.13,0,0,0,27.87,38.78Zm1,0a1.46,1.46,0,0,1,1.47-1.46h8.81a1.46,1.46,0,0,1,1.46,1.46v1.13a5.94,5.94,0,0,1-1.74,4.26,5.45,5.45,0,0,1-3.72,1.66H35a6.08,6.08,0,0,1-6.07-6.09Z" style="fill:#403657"/><path d="M10.23,38.78v1a7.12,7.12,0,0,0,7.11,7.13h.24A6.41,6.41,0,0,0,22,44.92a7,7,0,0,0,2.05-5V38.74a2.36,2.36,0,0,0-.21-1,2.5,2.5,0,0,0-2.29-1.5H12.74a2.47,2.47,0,0,0-2.41,1.83A2.18,2.18,0,0,0,10.23,38.78Zm1,0a1.46,1.46,0,0,1,1.47-1.46h8.81A1.46,1.46,0,0,1,23,38.78v1.13a6,6,0,0,1-1.75,4.26,5.41,5.41,0,0,1-3.71,1.66h-.22a6.09,6.09,0,0,1-6.07-6.09Z" style="fill:#403657"/><path d="M48,35.86A12.42,12.42,0,0,0,42,37c-.24.12-.87.53-.9.55l.5.88a10.66,10.66,0,0,1,1-.54,10.77,10.77,0,0,1,5.41-1Z" style="fill:#403657"/><path d="M28.57,38.82l.34-1a10.71,10.71,0,0,0-3.12-.52,7.05,7.05,0,0,0-2.85.54l.45.94a6.27,6.27,0,0,1,2.4-.44A10,10,0,0,1,28.57,38.82Z" style="fill:#403657"/><path d="M6.59,36.11v1a13.55,13.55,0,0,1,4.17,1.15l.46-.93A14,14,0,0,0,6.59,36.11Z" style="fill:#403657"/><path d="M18.39,40.12c0,1.28-.67,2.33-1.49,2.33s-1.48-1.05-1.48-2.33.66-2.34,1.48-2.34S18.39,38.83,18.39,40.12Z" style="fill:#403657"/><path d="M35.77,40.12c0,1.28-.67,2.33-1.49,2.33S32.8,41.4,32.8,40.12s.66-2.34,1.48-2.34S35.77,38.83,35.77,40.12Z" style="fill:#403657"/><path d="M12.08,33S18.25,30.5,23,32.56l-.4,2.21a20,20,0,0,0-10.19.73C12.1,34.48,11.67,34,12.08,33Z" style="fill:#403657"/><path d="M40.35,33s-6.18-2.45-10.94-.39l.4,2.21A20.08,20.08,0,0,1,40,35.5C40.32,34.48,40.75,34,40.35,33Z" style="fill:#403657"/><path d="M26.5,49.9a6.13,6.13,0,0,0,2.08-.44.57.57,0,1,0-.43-1.06,3.46,3.46,0,0,1-2.3.22.64.64,0,0,1-.29-.54c-.2-2,.35-8.72.35-8.79a.57.57,0,0,0-1.14-.09,82.39,82.39,0,0,0-.35,9,1.74,1.74,0,0,0,.84,1.4A2.4,2.4,0,0,0,26.5,49.9Z" style="fill:#f97853"/><path d="M19.39,52.81c.47,2.36,2,6.7,7.28,6.7s6.74-4,7.25-6.7Z" style="fill:#fff"/><path d="M26.6,62.51a5.94,5.94,0,0,0,2.8-.79.57.57,0,0,0,.19-.78.57.57,0,0,0-.79-.2,4.78,4.78,0,0,1-2.2.62,4.79,4.79,0,0,1-2.09-.61.57.57,0,1,0-.6,1A5.74,5.74,0,0,0,26.6,62.51Z" style="fill:#f97853"/><path d="M8.85,42.37C8.42,40,8,37,8.3,35.38c.56-2.77,2.85-4.4,2.09-7.07s2.06-5.55,4.14-6,6.93.55,11.72-1.72C30.81,18.39,38.75,20,40,22.87c1.57,3.55-.56,3.89,3.71,7.72,1.7,1.53-.32,5.5-.61,8.08a17,17,0,0,0-.1,3l0,.65h5.11c.56-4,.88-8.42,1.06-12.12a12.58,12.58,0,0,0-8-12.33c-7.3-2.8-18.39-5-28.9.93A12.61,12.61,0,0,0,5.89,29.58a89.72,89.72,0,0,0,.62,12.79Z" style="fill:#403657"/><path d="M45.9,44.57a22.28,22.28,0,0,1,.31-4c.32-1.8.85-3.43,2.69-4.18,1.48-.6,3.06-.61,4.19,1.06,2.77,4.11-.32,16.9-7.11,13.94Z" style="fill:#ffa681"/><path d="M47.3,47.67a.58.58,0,0,0,.46-.52C48.05,43.27,51.57,41,51.6,41a.57.57,0,0,0,.18-.79A.58.58,0,0,0,51,40c-.16.11-4,2.57-4.38,7a.57.57,0,0,0,.53.61A.43.43,0,0,0,47.3,47.67Z" style="fill:#f97853"/><path d="M50.77,45.05a.54.54,0,0,0,.29-.15.57.57,0,0,0,0-.81,5.21,5.21,0,0,0-2.45-1.28.57.57,0,0,0-.69.43.58.58,0,0,0,.44.69,4.18,4.18,0,0,1,1.88,1A.57.57,0,0,0,50.77,45.05Z" style="fill:#f97853"/></g></g></svg>