<svg xmlns="http://www.w3.org/2000/svg" viewBox="0 0 54.13 69.01"><g id="Layer_2" data-name="Layer 2"><g id="OBJECTS"><path d="M5,37.63s-5.78-6.36-3.6-13.76,8.14-7.32,8.14-7.32S13.06,8.67,19,8.41,30.49-2.37,35.88.49s-.58,9.09-.58,9.09S44.53-.16,47.57,2.7s-4.22,10.52-4.22,10.52,7.76-5.46,10.31-3.38-6.09,11-6.09,11,5.59,10.07,0,14.58Z" style="fill:#403657"/><path d="M45.37,39.76s3.7-4.92,6.44-.85S50.68,55,44,52.07Z" style="fill:#f97853"/><path d="M45.42,48.36a.58.58,0,0,0,.55-.42c1-3.71,4.89-5.22,4.93-5.23a.57.57,0,0,0-.41-1.06,9.75,9.75,0,0,0-5.61,6,.56.56,0,0,0,.39.7A.4.4,0,0,0,45.42,48.36Z" style="fill:#ea5143"/><path d="M49.3,46.49a.5.5,0,0,0,.31-.1.57.57,0,0,0,.17-.78,5.27,5.27,0,0,0-2.13-1.72.57.57,0,0,0-.46,1,4.23,4.23,0,0,1,1.64,1.29A.56.56,0,0,0,49.3,46.49Z" style="fill:#ea5143"/><path d="M7.33,39.76S3.64,34.84.89,38.91,2,55,8.75,52.07Z" style="fill:#f97853"/><path d="M7.28,48.36a.58.58,0,0,1-.55-.42c-1-3.71-4.88-5.22-4.92-5.23a.57.57,0,0,1,.4-1.06,9.75,9.75,0,0,1,5.62,6,.56.56,0,0,1-.4.7A.4.4,0,0,1,7.28,48.36Z" style="fill:#ea5143"/><path d="M3.4,46.49a.52.52,0,0,1-.31-.1.57.57,0,0,1-.17-.78,5.27,5.27,0,0,1,2.13-1.72.56.56,0,0,1,.75.29.57.57,0,0,1-.28.75,4.13,4.13,0,0,0-1.64,1.29A.59.59,0,0,1,3.4,46.49Z" style="fill:#ea5143"/><path d="M4.66,31.56a115.18,115.18,0,0,0,1.55,15.1v0a.08.08,0,0,0,0,0h0c.22,1.13.47,2.2.73,3.16.16.56.34,1.15.54,1.76,2.83,8.89,9.39,21.75,25.9,15.87C40.34,65,44,57.86,45.8,50.08c.11-.47.21-.93.3-1.37s.12-.58.17-.86l.08-.41c0-.08,0-.12,0-.16v0a85.37,85.37,0,0,0,1.18-16.37,12.49,12.49,0,0,0-6.34-10.61c-10.39-5.9-21.37-3.7-28.59-.92A12.41,12.41,0,0,0,4.66,31.56Z" style="fill:#ffa681"/><path d="M6.2,46.66v0a.08.08,0,0,0,0,0h0c.11.39.69,2.52,1.27,4.92,2.83,8.89,9.39,21.75,25.9,15.87C40.34,65,44,57.86,45.8,50.08c.11-.47.21-.93.3-1.37s.12-.58.17-.86l.08-.41c0-.08,0-.12,0-.16v0L44,46.77a18.73,18.73,0,0,1-2.75,6.38c-2.06-4.91-12.47-1.65-12.47-1.65l0,0a6.42,6.42,0,0,1-3.94,0s-10.29-3.41-12.43,1.28a66.67,66.67,0,0,1-3.58-6.29l-2.53.17Zm20.52,7.07c11.78-1.59,9.92,4.75,9.92,4.75A20.34,20.34,0,0,1,33.34,61a13.57,13.57,0,0,1-6.94,1.88c-1.81-.07-2.3.3-6.87-2.17a11.88,11.88,0,0,1-2.43-1.84h0C16.9,57.62,14.91,51.7,26.72,53.73Z" style="fill:#403657"/><path d="M16,40.21c0,1.28.66,2.31,1.47,2.31s1.47-1,1.47-2.31-.66-2.31-1.47-2.31S16,38.93,16,40.21Z" style="fill:#403657"/><path d="M34.41,40.21c0,1.28.66,2.31,1.47,2.31s1.47-1,1.47-2.31-.66-2.31-1.47-2.31S34.41,38.93,34.41,40.21Z" style="fill:#403657"/><path d="M12.28,32.42S18.35,30,23,32l-.47,2.6s-6.86-.58-10.32.82A4.54,4.54,0,0,1,12.28,32.42Z" style="fill:#403657"/><path d="M41.15,32.43S35,30,30.32,32.05l.47,2.62s6.92-.59,10.4.82A4.53,4.53,0,0,0,41.15,32.43Z" style="fill:#403657"/><path d="M26.15,50.54a6.11,6.11,0,0,1-2-.43.57.57,0,0,1,.43-1.06,3.4,3.4,0,0,0,2.28.22.62.62,0,0,0,.27-.53,83.58,83.58,0,0,0-.34-8.7.57.57,0,0,1,.52-.61.56.56,0,0,1,.61.52,81.28,81.28,0,0,1,.34,8.91,1.73,1.73,0,0,1-.82,1.38A2.38,2.38,0,0,1,26.15,50.54Z" style="fill:#f97853"/><path d="M33.39,54.86C33,57,31.53,61,26.7,61S20.51,57.38,20,54.86Z" style="fill:#fff"/><path d="M4.66,31.56A115.51,115.51,0,0,0,6.21,46.67l2.54-.18s-.62-3.93-.9-6.48-.77-7.34,1.41-7.93.9-6,3.93-8.41,9.8-3,14.26-.27,9.5-.2,11.55.27,4.86,3.31,4.1,6,1.52,4.26,2.07,7S44,46.77,44,46.77l2.42.49A85.32,85.32,0,0,0,47.56,30.9a12.48,12.48,0,0,0-6.34-10.62c-10.4-5.9-21.37-3.7-28.59-.92A12.42,12.42,0,0,0,4.66,31.56Z" style="fill:#403657"/></g></g></svg>