<svg xmlns="http://www.w3.org/2000/svg" viewBox="0 0 73.15 102.91"><g id="Layer_2" data-name="Layer 2"><g id="OBJECTS"><path d="M68.08,72.78s-28.66,6.71-47.22,10c0,0-.09-8-.05-18.51,0-11.41,1.84-28.64,1.84-28.64l-9.72.52S-3.08,86.05.53,98.32s72.62-4,72.62-4Z" style="fill:#7846d1"/><path d="M22,36.75s5-1.23,7.08-4.72,7.75-10.45,4.61-13.29c-1.14-1-2.21,3.18-5.4,4.87a56.69,56.69,0,0,1-2.09-8.54c-.44-3.3-2-9.51-2.72-12.38a.8.8,0,0,0-1.55,0c-.35,1.26-.43,3.6.49,7.91,0,0-2.72-10.28-4.64-10.57s1.74,12.51,1.74,12.51-3.85-9.44-5.4-9c-1,.28,1.59,10.74,1.59,10.74S11.36,5.7,11,8.45c-.1.8,6,18.5,1.94,27.65C12.93,36.1,18.87,38.09,22,36.75Z" style="fill:#ffa681"/></g></g></svg>