<svg xmlns="http://www.w3.org/2000/svg" viewBox="0 0 168.98 198.01"><g id="Layer_2" data-name="Layer 2"><g id="OBJECTS"><path d="M83.43,24.11S87.89,59.44,93,77.57c0,0,7.24-3.37,16.71-7.94,10.28-5,25-14,25-14l3.73,9s-38.14,36-50.78,38S67.3,59.44,67.3,59.44Z" style="fill:#7846d1"/><path d="M134,56.66s-1-5,1.2-8.41,5.66-9.76,9.68-11.09c3.36-1.11-1.6,4.56-1.75,8.16a57,57,0,0,0,8.61-1.8c3.17-1,9.44-2.31,12.35-2.88a.8.8,0,0,1,.69,1.38c-1,.86-3.06,1.94-7.35,3,0,0,10.45-2,11.53-.38s-12,3.84-12,3.84,10.17-.61,10.43,1c.17,1-10.37,3.2-10.37,3.2s9.61.25,7.29,1.77c-.68.44-19.29,2.54-25.78,10.19C138.46,64.6,134.1,60.09,134,56.66Z" style="fill:#ffa681"/><path d="M82.63,161l.17.75C66.18,173,4,165.32,4,165.32q.15-2,.42-4.08c.2-1.57.44-3.2.71-4.88.75-4.53,1.76-9.42,2.89-14.46.37-1.58.73-3.19,1.11-4.8,1.12-4.81,2.32-9.68,3.45-14.43.39-1.63.77-3.24,1.14-4.84.52-2.22,1-4.41,1.48-6.52.61-2.82,1.16-5.53,1.62-8.08.31-1.71.58-3.36.78-4.92s.4-3.21.5-4.66Q16.65,88.18,15.36,83q-.63-2.65-1.25-5.2c-1.28-5.47-2.4-10.67-3.38-15.54q-.52-2.65-1-5.18c-1.08-5.74-2-10.94-2.67-15.48-.27-1.81-.53-3.5-.75-5.09s-.47-3.35-.65-4.82c-.83-6.43-1.12-10.08-1.12-10.08s.3-.22.46-.34a33.77,33.77,0,0,1,8.1-3.72c3.46-1.18,7.29-2.21,10.66-3l1.5-.35c4.43-1,7.74-1.64,7.74-1.64,15.07,3.16,19.37,1.13,19.37,1.13L60,15.88l.9.31,5.58,2,.23.09,10,3.52,6.68,2.35-2.59,12-1.13,5.22L76.29,57l-1.12,5.2L71.77,77.9l-1.12,5.15L67.84,96l.56,2.48,1.1,4.82L71.24,111l1.59,6.92,1.09,4.81,3.28,14.44,1.09,4.77,3.25,14.28Z" style="fill:#9c78ed"/><path d="M60.93,16.19c-1.61,9.43-6.18,18.9-15.67,19.93-11.47,1.24-17.42-13.15-20-22,4.43-1,9-2.05,9-2.05,15.07,3.16,18,1.23,18,1.23L60,15.88Z" style="fill:#ffa681"/><path d="M44.09,28.2c-12,0-14.9-14.85-14.92-15A.59.59,0,1,1,30.33,13c.11.59,2.84,14.6,14.46,14C55,26.48,55.56,15.2,55.58,14.72a.59.59,0,1,1,1.18,0c0,.12-.65,12.84-11.91,13.41C44.59,28.2,44.34,28.2,44.09,28.2Z" style="fill:#fff"/><path d="M22.52,24.11a2.94,2.94,0,1,1-2.93-2.94A2.93,2.93,0,0,1,22.52,24.11Z" style="fill:#7846d1"/><path d="M16.65,38.43a2.94,2.94,0,1,1-2.94-2.94A2.94,2.94,0,0,1,16.65,38.43Z" style="fill:#7846d1"/><path d="M35.38,45.2a2.93,2.93,0,1,1-2.93-2.94A2.93,2.93,0,0,1,35.38,45.2Z" style="fill:#7846d1"/><path d="M22.31,53.2a2.93,2.93,0,1,1-3.81-1.63A2.93,2.93,0,0,1,22.31,53.2Z" style="fill:#7846d1"/><path d="M47.76,58.62a2.94,2.94,0,1,1-2.94-2.93A2.94,2.94,0,0,1,47.76,58.62Z" style="fill:#7846d1"/><path d="M66.47,64.67a2.94,2.94,0,1,1-2.93-2.93A2.94,2.94,0,0,1,66.47,64.67Z" style="fill:#7846d1"/><path d="M70.24,27a2.94,2.94,0,1,1-2.94-2.93A2.94,2.94,0,0,1,70.24,27Z" style="fill:#7846d1"/><path d="M48.94,77.36A2.94,2.94,0,1,1,46,74.43,2.93,2.93,0,0,1,48.94,77.36Z" style="fill:#7846d1"/><path d="M30.86,86.46a2.94,2.94,0,1,1-2.93-2.93A2.93,2.93,0,0,1,30.86,86.46Z" style="fill:#7846d1"/><path d="M28.76,69.89A2.94,2.94,0,1,1,25.82,67,2.94,2.94,0,0,1,28.76,69.89Z" style="fill:#7846d1"/><path d="M57.67,46A2.94,2.94,0,1,1,54.73,43,2.94,2.94,0,0,1,57.67,46Z" style="fill:#7846d1"/><path d="M73.9,42.26A2.94,2.94,0,1,1,71,39.33,2.94,2.94,0,0,1,73.9,42.26Z" style="fill:#7846d1"/><path d="M63.54,82.22a2.94,2.94,0,1,1-2.94-2.93A2.94,2.94,0,0,1,63.54,82.22Z" style="fill:#7846d1"/><path d="M64.33,105.44a2.94,2.94,0,1,1-2.94-2.93A2.94,2.94,0,0,1,64.33,105.44Z" style="fill:#7846d1"/><path d="M49.39,95.75a2.93,2.93,0,1,1-3.82-1.63A2.94,2.94,0,0,1,49.39,95.75Z" style="fill:#7846d1"/><path d="M29.41,104.35a2.93,2.93,0,1,1-3.82-1.63A2.94,2.94,0,0,1,29.41,104.35Z" style="fill:#7846d1"/><polygon points="88.85 198.01 88.24 194.35 85.87 180.17 85.06 175.31 82.8 161.75 78.69 161.94 24.2 164.41 4.03 165.32 2.73 175.86 2.12 180.77 0.33 195.34 0 198.01 88.85 198.01" style="fill:#9c78ed"/><path d="M88.84,198l-.55-3.31-.05-.34L87.85,192l-.39-2.31-1.6-9.55-.46-2.82-.35-2,0-.3L83,162.64l-.14-.88-.19-.76-.16-.68-.92-4.09-1.83-8-.53-2.29-.9-4-1.09-4.79-.74-3.28-.53-2.29-2-8.86-.74-3.23-.35-1.58-.16-.71L71.25,111c-22.15,6.54-45.61,2.66-56,.32-.46,2.11-1,4.3-1.48,6.52-.11.49-.23,1-.34,1.46-.19.76-.37,1.52-.56,2.29-.07.37-.16.71-.25,1.08-.86,3.63-1.76,7.33-2.64,11-.18.76-.35,1.52-.53,2.26-.09.4-.19.77-.28,1.16-.37,1.62-.74,3.24-1.11,4.81q-.69,3.15-1.32,6.19c-.16.77-.32,1.51-.46,2.25-.41,2.06-.78,4.07-1.11,6-.28,1.69-.51,3.3-.69,4.9-.07.49-.12,1-.19,1.43-.07.79-.16,1.55-.23,2.31,0,.12,0,.21,0,.33l-1.3,10.54-.2,1.64-.28,2.29-.12,1L.69,192.3l-.28,2.31-.09.74L0,198Z" style="fill:#403657"/><path d="M34.57,0l-.06,13.68s6.33,4.93,11.29,5.38,6.69-5.39,6.69-5.39L52.55,1Z" style="fill:#ffa681"/><path d="M34.56,1.34l0,5.46c3.31,3.7,9.21,5,18,3.79l0-8.3Z" style="fill:#f97853"/></g></g></svg>