<svg xmlns="http://www.w3.org/2000/svg" viewBox="0 0 56.97 74.61"><g id="Layer_2" data-name="Layer 2"><g id="OBJECTS"><path d="M30,18.39s.19-14.75-8.87-17.28C7-2.82,3.37,4.55,1.38,9.41c-2.55,6.22-1,18.2,7.4,19.07C21.27,29.79,29.35,22.53,30,18.39Z" style="fill:#403657"/><path d="M40.65,67.35a15.33,15.33,0,0,0,14.58-12.7c.9-5.14,1.79-9.71,1.7-12.25v-.06c0-.81,0-1.61,0-2.41-.31-11.62-8.2-32.61-33.29-28.37,0,0-20.83,3.1-22.52,23.62,0,0-.67,9.46-1.09,16.31,0,.12,0,.25,0,.36A15.32,15.32,0,0,0,15.86,68.19Z" style="fill:#403657"/><path d="M48.79,44.76s3.62-4.54,6.28-.76S53.9,58.92,47.35,56.17Z" style="fill:#f97853"/><path d="M48.8,52.73a.55.55,0,0,0,.53-.38c1-3.44,4.79-4.82,4.83-4.83a.53.53,0,0,0,.33-.68.58.58,0,0,0-.72-.31c-.17.06-4.31,1.57-5.5,5.53a.51.51,0,0,0,.38.65Z" style="fill:#ea5143"/><path d="M52.59,51a.52.52,0,0,0,.3-.08.51.51,0,0,0,.17-.73A4.92,4.92,0,0,0,51,48.6a.56.56,0,0,0-.73.26.51.51,0,0,0,.27.7,4,4,0,0,1,1.6,1.21A.54.54,0,0,0,52.59,51Z" style="fill:#ea5143"/><path d="M47.11,56.1a3.9,3.9,0,1,0,5.33-.44,3.77,3.77,0,0,0-1.57-.76.7.7,0,0,1,.14-.74,4.65,4.65,0,0,1-1,9.2,4.66,4.66,0,0,1-4.63-4.68,4.61,4.61,0,0,1,1-2.91Z" style="fill:#fff"/><path d="M50.93,50c-.17,1.32-.36,2.67-.6,4-1.61,8.89-7.28,18.47-14.39,20-15.35,3.41-21.67-8.67-24.08-17.57-.27-1,.25-2.11,0-3.28-.5-2.77-1.6-5.93-1.84-9C9.89,42,9.78,39.87,9.7,38a12.55,12.55,0,0,1,7.83-12.27c7.06-2.77,17.78-4.95,27.89,1.05a12.64,12.64,0,0,1,6.13,10.74A94.94,94.94,0,0,1,50.93,50Z" style="fill:#ffa681"/><path d="M31.45,56.76a.59.59,0,0,1-.09-1.18l2-.33-2.78-7.52A.6.6,0,0,1,31,47a.6.6,0,0,1,.77.35L35,56.19l-3.47.57Z" style="fill:#f97853"/><path d="M38.83,46.87c0,1.31.67,2.37,1.5,2.38s1.52-1.06,1.52-2.37-.66-2.38-1.5-2.38S38.84,45.55,38.83,46.87Z" style="fill:#403657"/><path d="M22.13,46.79c0,1.31.67,2.38,1.5,2.38s1.52-1.06,1.52-2.37-.66-2.38-1.5-2.38S22.14,45.48,22.13,46.79Z" style="fill:#403657"/><path d="M44.81,40.66a29.13,29.13,0,0,0-6.28-.56c-.69,0-1.24.53-1.15,1.08v0a1,1,0,0,0,1.09.69,33.15,33.15,0,0,1,8.62.58,1.14,1.14,0,0,0-.45-.94A3.64,3.64,0,0,0,44.81,40.66Z" style="fill:#403657"/><path d="M20.52,40.83a29.57,29.57,0,0,1,6.29-.59c.68,0,1.24.53,1.15,1.08v0a1,1,0,0,1-1.09.7,32.72,32.72,0,0,0-8.61.62,1.1,1.1,0,0,1,.45-.95A3.67,3.67,0,0,1,20.52,40.83Z" style="fill:#403657"/><path d="M38.77,60.34c-.45,2.09-1.94,5.93-6.88,5.9s-6.33-3.54-6.8-6Z" style="fill:#fff"/><path d="M31.94,69.83a5.93,5.93,0,0,0,2.75-.78.59.59,0,0,0,.19-.81.58.58,0,0,0-.8-.19h0a4.84,4.84,0,0,1-2.13.62A5.11,5.11,0,0,1,29.71,68a.58.58,0,0,0-.61,1A5.9,5.9,0,0,0,31.94,69.83Z" style="fill:#f97853"/><path d="M51.56,48.58c-.15.12-.28.08-.41-.16-2-3.58-.08-10.69-6.06-13.45a12.69,12.69,0,0,1-6.17-6.39A13.06,13.06,0,0,1,35.14,32,108.6,108.6,0,0,1,21,38.77a23.79,23.79,0,0,0-4.72,2.35l.13,0s-2,3.21-.57,8.23-.48,13.27-3.71,15.16c.06-.14,2.5-5.84,1.16-10.51-.78-2.68-.75-6.93-1.48-9.48C11,44,9.12,43,8.47,42.63c-.17-2.19-.29-4.36-.38-6.31a12.79,12.79,0,0,1,8.25-12.51c7.45-2.83,18.74-5,29.41,1.08a12.85,12.85,0,0,1,6.46,11A94.13,94.13,0,0,1,51.56,48.58Z" style="fill:#403657"/><path d="M11.85,44.56s-4.17-5.11-6.66-1.45S6.3,58,12.36,55.4Z" style="fill:#ffa681"/><path d="M12,55.58a3.85,3.85,0,0,1,.33,2.76,3.91,3.91,0,1,1-5.37-4.53,4,4,0,0,1,1.71-.33.89.89,0,0,0,0-.75,4.6,4.6,0,0,0-2.17.45,4.66,4.66,0,1,0,6.23,2.26Z" style="fill:#fff"/><path d="M10.91,51.64a.52.52,0,0,1-.5-.38A7.86,7.86,0,0,0,6,46.53a.51.51,0,0,1-.29-.66.51.51,0,0,1,.66-.29,8.8,8.8,0,0,1,5,5.41.51.51,0,0,1-.36.63Z" style="fill:#f97853"/><path d="M7.42,49.94a.49.49,0,0,1-.28-.09.51.51,0,0,1-.15-.7,4.69,4.69,0,0,1,1.93-1.54.51.51,0,0,1,.41.93A3.75,3.75,0,0,0,7.85,49.7.5.5,0,0,1,7.42,49.94Z" style="fill:#f97853"/></g></g></svg>