<svg xmlns="http://www.w3.org/2000/svg" viewBox="0 0 529.07 221.44"><g id="Layer_2" data-name="Layer 2"><g id="OBJECTS"><g id="BACK"><path d="M373.58,85.09l-8.25,2.79h0l1.51,8.58s0,0,0,0L364,88.22h0l-8.58,1.51s0,0,0,0l8.25-2.79h0l-1.51-8.58s0,0,0,0L365,86.57a0,0,0,0,0,0,0l8.58-1.51S373.6,85.09,373.58,85.09Z" style="fill:#bedee5"/><path d="M529.06,10.49l-12.77,4.32,0,0,2.34,13.28s0,0,0,0l-4.32-12.78h0L501,17.67s0,0,0,0l12.78-4.32s0,0,0,0L511.4,0s0,0,0,0l4.32,12.78h0l13.28-2.34S529.08,10.49,529.06,10.49Z" style="fill:#bedee5"/><path d="M133.1,10.49l-12.78,4.32s0,0,0,0l2.34,13.28s0,0,0,0L118.3,15.34h0L105,17.67s0,0,0,0l12.77-4.32,0,0L115.44,0s0,0,0,0l4.32,12.78h0l13.28-2.34S133.12,10.49,133.1,10.49Z" style="fill:#bedee5"/><path d="M257.05,49.19l-6.84,2.31h0l1.25,7.12h0l-2.31-6.84h0L242,53s0,0,0,0l6.85-2.31h0l-1.25-7.12h0l2.31,6.85h0l7.12-1.25S257.06,49.18,257.05,49.19Z" style="fill:#bedee5"/><path d="M29.62,17.14l-3.43,1.15h0l.62,3.56s0,0,0,0l-1.16-3.42h0l-3.56.63s0,0,0,0l3.43-1.16h0l-.63-3.56h0l1.16,3.42h0l3.56-.62S29.62,17.13,29.62,17.14Z" style="fill:#f9e178"/><path d="M26,205.12l-11.83,4v0l2.17,12.3s0,0,0,0l-4-11.82s0,0,0,0L0,211.76s0,0,0,0l11.83-4h0l-2.16-12.3s0,0,0,0l4,11.83h0L26,205.09S26.05,205.11,26,205.12Z" style="fill:#f9e178"/></g></g></g></svg>