<svg xmlns="http://www.w3.org/2000/svg" xmlns:xlink="http://www.w3.org/1999/xlink" viewBox="0 0 380.5 399.31"><defs><linearGradient id="Degradado_sin_nombre_6" x1="432.59" y1="337.91" x2="224.49" y2="81.97" gradientTransform="translate(-3.8 140.98) rotate(-21.72)" gradientUnits="userSpaceOnUse"><stop offset="0" stop-color="#fff" stop-opacity="0"/><stop offset="1" stop-color="#ff765f"/></linearGradient><linearGradient id="Degradado_sin_nombre_2" x1="244.83" y1="65.23" x2="205.19" y2="87.7" gradientUnits="userSpaceOnUse"><stop offset="0" stop-color="#fff" stop-opacity="0"/><stop offset="1" stop-color="#afd8ca"/></linearGradient><linearGradient id="Degradado_sin_nombre_6-2" x1="162.48" y1="161.04" x2="161.77" y2="161.52" gradientTransform="matrix(1, 0, 0, 1, 0, 0)" xlink:href="#Degradado_sin_nombre_6"/><linearGradient id="Degradado_sin_nombre_2-3" x1="189.13" y1="150.79" x2="173.58" y2="106.14" xlink:href="#Degradado_sin_nombre_2"/><linearGradient id="Degradado_sin_nombre_2-4" x1="203.8" y1="145.68" x2="188.25" y2="101.03" xlink:href="#Degradado_sin_nombre_2"/><linearGradient id="Degradado_sin_nombre_2-7" x1="217.76" y1="99.95" x2="130.45" y2="203.1" xlink:href="#Degradado_sin_nombre_2"/><linearGradient id="Degradado_sin_nombre_2-9" x1="177.27" y1="133.54" x2="136.76" y2="104.39" xlink:href="#Degradado_sin_nombre_2"/><linearGradient id="Degradado_sin_nombre_2-11" x1="103.32" y1="111.88" x2="84.89" y2="98.22" xlink:href="#Degradado_sin_nombre_2"/><linearGradient id="Degradado_sin_nombre_6-3" x1="227.25" y1="369.64" x2="19.15" y2="113.69" gradientTransform="matrix(1, 0, 0, 1, 0, 0)" xlink:href="#Degradado_sin_nombre_6"/></defs><g style="isolation:isolate"><g id="Layer_2" data-name="Layer 2"><g id="OBJECTS"><g id="PEOPLE"><polygon points="248.88 145.39 324.97 113.01 380.5 207.22 288.54 251.89 248.88 145.39" style="fill:#ea433f"/><polygon points="269.13 199.76 278.71 225.49 356.87 199.48 320.91 114.83 320.29 115 255.96 142.38 269.13 199.76" style="opacity:0.47000000000000003;mix-blend-mode:color-burn;fill:url(#Degradado_sin_nombre_6)"/><path d="M271.24,131.51s-13.44-33-3-37.63,18.89-2,26.14,32.92" style="fill:none;stroke:#f2d4d3;stroke-miterlimit:10"/><path d="M274.78,131.28s-15.71-32-5.62-37.33,18.7-3.26,28.36,31" style="fill:none;stroke:#f2d4d3;stroke-miterlimit:10"/><polygon points="249.59 130.9 316.58 112.25 352.54 196.9 270.96 224.06 249.59 130.9" style="fill:#fc5959"/><path d="M282.23,86.63s-4.59-6.95-11-6-9.52,4.37-10,5.49,3.08,6.61,4.2,6.95a11.52,11.52,0,0,0,3.47,0,12.45,12.45,0,0,0,2.81,1.06c.66,0,3.35-1.4,5.54-3.25,0,0,3.8,1.51,5.6,1.46S283.88,88.62,282.23,86.63Z" style="fill:#fcb9a7"/><polygon points="288.54 251.89 291.44 251.89 378.4 211.98 380.5 207.22 288.54 251.89" style="fill:#af2525"/><polygon points="270.96 224.06 274.85 224.43 351.98 198.69 352.54 196.9 270.96 224.06" style="fill:#a01f1f"/><path d="M297.82,117.47s-4.19-15.28,3.89-16.65c9.35-1.58,4.52,15,21.44,35.48,19.82,24,50.47-3.8,30.48-25.67" style="fill:none;stroke:#594f59;stroke-miterlimit:10;stroke-width:0.75px"/><path d="M340.47,69.11l19.09,33.64a.94.94,0,0,1-.18,1.18l-12.87,11.75a1,1,0,0,1-1.37-.07L314.51,81a1,1,0,0,1,.33-1.52L339.25,68.7A1,1,0,0,1,340.47,69.11Z" style="fill:#60c6a4"/><text transform="matrix(0.64, 0.77, -0.77, 0.64, 323.69, 82.02)" style="font-size:15.580719947814941px;fill:#fff;font-family:Oswald-Medium, Oswald Medium;font-weight:500;letter-spacing:-0.0040113679091424185em">-80%</text><path d="M196.26,67.8s5.92,2.24,9.5,6.15,21.53,30,24.52,30.24,28.26-19.94,31.25-19.94,9.22,7.76,9.22,10.16-31.9,33.9-39.47,34.89S197,109,197,109" style="fill:#60c6a4"/><path d="M193.24,182.06s62.43,34.56,70.14,48.09c9.57,16.78,28.05,97,28.05,97l-10.21,5.06s-31.79-82.08-38.17-88.06-80.44-40.82-80.44-40.82" style="fill:#594f59"/><path d="M292.62,331.08A29.66,29.66,0,0,0,311.8,335l.35,3.89-26.63,8.65s-2.61-9.22-3.58-13.51" style="fill:#f6c141"/><polygon points="278.88 330.62 281.6 335.22 294.11 330.9 292.56 324.7 278.88 330.62" style="fill:#7f7a7f"/><path d="M299.75,342.89l12.4-4L311.8,335a31.27,31.27,0,0,1-9.93-.36A32.17,32.17,0,0,0,299.75,342.89Z" style="fill:#fcf8e3"/><polygon points="285.22 347.93 312.81 339.03 312.81 337.89 284.99 347.26 285.22 347.93" style="fill:#332a24"/><path d="M289.55,334.68s3.82-3.25,4.48-3.37-2.33,3-1.55,4.21S295,331.61,296,332s-2.1,4.14-1,5.1,2.79-4.28,2.79-4.28" style="fill:none;stroke:#332a24;stroke-linecap:round;stroke-miterlimit:10;stroke-width:0.5px"/><path d="M182.55,205.53s60.7,28.11,65.78,35.88,32.89,84,32.89,84" style="fill:none;stroke:#cebaca;stroke-linecap:round;stroke-linejoin:round;stroke-width:0.5px"/><path d="M250.32,237a61,61,0,0,0-4.58,5.78" style="fill:none;stroke:#cebaca;stroke-linecap:round;stroke-linejoin:round;stroke-width:0.5px"/><path d="M140.79,385a33.51,33.51,0,0,0,8,11.1l-1,2.67H127.52s.77-11.23,1.47-16" style="fill:#f6c141"/><path d="M198.08,185s-6.94,11.7-30.38,20.45c0,0-13.16,69.25-26.37,175.54H128.7s5.44-142.82,4.59-201.41" style="fill:#594f59"/><polyline points="176.61 186.44 177.92 196.81 173.24 199.18" style="fill:none;stroke:#cebaca;stroke-linecap:round;stroke-linejoin:round;stroke-width:0.75px"/><path d="M170.58,207.05l8.18-7c-4.23,1.91-10.88,5.58-11,5.66Z" style="fill:#423a42"/><polygon points="127.1 378.96 127.54 384.7 142.09 385.02 142.65 379.52 127.1 378.96" style="fill:#7f7a7f"/><path d="M138.16,202.39S133.22,336,131.35,374.22" style="fill:none;stroke:#cebaca;stroke-linecap:round;stroke-linejoin:round;stroke-width:0.5px"/><path d="M158.79,33.18s-4.3-5.77-7.73-3c-4,3.18,1.75,12.29,9.21,7" style="fill:#fcb9a7"/><path d="M152.82,34.8a5.79,5.79,0,0,1,5.3,0" style="fill:none;stroke:#ff765f;stroke-linecap:round;stroke-miterlimit:10;stroke-width:0.5px"/><path d="M199,71.6c-.81-.92-.47-2-2.72-3.1L197,109s2.28,1.81,5.69,4.35a22.58,22.58,0,0,1,.95-4.36C203.89,92.08,200.13,72.87,199,71.6Z" style="opacity:0.53;mix-blend-mode:color-burn;fill:url(#Degradado_sin_nombre_2)"/><path d="M199,71.6c-.81-.92-.47-2-2.72-3.1L197,109s2.28,1.81,5.69,4.35a22.58,22.58,0,0,1,.95-4.36C203.89,92.08,200.13,72.87,199,71.6Z" style="opacity:0.53;mix-blend-mode:color-burn;fill:url(#Degradado_sin_nombre_2)"/><path d="M159.08,58.06s-22.63,6.65-28.25,9.74,1.6,49.05,1.6,49.05-3.12,66.44-1.21,69.55c2.85,4.65,67.55,2.48,71.11-.24,2-.56-4.48-65.48.17-78.41.27-16.94-1.38-36.15-2.5-37.42-3-3.38-18.85-8.82-24-10" style="fill:#60c6a4"/><path d="M174.56,89.54c9.23-.86,6.92-18,5.27-26.21a2.16,2.16,0,0,0-1.54-1.65c-1-.3-1.94-.53-2.66-.7l-.2,0L158.37,58.4c-.31,0,.29-.09,0,0-.62.18-3.56.3-5.21.8-1.25.39-2.22,1.72-1.67,2.92C155.25,70.33,164.93,90.43,174.56,89.54Z" style="fill:#105433"/><path d="M175.27,89.2c9.23-.86,6.92-18,5.27-26.21A2.17,2.17,0,0,0,179,61.34c-1-.29-1.94-.53-2.66-.69l-.2,0-17.06-2.55c-.31,0,.29-.09,0,0-.62.18-4.27.64-5.92,1.14a2.18,2.18,0,0,0-1.35,3C155.57,70.4,165.64,90.1,175.27,89.2Z" style="fill:#1a7c50"/><path d="M175.11,86.41c8.15-.75,6.11-15.88,4.65-23.14a1.92,1.92,0,0,0-1.36-1.46c-.91-.26-1.71-.47-2.35-.61l-.17,0-16.4-2.24a1.77,1.77,0,0,0-.79.06l-3.11.93a1.92,1.92,0,0,0-1.19,2.63C157.71,69.81,166.6,87.2,175.11,86.41Z" style="fill:#fcb9a7"/><path d="M159,36.58s-.33,15.34-1.55,23.58c0,0,9.2,18.62,15.85,18.72s4-18.44,4-18.44l1.59-8.24Z" style="fill:#fcb9a7"/><path d="M191.87,18.22c2,12.65,2.46,34.16-8.17,37.31-16,4.72-28.47-20-30.25-30.94A20.06,20.06,0,0,1,170,1.55C181-.23,190,6.3,191.87,18.22Z" style="fill:#fcb9a7"/><path d="M183.61,20l4.32,10.29a1.57,1.57,0,0,1-1.13,2.14l-3.57.74" style="fill:none;stroke:#ff765f;stroke-linecap:round;stroke-miterlimit:10;stroke-width:0.5px"/><path d="M162.25,116.14s15.36-5.24,37.64-7.11" style="fill:none;stroke:#fce6e6;stroke-linecap:round;stroke-miterlimit:10;stroke-width:0.25px"/><path d="M155,113.9A348.23,348.23,0,0,1,199.85,109" style="fill:none;stroke:#fce6e6;stroke-linecap:round;stroke-miterlimit:10;stroke-width:0.25px"/><path d="M170.12,91.84s10.23,3.75,12.36-6.87" style="fill:none;stroke:#fce6e6;stroke-linecap:round;stroke-miterlimit:10;stroke-width:0.25px"/><path d="M178.73,27.86a1.1,1.1,0,1,1-1.08-1.28A1.19,1.19,0,0,1,178.73,27.86Z" style="fill:#332a24"/><ellipse cx="189.37" cy="27.07" rx="1.08" ry="1.28" style="fill:#332a24"/><path d="M174,23.41s2-2.63,3.89-2.3C177.89,21.11,175,16.9,174,23.41Z" style="fill:#f45e4a"/><path d="M188.06,19.33a2.94,2.94,0,0,1,2.81.66S189.56,15.73,188.06,19.33Z" style="fill:#f45e4a"/><path d="M148.8,396.08c-.78-.72-1.49-1.44-2.14-2.16-10.32-1.24-16.12,4.83-16.12,4.83h17.27Z" style="fill:#fcf8e3"/><polygon points="127.1 398.44 148.51 398.23 148.02 399.31 127.1 399.07 127.1 398.44" style="fill:#332a24"/><path d="M133.06,387.09a53.07,53.07,0,0,1,8.89-1c3.37.07-8,1.76-8,3.23s7.34-2.59,9-1.44-5.72,1.09-7.41,2.92,6.64-1.72,9.2,0" style="fill:none;stroke:#332a24;stroke-linecap:round;stroke-miterlimit:10;stroke-width:0.5px"/><path d="M132.14,69.59s4.94,2.6,4.94,20.16" style="fill:none;stroke:#fce6e6;stroke-linecap:round;stroke-miterlimit:10;stroke-width:0.25px"/><path d="M161.81,161.26c.13.29.28.32.44.16Z" style="mix-blend-mode:multiply;fill:url(#Degradado_sin_nombre_6-2)"/><polygon points="171.64 85.8 167.14 95.85 163.1 90.83 171.64 85.8" style="opacity:0.53;mix-blend-mode:color-burn;fill:url(#Degradado_sin_nombre_2-3)"/><polygon points="179.12 84.06 185.93 90.83 185.58 84.06 179.12 84.06" style="opacity:0.53;mix-blend-mode:color-burn;fill:url(#Degradado_sin_nombre_2-4)"/><polygon points="171.64 85.8 167.14 95.85 163.1 90.83 171.64 85.8" style="opacity:0.53;mix-blend-mode:color-burn;fill:url(#Degradado_sin_nombre_2-3)"/><polygon points="179.12 84.06 185.93 90.83 185.58 84.06 179.12 84.06" style="opacity:0.53;mix-blend-mode:color-burn;fill:url(#Degradado_sin_nombre_2-4)"/><path d="M171.64,85.8l-8,8.61s-19.88-33.61-6.09-35.08C157.56,59.33,152.09,69.59,171.64,85.8Z" style="fill:#fff"/><path d="M179.12,84.07l7.25,4s0-23.51-8-26.24C178.4,61.81,183.93,74.27,179.12,84.07Z" style="fill:#fff"/><path d="M157.44,33.16s3.22-5.46.68-15.27c0,0,9.27,8.72,9-6.08,0,0,12.61,7,27.16,3.61S196.93-3.37,167.14.67c0,0-19.34,1.85-15,12.64,0,0-10.25,1.16,2.11,16.27l.55.2A9.44,9.44,0,0,0,157.44,33.16Z" style="fill:#f95850"/><path d="M149.3,6.13s.37,6.61,4.26,8.12c0,0-4.19-2.93-6.73,0" style="fill:none;stroke:#f95850;stroke-linecap:round;stroke-linejoin:round;stroke-width:0.5px"/><path d="M166.19,10.19a10.55,10.55,0,0,1,1.5,9.17" style="fill:none;stroke:#f95850;stroke-linecap:round;stroke-linejoin:round;stroke-width:0.5px"/><path d="M182.45,15.91s18.7,3.42,21.12-6.78" style="fill:none;stroke:#f95850;stroke-linecap:round;stroke-linejoin:round;stroke-width:0.5px"/><path d="M193,34.8s-3.61-1.17-11-.64c-5.56.39-14.41,5.51-20.2,3.51a7.79,7.79,0,0,1-3.61-6.51L156.92,31s.22.95.52,2.22c0,.82-1.29,31.07,24.4,24.53C202.83,52.38,193,34.8,193,34.8Z" style="fill:#f95850"/><path d="M179.39,37.69a14.87,14.87,0,0,0,4.89.37S181.56,47.51,179.39,37.69Z" style="fill:#fff"/><path d="M199,181.47c-29.37,0-54.81-19.47-67.31-47.88-.79,19.9-1.79,50.72-.5,52.81,2.85,4.65,67.55,2.48,71.11-.24.32-.09.42-1.86.39-4.8C201.5,181.43,200.27,181.47,199,181.47Z" style="opacity:0.53;mix-blend-mode:color-burn;fill:url(#Degradado_sin_nombre_2-7)"/><path d="M199,181.47c-29.37,0-54.81-19.47-67.31-47.88-.79,19.9-1.79,50.72-.5,52.81,2.85,4.65,67.55,2.48,71.11-.24.32-.09.42-1.86.39-4.8C201.5,181.43,200.27,181.47,199,181.47Z" style="opacity:0.53;mix-blend-mode:color-burn;fill:url(#Degradado_sin_nombre_2-7)"/><path d="M130.83,67.8a33.41,33.41,0,0,0-7.89,4.88C118,76.48,101.26,103,98.72,104s-17-24.24-27.11-21.72c-7,1.76-7.57,7.07-5.18,12.15s23.32,35,33,36,36-31.59,36-31.59" style="fill:#60c6a4"/><path d="M97.61,103a31.37,31.37,0,0,1,4,5" style="fill:none;stroke:#fce6e6;stroke-linecap:round;stroke-miterlimit:10;stroke-width:0.25px"/><path d="M97.61,103a42.13,42.13,0,0,1,6,6.05" style="fill:none;stroke:#fce6e6;stroke-linecap:round;stroke-miterlimit:10;stroke-width:0.25px"/><path d="M130.73,104.59,136.1,97s-3.15,7.08-5,10.25Z" style="opacity:0.53;mix-blend-mode:color-burn;fill:url(#Degradado_sin_nombre_2-9)"/><path d="M130.73,104.59,136.1,97s-3.15,7.08-5,10.25Z" style="opacity:0.53;mix-blend-mode:color-burn;fill:url(#Degradado_sin_nombre_2-9)"/><path d="M81.31,91.82c-1,3.47-5.42,5.26-9.92,4S64,90.72,65,87.24s5.42-5.26,9.92-4S82.28,88.34,81.31,91.82Z" style="opacity:0.53;mix-blend-mode:color-burn;fill:url(#Degradado_sin_nombre_2-11)"/><path d="M81.31,91.82c-1,3.47-5.42,5.26-9.92,4S64,90.72,65,87.24s5.42-5.26,9.92-4S82.28,88.34,81.31,91.82Z" style="opacity:0.53;mix-blend-mode:color-burn;fill:url(#Degradado_sin_nombre_2-11)"/><polygon points="27.76 129.34 110.43 127.42 127.14 235.5 25.18 242.96 27.76 129.34" style="fill:#ea433f"/><polygon points="26.45 187.34 25.82 214.79 108.06 219.55 105.98 127.61 105.34 127.54 35.45 129.16 26.45 187.34" style="opacity:0.47000000000000003;mix-blend-mode:color-burn;fill:url(#Degradado_sin_nombre_6-3)"/><path d="M53.67,124.72s-.26-35.67,11.14-36.08,18.26,5.18,12.08,40.26" style="fill:none;stroke:#f2d4d3;stroke-miterlimit:10"/><path d="M57,125.82s-2.74-35.57,8.6-36.77S84.22,93,80.5,128.38" style="fill:none;stroke:#f2d4d3;stroke-miterlimit:10"/><path d="M59.34,132.61s-5-41.26,6.28-43S84.46,93.5,83,134.81" style="fill:none;stroke:#f2d4d3;stroke-miterlimit:10"/><polygon points="33.78 116.14 102.92 123.61 104.99 215.56 19.16 210.59 33.78 116.14" style="fill:#fc5959"/><path d="M80.7,87.93s-4.59-6.94-11-6-9.52,4.37-10,5.49,3.08,6.61,4.2,6.94a11.25,11.25,0,0,0,3.48,0,12.26,12.26,0,0,0,2.8,1.07c.67,0,3.35-1.4,5.54-3.25,0,0,3.81,1.51,5.6,1.45S82.35,89.93,80.7,87.93Z" style="fill:#fcb9a7"/><polygon points="25.18 242.96 43.7 244.32 123.44 239.14 127.14 235.5 25.18 242.96" style="fill:#af2525"/><polygon points="19.16 210.59 22.63 212.38 103.8 217.01 104.99 215.56 19.16 210.59" style="fill:#a01f1f"/><polygon points="38.08 131.96 33.91 166.88 94.71 175.54 96.4 137.66 38.08 131.96" style="fill:#ea433f"/><text transform="translate(39.25 145.16) rotate(6.08)" style="font-size:19.813169479370117px;fill:#fff;font-family:Oswald-Medium, Oswald Medium;font-weight:500">SUPER<tspan style="font-size:28.068660736083984px;letter-spacing:-0.004001070395055416em"><tspan x="-2.1" y="28.07">SALE</tspan></tspan></text><path d="M47.48,117.62s.25-19-7.16-15.52c-7.07,3.36,2,18.91,11.36,43.75,11,29.1-21.53,38.57-30.6,10.36" style="fill:none;stroke:#594f59;stroke-miterlimit:10;stroke-width:0.75px"/><path d="M37.72,179.45a13.28,13.28,0,0,0,3.11.37,13,13,0,0,0,9.72-4.44C53,172.64,58.26,164.58,53,149c-2.09-6.22-4.21-12.07-6.07-17.23-2-5.52-3.78-10.47-5.14-14.73l-.57-.06c1.37,4.32,3.19,9.36,5.21,15,1.87,5.16,4,11,6.07,17.22,5.18,15.35.1,23.22-2.33,25.9a12.48,12.48,0,0,1-12.32,3.91c-2.54-.59-8-2.72-12.18-10.34l-.13.84C29.81,176.77,35.17,178.86,37.72,179.45Z" style="fill:#f2d4d3;mix-blend-mode:multiply"/><path d="M.1,135,15,160.09a.74.74,0,0,0,.85.32l12.52-4a.74.74,0,0,0,.46-.93l-11.22-33a.72.72,0,0,0-1.12-.35L.29,134A.73.73,0,0,0,.1,135Z" style="fill:#ea433f"/><text transform="translate(5.16 133.8) rotate(62.42)" style="font-size:11.762889862060547px;fill:#fff;font-family:Oswald-Medium, Oswald Medium;font-weight:500;letter-spacing:-0.003984990129949983em">-50%</text><path d="M271.15,92.13s5.53,4,7.12,3.14-1.14-7.13-1.14-7.13Z" style="fill:#fcb9a7"/><polygon points="265.44 145.84 272.72 166.32 317.43 156.08 310.49 129.65 265.44 145.84" style="fill:#fff"/></g></g></g></g></svg>