<svg xmlns="http://www.w3.org/2000/svg" xmlns:xlink="http://www.w3.org/1999/xlink" viewBox="0 0 312.37 394.86"><defs><linearGradient id="Degradado_sin_nombre_6" x1="219.22" y1="71.89" x2="188.25" y2="43.87" gradientUnits="userSpaceOnUse"><stop offset="0" stop-color="#fff" stop-opacity="0"/><stop offset="1" stop-color="#ff765f"/></linearGradient><linearGradient id="Degradado_sin_nombre_8" x1="191" y1="127.78" x2="224.22" y2="208.21" gradientUnits="userSpaceOnUse"><stop offset="0" stop-color="#fff" stop-opacity="0"/><stop offset="1" stop-color="#f9acb2"/></linearGradient><linearGradient id="Degradado_sin_nombre_8-2" x1="235.31" y1="146.52" x2="207.67" y2="99.12" xlink:href="#Degradado_sin_nombre_8"/><linearGradient id="Degradado_sin_nombre_8-3" x1="232.41" y1="165.5" x2="198.26" y2="96.79" xlink:href="#Degradado_sin_nombre_8"/><linearGradient id="Degradado_sin_nombre_8-4" x1="228.75" y1="70.77" x2="172.83" y2="136.21" xlink:href="#Degradado_sin_nombre_8"/><linearGradient id="Degradado_sin_nombre_8-5" x1="452.28" y1="238.9" x2="157.77" y2="136.97" xlink:href="#Degradado_sin_nombre_8"/><linearGradient id="Degradado_sin_nombre_8-6" x1="159.19" y1="196.27" x2="158.17" y2="100.43" xlink:href="#Degradado_sin_nombre_8"/></defs><g style="isolation:isolate"><g id="Layer_2" data-name="Layer 2"><g id="OBJECTS"><g id="PEOPLE"><path d="M211.54,10.09s17.69,2.06,14.63,24.59,32,37.38,26.91,64.82S170,141.41,170.77,82.79,182.65-2.87,211.54,10.09Z" style="fill:#3a3029"/><path d="M170.81,375.24A29,29,0,0,1,160.6,391.4l2.5,2.88,24.11-12.95s-4.75-8.07-7.12-11.66" style="fill:#ff8395"/><path d="M175.45,175.55s-4.33,72-4.33,194.94h11.67s9.49-97.47,23.48-188.08" style="fill:#448bc1"/><polygon points="184.5 369.63 183.46 374.75 170.53 374.75 169.98 368.53 184.5 369.63" style="fill:#6bbced"/><path d="M175.42,375.5s-4.87.5-5.4.89,3.71.4,4,1.75-4.44-.88-4.84.13,4.35,1.32,4.27,2.75-4.9-.92-4.9-.92" style="fill:none;stroke:#332a24;stroke-linecap:round;stroke-miterlimit:10;stroke-width:0.5px"/><path d="M176.89,179a101.48,101.48,0,0,0,27.39,16.54S231,267.13,250,270.39c15.38,2.63,45.3-73.5,45.3-73.5l-10.43-4.73s-27.18,41.17-31,43.37-17.77-62.07-17.77-62.07" style="fill:#448bc1"/><path d="M174.33,388.25l-11.23,6-2.5-2.88a30.51,30.51,0,0,0,6.45-7.25A31.25,31.25,0,0,1,174.33,388.25Z" style="fill:#ffcfcf"/><path d="M190.65,188.79s7.76,4.93,13.63,6.75l-.38,2.6A106.74,106.74,0,0,1,190.65,188.79Z" style="fill:#2270a0"/><path d="M231.93,198.14s14.82,48.92,21.13,48.92,30.47-43.65,30.47-43.65" style="fill:none;stroke:#e4eff4;stroke-linecap:round;stroke-miterlimit:10;stroke-width:0.5px"/><path d="M252.42,255.27s1.56-11.34.64-17.75A55.21,55.21,0,0,1,254.8,251" style="fill:none;stroke:#e4eff4;stroke-linecap:round;stroke-linejoin:round;stroke-width:0.5px"/><polygon points="187.71 381.4 162.78 394.86 161.98 394.09 187.39 380.79 187.71 381.4" style="fill:#332a24"/><path d="M196.11,178.71s-.27,4.94,0,9.71l2.19,1" style="fill:none;stroke:#e4eff4;stroke-linecap:round;stroke-miterlimit:10;stroke-width:0.5px"/><path d="M198.15,68.92s-17.92,6.48-20.62,9.64c-1.48,12-5.55,17.37-6.63,22.32-1.23,5.7,6.42,13.2,6.42,13.2s-4.68,41.3-4.17,63.05c.11,4.62,62.39,6.8,65.51,0s-6.87-76.08-6.87-76.08-.09-18.83-1.91-25C228.44,71.24,198.15,68.92,198.15,68.92Z" style="fill:#f6c141"/><path d="M198.15,69.8s-2.83,1-6.41,2.46c-.34,3.75-1.46,19.55,3.49,20.51,5.29,1,9.66-14.58,14.58-21.72C203.5,70.22,198.15,69.8,198.15,69.8Z" style="fill:#fcb9a7"/><path d="M195.71,92.77c-5-1-3.82-16.76-3.49-20.51,3.23-1.29,5.84-2.25,6.32-2.42l-.39,0s-2.83,1-6.41,2.46c-.34,3.75-1.46,19.55,3.49,20.51a2.31,2.31,0,0,0,.74,0A1.14,1.14,0,0,1,195.71,92.77Z" style="fill:#db9e16"/><path d="M209,44.9S205.8,62,206.55,71.2c0,0-3.72,11.59-8.87,11.59-3.9,0-3.44-11.59-3.44-11.59l-1-9.21Z" style="fill:#fcb9a7"/><path d="M207.82,46.13c0-3.3,1.14-1.23,1.14-1.23L193.2,62l.53,4.7C204.64,61.37,207.82,46.13,207.82,46.13Z" style="mix-blend-mode:multiply;fill:url(#Degradado_sin_nombre_6)"/><path d="M181.08,24.73c-3.31,12-2.43,34.6,3.66,37.16,12.55,5.59,28.49-13.29,31.38-23.67s2.34-23.23-9.56-26.54S184.21,13.42,181.08,24.73Z" style="fill:#fcb9a7"/><path d="M199.46,34.87s-1.42-3.36-3.58-3.53C195.88,31.34,200.15,27.57,199.46,34.87Z" style="fill:#3a3029"/><path d="M185.88,29.36a3.26,3.26,0,0,0-3.22,0S185.23,25.06,185.88,29.36Z" style="fill:#ff5f5f"/><path d="M211.25,44.7s6.21-5.08,9.18-1.19c3.47,4.52-5.21,12.81-11.84,5.07" style="fill:#fcb9a7"/><path d="M217.27,48.06a6.44,6.44,0,0,0-5.73-1.43" style="fill:none;stroke:#ff765f;stroke-linecap:round;stroke-miterlimit:10;stroke-width:0.5px"/><path d="M187.94,173.87a58.37,58.37,0,0,1-14.82-1.94c0,1.82,0,3.57,0,5.2.11,4.62,62.39,6.8,65.51,0,1.23-2.68.43-15-1-29C225.42,163.91,207.68,173.87,187.94,173.87Z" style="mix-blend-mode:color-burn;fill:url(#Degradado_sin_nombre_8)"/><path d="M190,91.88s3,9.77,10.37,4.84" style="fill:none;stroke:#fce6e6;stroke-linecap:round;stroke-miterlimit:10;stroke-width:0.25px"/><path d="M208.23,118.43C188.42,114.59,178,114.8,178,114.8s6.25-.9,20.49.75" style="fill:none;stroke:#fce6e6;stroke-linecap:round;stroke-miterlimit:10;stroke-width:0.25px"/><path d="M205.22,114.55s17,5.6,17.35-9.53C222.57,105,225.56,128.43,205.22,114.55Z" style="mix-blend-mode:color-burn;fill:url(#Degradado_sin_nombre_8-2)"/><path d="M179.62,365.21s9.09-94.71,18.68-163.61" style="fill:none;stroke:#e4eff4;stroke-linecap:round;stroke-miterlimit:10;stroke-width:0.5px"/><path d="M296.38,196.18a28.94,28.94,0,0,1,16-10.49L311.28,182,284,183.85s1,9.31,1.65,13.56" style="fill:#ff8395"/><polygon points="281.51 195.65 284.74 191.54 296.3 197.34 293.99 203.15 281.51 195.65" style="fill:#6bbced"/><path d="M292.3,194s4.64,1.57,5.29,1.43-3.22-1.9-2.94-3.26,3.67,2.64,4.46,1.88-3.42-3-2.76-4.26,4.09,2.86,4.09,2.86" style="fill:none;stroke:#332a24;stroke-linecap:round;stroke-miterlimit:10;stroke-width:0.5px"/><path d="M213.15,44.86s-8.86-13.41-4.76-23.36c0,0-7.33,13.54-29.11,7.45,0,0,2.88-25,29.39-17.43S213.15,44.86,213.15,44.86Z" style="fill:#3a3029"/><path d="M213.57,41.45a.28.28,0,0,1-.15,0c-7.51-4.87-7.63-11.81-6.56-16.52a16.3,16.3,0,0,1-7.35,6.54c-4.29,1.74-9.29,1-14.85-2.07a.27.27,0,1,1,.26-.48c5.42,3,10.25,3.72,14.38,2.05s6.78-5.5,8.16-8.19a17.69,17.69,0,0,1,1.29-3l1.18-2.06-.69,2.27a19.58,19.58,0,0,1-1.32,3.1,20,20,0,0,0-1,4.56c-.49,5.64,1.78,10.14,6.77,13.37a.27.27,0,0,1,.08.38A.27.27,0,0,1,213.57,41.45Z" style="fill:#3a3029"/><path d="M197.24,41.41s.48-5.3-1.15-6-2.89,4.69-2.89,4.69" style="fill:none;stroke:#332a24;stroke-linecap:round;stroke-miterlimit:10;stroke-width:0.5px"/><path d="M185,38.63s.11-4.42-1.35-4.71-1.69,5.27-1.69,5.27" style="fill:none;stroke:#332a24;stroke-linecap:round;stroke-miterlimit:10;stroke-width:0.5px"/><path d="M186.77,46.9a17.64,17.64,0,0,0,5.6-1.07s0,3.77-1.42,4.94S187.73,49.65,186.77,46.9Z" style="fill:#fff"/><path d="M189.92,34.71s-1.4,4-4.35,5.7a.63.63,0,0,0-.11,1l1.95,1.92" style="fill:#fcb9a7"/><path d="M189.92,34.71s-1.4,4-4.35,5.7a.63.63,0,0,0-.11,1l1.95,1.92" style="fill:none;stroke:#ff765f;stroke-linecap:round;stroke-miterlimit:10;stroke-width:0.5px"/><path d="M232.36,105.09l-.57-4s0-10.6-.84-18.48a11.2,11.2,0,0,0-2.18-.67c-9.23,3.12-21.24,24.93-30.29,27.49-3.09.88-11.48,2.68-21.19,4.66l0,0s-.81,7.16-1.72,17.08c11-.61,21.68-2.06,28.39-5A85.16,85.16,0,0,0,232.36,105.09Z" style="mix-blend-mode:color-burn;fill:url(#Degradado_sin_nombre_8-3)"/><path d="M231.76,98.86h0c0-.16,0-.33,0-.5v-.08c0-.16,0-.33,0-.5v-.16c0-.17,0-.35,0-.53V97c-.13-5.76-.53-16.18-1.77-20.67-9.41,3.12-22.65,23.11-31.66,25-3.72.76-14.95,2.24-27,3.74.09.28.19.55.3.82l0,.09a28.06,28.06,0,0,0,5.22,7.65l0,0,.18.19a.76.76,0,0,0,.09.09l.08.08.06.06s0,.14,0,.38a1.57,1.57,0,0,1,0,.27,1.65,1.65,0,0,1,0,.21c0,.14,0,.3-.05.47a1.49,1.49,0,0,0,0,.21c-.14,1.26-.35,3.22-.6,5.71,10,.06,19.63-.66,26-2.93a85.56,85.56,0,0,0,29.26-18.23C231.78,99.83,231.77,99.38,231.76,98.86Z" style="mix-blend-mode:color-burn;fill:url(#Degradado_sin_nombre_8-4)"/><polygon points="283.55 183.58 311.81 181.64 312.23 182.67 283.58 184.27 283.55 183.58" style="fill:#332a24"/><path d="M303.12,189.86a47.6,47.6,0,0,0-2.28-6.55l10.46-.59,1.07,3A28.84,28.84,0,0,0,303.12,189.86Z" style="fill:#ffcfcf"/><path d="M251.86,112.25a.32.32,0,0,1-.16,0,.28.28,0,0,1-.07-.38c13.78-20-11.13-44.7-11.38-44.94a.27.27,0,0,1,0-.39.27.27,0,0,1,.38,0c.26.25,25.49,25.22,11.45,45.64A.28.28,0,0,1,251.86,112.25Z" style="fill:#3a3029"/><path d="M225.76,16.29a.27.27,0,0,1-.23-.12c-2.45-3.74-5.09-5.75-7.85-6a8,8,0,0,0-5.93,2.46l-.42.46-.06-.62s-.47-4.71-3.18-6.46a.26.26,0,0,1-.09-.37.28.28,0,0,1,.38-.08c2.39,1.53,3.15,5,3.36,6.31a8.17,8.17,0,0,1,6-2.24c2.94.22,5.73,2.31,8.28,6.2a.27.27,0,0,1-.23.42Z" style="fill:#3a3029"/><path d="M237.4,179.26,181.14,76.11a14,14,0,0,0-3.61,2.45c-1.48,12-5.55,17.37-6.63,22.32-1.23,5.7,6.42,13.2,6.42,13.2s-4.68,41.3-4.17,63.05c0,.5.78,1,2.13,1.42-.27,5-.83,16.15-1.46,32.93l30.09-13.43c.12-.84.25-1.67.37-2.51h0l.76,2,32.07-14.31.57-2.73C237.58,180.07,237.49,179.65,237.4,179.26Z" style="mix-blend-mode:color-burn;fill:url(#Degradado_sin_nombre_8-5)"/><path d="M79.49,71.65S52.56,14.21,70.67,5.09,104-.12,120.13,61.16" style="fill:none;stroke:#f2d4d3;stroke-miterlimit:10"/><path d="M85.75,70.93S54.89,15.5,72.31,5.14s32.92-7.52,53.24,52.49" style="fill:none;stroke:#f2d4d3;stroke-miterlimit:10"/><polygon points="40.97 72.57 158.23 33.26 229.93 180.28 87.56 236.05 40.97 72.57" style="fill:#fc5959"/><polygon points="87.56 236.05 94.49 236.36 229.1 183.51 229.93 180.28 87.56 236.05" style="fill:#a01f1f"/><polygon points="59.69 94.95 78.9 154.47 183.58 123.27 158.14 60.8 59.69 94.95" style="fill:#ea433f"/><text transform="translate(71.42 115.38) rotate(-18.62)" style="font-size:35.2381706237793px;fill:#fff;font-family:Oswald-Medium, Oswald Medium;font-weight:500">SUPER<tspan style="font-size:49.920738220214844px;letter-spacing:-0.004000482331992656em"><tspan x="-3.74" y="49.92">SALE</tspan></tspan></text><path d="M64.22,64.78S50.46,33.85,41.1,45C32.18,55.72,58.4,74.1,92,107.28c39.34,38.87-6.12,78.32-41.74,39.49" style="fill:none;stroke:#594f59;stroke-miterlimit:10;stroke-width:0.75px"/><path d="M94.41,172a24.19,24.19,0,0,0,5.28-1.72,23.16,23.16,0,0,0,12.43-14.4c2-6.28,4.41-23.18-15.71-44.51C88.4,102.84,80.65,95,73.8,88c-7.32-7.45-13.89-14.12-19.25-20l-1,.33c5.44,6,12.11,12.75,19.56,20.32,6.84,7,14.59,14.82,22.59,23.3,19.78,21,17.43,37.46,15.49,43.58a22.16,22.16,0,0,1-17,15.48c-4.55.93-14.88,1.51-27.37-7.65l.41,1.45C79.62,173.49,89.85,172.89,94.41,172Z" style="fill:#f2d4d3;mix-blend-mode:multiply"/><path d="M.56,128l42.74,29.5a1.28,1.28,0,0,0,1.61-.11l17.23-15.82a1.29,1.29,0,0,0,.06-1.84L19.5,94.71a1.29,1.29,0,0,0-2.07.27L.16,126.35A1.29,1.29,0,0,0,.56,128Z" style="fill:#f6c141"/><text transform="translate(7.92 122.45) rotate(37.71)" style="font-size:20.920560836791992px;fill:#fff;font-family:Oswald-Medium, Oswald Medium;font-weight:500;letter-spacing:-0.004014441852452669em">-70%</text><path d="M193.81,106.21c-16,3.65-58.86,11.88-58.86,11.88s-6.15-7.25-7.25-6.79,2.68,7.16,2.68,7.16-13-7-14.64-6.43S126,120,126,120s-10.85-2-11.06-.85,10.38,3.8,10.38,3.8-9.42-1.16-9.59.21,10.64,2.58,10.64,2.58-9.3.15-8.17,1c3.69,2.58,13.28-.32,13.28-.32a14.81,14.81,0,0,0,2.6,0s47.32,3.64,67.73-3.69Z" style="mix-blend-mode:color-burn;fill:url(#Degradado_sin_nombre_8-6)"/><path d="M228.77,74.67a13.2,13.2,0,0,1,9.84,8.94c2.66,8-15.61,26.83-34.62,35.28s-69.87,4.54-69.87,4.54l.85-8.25s54.47-10.46,63.51-13S219.54,77.79,228.77,74.67Z" style="fill:#f6c141"/><path d="M135,115.18s-6.15-7.25-7.25-6.79,2.68,7.16,2.68,7.16-13.05-7-14.64-6.43,10.27,8,10.27,8-10.85-2-11.06-.85,10.38,3.8,10.38,3.8-9.42-1.16-9.59.21,10.64,2.58,10.64,2.58-9.3.15-8.17,1c3.69,2.58,13.28-.32,13.28-.32a14.91,14.91,0,0,0,2.61,0S136.09,116.48,135,115.18Z" style="fill:#fcb9a7"/><path d="M135,115.18c-1-1.12-2-2.23-3-3.31a26.75,26.75,0,0,0-3.28-3,3.31,3.31,0,0,0-.47-.29c-.15-.07-.35-.15-.46-.08s-.12.62,0,1a13.41,13.41,0,0,0,.78,2.08c.62,1.35,1.31,2.67,2,4a.13.13,0,0,1-.05.18.12.12,0,0,1-.13,0c-2.16-1.14-4.35-2.25-6.55-3.31a59.13,59.13,0,0,0-6.73-2.87,5.46,5.46,0,0,0-.87-.2,1.14,1.14,0,0,0-.37,0h0s0,0,0,0,0,.06,0,.12a6.37,6.37,0,0,0,1.24,1.25c.94.77,1.93,1.48,2.93,2.19,2,1.39,4.06,2.73,6.13,4a.22.22,0,0,1,.07.3.21.21,0,0,1-.23.1c-1.84-.32-3.69-.61-5.54-.85-.92-.12-1.85-.22-2.78-.28-.46,0-.92,0-1.38,0-.22,0-.45,0-.66,0a1.85,1.85,0,0,0-.41.11c0-.08.11.16.29.25a4.61,4.61,0,0,0,.58.33c.41.2.84.37,1.27.54.87.33,1.75.62,2.65.9,1.78.55,3.58,1,5.39,1.52a.21.21,0,0,1-.08.42c-1.73-.21-3.47-.37-5.2-.44a22.55,22.55,0,0,0-2.6,0,6,6,0,0,0-1.23.21c-.19.07-.35.18-.34.26s.14.21.31.31a10.51,10.51,0,0,0,2.43.81c.84.2,1.7.37,2.55.52,1.72.3,3.45.55,5.18.75a.16.16,0,0,1,.13.18.15.15,0,0,1-.15.13c-1.84,0-3.68.1-5.52.24-.46,0-.92.08-1.37.14a3.76,3.76,0,0,0-1.24.3s0,0,.13.06l.29.16a2.28,2.28,0,0,0,.61.29l.64.23.66.14a18.37,18.37,0,0,0,5.49,0,39.59,39.59,0,0,0,5.41-1.1h0a15.17,15.17,0,0,0,2.61,0,15.17,15.17,0,0,1-2.61,0h0a38.38,38.38,0,0,1-5.41,1.19,18.77,18.77,0,0,1-5.55.1l-.69-.14c-.22-.06-.44-.15-.66-.22a3.83,3.83,0,0,1-.65-.3l-.31-.18a.39.39,0,0,1-.16-.12.24.24,0,0,1,0-.32,1.64,1.64,0,0,1,.71-.28q.34-.08.69-.12l1.39-.15c1.84-.15,3.69-.22,5.54-.27l0,.31c-1.74-.2-3.47-.43-5.19-.73-.87-.15-1.73-.31-2.58-.51a10.78,10.78,0,0,1-2.54-.83c-.18-.14-.46-.26-.49-.65s.38-.5.58-.59a5.74,5.74,0,0,1,1.33-.24,23.29,23.29,0,0,1,2.64,0c1.76.06,3.5.21,5.24.41l-.08.42c-1.82-.45-3.62-.94-5.42-1.49-.9-.27-1.79-.56-2.68-.89-.44-.17-.88-.34-1.31-.55a4.63,4.63,0,0,1-.65-.36,1.78,1.78,0,0,1-.31-.26.56.56,0,0,1-.18-.55c.11-.28.3-.3.42-.36a1.55,1.55,0,0,1,.39-.09,4.56,4.56,0,0,1,.73-.05,13.57,13.57,0,0,1,1.43.05c.94.06,1.87.17,2.8.29,1.87.25,3.71.55,5.56.89l-.15.4c-2.08-1.32-4.12-2.67-6.13-4.08-1-.71-2-1.43-2.94-2.22a6.38,6.38,0,0,1-1.32-1.37.67.67,0,0,1-.09-.31.47.47,0,0,1,.09-.22l.17-.11a1.42,1.42,0,0,1,.54,0,6.86,6.86,0,0,1,.92.22,57.94,57.94,0,0,1,6.76,2.93q3.3,1.62,6.55,3.35l-.18.18c-.73-1.31-1.42-2.64-2-4a14.18,14.18,0,0,1-.76-2.13,2.61,2.61,0,0,1-.08-.57.59.59,0,0,1,.23-.57.7.7,0,0,1,.61.09,3.88,3.88,0,0,1,.48.3,25.77,25.77,0,0,1,3.25,3.1Q133.53,113.47,135,115.18Z" style="fill:#ff765f"/></g></g></g></g></svg>