<svg xmlns="http://www.w3.org/2000/svg" xmlns:xlink="http://www.w3.org/1999/xlink" viewBox="0 0 2260.88 2154.25"><defs><linearGradient id="linear-gradient" x1="2199.97" y1="660.51" x2="2028.6" y2="568.55" gradientUnits="userSpaceOnUse"><stop offset="0" stop-color="#ff9085"/><stop offset="1" stop-color="#fb6fbb"/></linearGradient><linearGradient id="linear-gradient-2" x1="1680.54" y1="642.29" x2="2787.41" y2="642.29" xlink:href="#linear-gradient"/><linearGradient id="linear-gradient-3" x1="1480.39" y1="1560.04" x2="-867.49" y2="4693.46" gradientUnits="userSpaceOnUse"><stop offset="0" stop-color="#ffc444"/><stop offset="1" stop-color="#f36f56"/></linearGradient><linearGradient id="linear-gradient-4" x1="708.19" y1="2255.67" x2="2915.64" y2="2255.67" gradientUnits="userSpaceOnUse"><stop offset="0.49" stop-color="#ebeff2"/><stop offset="1" stop-color="#fff"/></linearGradient><clipPath id="clip-path" transform="translate(-654.77 -265.7)"><path d="M2486.94,1253.41H1812s19.44-755.47,17.89-735.74S859.53-111.26,484.22,16.74-275.14,997.87,274.74,1400.51s687.22-25.08,588,764.86l1181.58-80.47,483.36-627.62Z" style="fill:none"/></clipPath><linearGradient id="linear-gradient-5" x1="-4786.34" y1="-3357.69" x2="-4857.94" y2="-3073.14" gradientTransform="matrix(-0.4, -0.92, -0.92, 0.4, -2631.2, -1724.78)" gradientUnits="userSpaceOnUse"><stop offset="0" stop-color="#ab316d"/><stop offset="1" stop-color="#792d3d"/></linearGradient><linearGradient id="linear-gradient-6" x1="-9279.35" y1="-2469.73" x2="-8569.27" y2="-2469.73" gradientTransform="matrix(-0.76, -0.65, -0.65, 0.76, -6541.6, -2392.51)" xlink:href="#linear-gradient"/><linearGradient id="linear-gradient-7" x1="-9279.35" y1="-2462.04" x2="-8568.01" y2="-2462.04" gradientTransform="matrix(-0.76, -0.65, -0.65, 0.76, -6541.6, -2392.51)" xlink:href="#linear-gradient"/><linearGradient id="linear-gradient-8" x1="-9802.04" y1="1791.92" x2="-9013.84" y2="1791.92" gradientTransform="matrix(-1, 0, 0, 1, -8088.49, 0)" xlink:href="#linear-gradient"/><linearGradient id="linear-gradient-9" x1="-9482.32" y1="1567.67" x2="-9497.67" y2="1072.8" gradientTransform="matrix(-1, 0, 0, 1, -8088.49, 0)" xlink:href="#linear-gradient-5"/><linearGradient id="linear-gradient-10" x1="-9802.04" y1="1962.15" x2="-9013.83" y2="1962.15" gradientTransform="matrix(-1, 0, 0, 1, -8088.49, 0)" xlink:href="#linear-gradient"/></defs><g style="isolation:isolate"><g id="Layer_2" data-name="Layer 2"><g id="Illustration"><path d="M2759.18,359.92V945.07c0,34.72-27.89,63.85-62.61,64.14l-1015.78,11.26h0l-5.53-7.37a20.23,20.23,0,0,1-1.09-24.51L1805.7,803.26a154.76,154.76,0,0,0,28.75-89V328.66c0-23.37,12.19-43.64,31-54.49a61.38,61.38,0,0,1,33.92-8.4l16.1.62,783.38,30.35A63.11,63.11,0,0,1,2759.18,359.92Z" transform="translate(-654.77 -265.7)" style="fill:url(#linear-gradient)"/><path d="M2787.41,359.92V945.07a63.14,63.14,0,0,1-62.58,63.22l-1044.29,10.59.22-.25L1833.94,803c18.38-25.94,28.75-56.95,28.75-88.76V328.66c0-14.31,4.27-27.48,12.32-38a62.35,62.35,0,0,1,40.55-24.23,61,61,0,0,1,11.92-.62l799.59,31A63.11,63.11,0,0,1,2787.41,359.92Z" transform="translate(-654.77 -265.7)" style="fill:url(#linear-gradient-2)"/><path d="M2032.1,725.39V723l35.22-30.47c22.34-19.65,38.71-34.79,47.52-45.42s15.72-21,19.94-31.08a84.43,84.43,0,0,0,6.46-32.53c0-13.29-3.33-25.15-10.17-35.56s-16.47-18.56-28.88-24.46-26.84-9-43.14-9.17a144.68,144.68,0,0,0-33.66,3.09,117.52,117.52,0,0,0-27.79,9.76q-12.78,6.43-32.25,22.12l30.25,34.83a153.19,153.19,0,0,1,30-18.88,67.42,67.42,0,0,1,29.52-6.41c9.65.07,17.36,2.66,23.11,7.64s8.66,12.59,8.66,22.71a50.65,50.65,0,0,1-3.93,19.62c-2.62,6.3-6.88,13.14-12.84,20.49S2051,649.88,2031.55,669L1965,733V773.4h187.07V725.65Z" transform="translate(-654.77 -265.7)" style="fill:#fff"/><path d="M2328.58,677.9V521.48l-49.7-.66L2166.22,681.39v36.94l109.42.3V773.4h52.94V718.77l28.24.07V678Zm-51.89-72.49c-.59,13.43-1.05,22.85-1.05,29.91v42.32l-61.48-.29,47.07-68.16c6-8.84,11.33-19.32,15.63-26.38h1.42C2277.91,582.81,2277.27,592,2276.69,605.41Z" transform="translate(-654.77 -265.7)" style="fill:#fff"/><path d="M2460.83,523.22l-34.57,92.63L2367,773.4h47.79l31.44-84.62,61.84-164.17Z" transform="translate(-654.77 -265.7)" style="fill:#fff"/><path d="M2519.17,524.35v43.78L2641,571,2548.4,773.4h54.77l92.48-214.33V526.68Z" transform="translate(-654.77 -265.7)" style="fill:#fff"/><g style="opacity:0.48;mix-blend-mode:soft-light"><path d="M2787.41,929.86v15.21a63.14,63.14,0,0,1-62.58,63.22L1680.54,1019.8l.25.67h0l-5.53-7.37a20.23,20.23,0,0,1-1.09-24.51L1805.7,803.26a154.76,154.76,0,0,0,28.75-89V328.66c0-23.37,12.19-43.64,31-54.49,3.06,5.83,6,11.29,9.35,16.45a197.63,197.63,0,0,0,12.5,17.73c112.64,141.94,320.1,41.31,471.94,193.44,38.69,38.76,55.65,75.81,67.08,112.53,7.57,24.31,12.65,48.51,20,72.93C2459,729.73,2478.53,773,2529.37,819c82.18,74.39,152.73,71.59,229.89,99.25C2768.58,921.63,2780.35,925.42,2787.41,929.86Z" transform="translate(-654.77 -265.7)" style="fill:#fff"/></g><path d="M2915.64,2239.39,708.19,2220.31v56.46c0,15.32,9.63,28.35,22.67,30.67l624.2,111.17a86.72,86.72,0,0,0,22.4,1l1514.2-126.76c13.51-1.13,24-14.2,24-29.94Z" transform="translate(-654.77 -265.7)" style="fill:#bfc8d6"/><path d="M2103.3,2148.91l-1403,103.29c-25.11,1.84-45.52-17.79-45.52-43.87V1163.54c0-26.07,20.41-47.21,45.52-47.21h1403c20.68,0,37.41,19.11,37.41,42.68v944.47C2140.71,2127.05,2124,2147.39,2103.3,2148.91Z" transform="translate(-654.77 -265.7)" style="fill:#bfc8d6"/><path d="M2125.67,2148.91l-1403,103.29c-25.11,1.84-45.52-17.79-45.52-43.87V1163.54c0-26.07,20.41-47.21,45.52-47.21h1403c20.68,0,37.41,19.11,37.41,42.68v944.47C2163.08,2127.05,2146.35,2147.39,2125.67,2148.91Z" transform="translate(-654.77 -265.7)" style="fill:#fff"/><path d="M2082,2082.33,775.2,2172c-20.43,1.4-37-14.71-37-36V1221.33c0-21.29,16.6-38.62,37-38.71L2082,1177c17.07-.08,30.87,15.58,30.87,35V2045.1C2112.83,2064.49,2099,2081.16,2082,2082.33Z" transform="translate(-654.77 -265.7)" style="fill:url(#linear-gradient-3)"/><path d="M1473.71,1144.9c0,9.71-7.22,17.6-16.13,17.63s-16.18-7.83-16.18-17.56,7.25-17.63,16.18-17.63S1473.71,1135.19,1473.71,1144.9Z" transform="translate(-654.77 -265.7)" style="fill:#fff"/><path d="M722.65,2252.2l1395.92-102.76,7.1-.53c9.49-.69,18.12-5.39,24.71-12.5-100.45-5.5-162.84-41.15-203.09-78-80.83-74-66.81-146.92-154-195.55-108.71-60.66-194.19,16.2-276.69-59.64-50-46-25.46-80.26-87-149-68.16-76.11-112.54-50.53-181-119-86.61-86.6-43.29-154-117.9-216.16-90.51-75.43-188.12-5.62-274.28-78-37.16-31.2-57.55-76.56-68.2-124.8H722.66c-25.11,0-45.52,21.14-45.52,47.21V2208.33C677.14,2234.4,697.55,2254,722.65,2252.2Z" transform="translate(-654.77 -265.7)" style="fill:#fff;opacity:0.48;mix-blend-mode:soft-light"/><path d="M2191.77,2143.19,708.19,2251.9l646.87,115.21a86.27,86.27,0,0,0,22.4,1l1538.18-128.76-700.27-95.47A113.59,113.59,0,0,0,2191.77,2143.19Z" transform="translate(-654.77 -265.7)" style="fill:url(#linear-gradient-4)"/><polygon points="269.9 1987.13 1505.03 1895.27 1887.29 1946.97 662.8 2045.16 269.9 1987.13" style="fill:#d8dee8"/><g style="clip-path:url(#clip-path)"><path d="M2233.32,1400.57s21.72-26,62.47-27.2,96.28-25.41,120.13-27.53c5.75-.52,8.6-2.17,9.09-4.27,1-4.32-25.47-10.63-49-11.41-41.64-1.39-65.92,14.59-71.54,6.38-6.27-9.18,20.6-34.24,15.68-39.86-3.82-4.34-22.09,9.62-41.65,18.14-13.88,6-68.18,71-68.18,71Z" transform="translate(-654.77 -265.7)" style="fill:url(#linear-gradient-5)"/><path d="M2234.65,1353.43l30.3,61.17a810.78,810.78,0,0,1-75.9,224.82c-49,95.62-160.74,313.58-357.46,333.36-150,15.08-275.89-92.34-323.53-133.44-44.06-38-83.59-71.55-102.78-125-30.28-84.36.29-188.36,73.61-286.3,36.1-48.22,111.21-37.83,132.55,18.49,33.66,88.86,90.43,150.58,155.65,162.64,73.33,13.56,155-36.12,189.76-57.21,51.68-31.38,64.86-55.51,129.15-105.22A897.33,897.33,0,0,1,2234.65,1353.43Z" transform="translate(-654.77 -265.7)" style="fill:url(#linear-gradient-6)"/><g style="opacity:0.30000000000000004;mix-blend-mode:multiply"><path d="M1637.43,1810.63c56.19-12.65,77.4-64.82,154.42-69.5,97.39-5.91,139.23,72.91,201.53,52.12,50.84-17,59.29-81.6,94.74-164.8,27.5-64.54,75.19-149.44,164.09-239.58L2265,1414.6a810.78,810.78,0,0,1-75.9,224.82c-49,95.62-160.74,313.58-357.46,333.36-150,15.08-275.89-92.34-323.53-133.44-44.06-38-83.59-71.55-102.78-125a196.16,196.16,0,0,1-10.4-46.08C1511.05,1800.88,1587,1822,1637.43,1810.63Z" transform="translate(-654.77 -265.7)" style="fill:url(#linear-gradient-7)"/></g><path d="M925.6,2184.27c-1.19-58.11-4.3-378.76,150.94-609.34,35.58-52.85,98.54-146.37,219.42-208.24a517.24,517.24,0,0,1,118.79-43.32l103.42,15.37a628.71,628.71,0,0,1,117.39,144c25.06,42.25,66.54,112.17,76.14,202.43,11.2,105.19-30.61,146.65-65,310.48A1300.59,1300.59,0,0,0,1620.19,2208l-357.78,30.74a1679.51,1679.51,0,0,0-16.77-187.27,1679.06,1679.06,0,0,0-39.13-190.07,1448.47,1448.47,0,0,0-43.32,382.93c-14.49,5.71-96.07,36.29-174.7-5.59A190.68,190.68,0,0,1,925.6,2184.27Z" transform="translate(-654.77 -265.7)" style="fill:url(#linear-gradient-8)"/><path d="M1501.09,1167.8s2.9,74.69,0,124.82c-2.13,36.7,29.61,57.61,29.61,57.61s17.43,29.86-76.82,34.85-186,0-186,0,92.15-61.28,113.2-77.57,32.35-138,18.87-215.17Z" transform="translate(-654.77 -265.7)" style="fill:url(#linear-gradient-9)"/><g style="opacity:0.30000000000000004;mix-blend-mode:multiply"><path d="M1126.85,2035.84c41.57-65.24-21.82-121.8,5.11-225.06,23-88.11,97.81-156.89,125.32-145.77,38,15.36-36.67,174.23,38.36,248.07,49.81,49,114.73,10.51,181.58,53.71,44.08,28.48,88.37,92.15,91.83,245.63l-306.64,26.35a1679.51,1679.51,0,0,0-16.77-187.27,1679.06,1679.06,0,0,0-39.13-190.07,1448.47,1448.47,0,0,0-43.32,382.93c-14.49,5.71-96.07,36.29-174.7-5.59-4.39-2.34-8.54-4.8-12.5-7.33,2-33.86,10.69-72.54,35.77-106.09C1052.52,2070.82,1096.77,2083,1126.85,2035.84Z" transform="translate(-654.77 -265.7)" style="fill:url(#linear-gradient-10)"/></g></g></g></g></g></svg>