<svg xmlns="http://www.w3.org/2000/svg" xmlns:xlink="http://www.w3.org/1999/xlink" viewBox="0 0 2527.68 2260.48"><defs><linearGradient id="linear-gradient" x1="-5087.5" y1="-3555.03" x2="-5159.11" y2="-3270.49" gradientTransform="matrix(-0.4, -0.92, -0.92, 0.4, -2932.38, -1922.14)" gradientUnits="userSpaceOnUse"><stop offset="0" stop-color="#ab316d"/><stop offset="1" stop-color="#792d3d"/></linearGradient><linearGradient id="linear-gradient-2" x1="-9625.57" y1="-2598.32" x2="-8915.48" y2="-2598.32" gradientTransform="matrix(-0.76, -0.65, -0.65, 0.76, -6887.84, -2521.1)" gradientUnits="userSpaceOnUse"><stop offset="0" stop-color="#ff9085"/><stop offset="1" stop-color="#fb6fbb"/></linearGradient><linearGradient id="linear-gradient-3" x1="-9625.57" y1="-2590.62" x2="-8914.23" y2="-2590.62" xlink:href="#linear-gradient-2"/><linearGradient id="linear-gradient-4" x1="-10148.26" y1="1791.92" x2="-9360.05" y2="1791.92" gradientTransform="matrix(-1, 0, 0, 1, -8434.71, 0)" xlink:href="#linear-gradient-2"/><linearGradient id="linear-gradient-5" x1="-9828.54" y1="1567.67" x2="-9843.88" y2="1072.8" gradientTransform="matrix(-1, 0, 0, 1, -8434.71, 0)" xlink:href="#linear-gradient"/><linearGradient id="linear-gradient-6" x1="-10148.26" y1="1962.15" x2="-9360.05" y2="1962.15" gradientTransform="matrix(-1, 0, 0, 1, -8434.71, 0)" xlink:href="#linear-gradient-2"/></defs><g style="isolation:isolate"><g id="Layer_2" data-name="Layer 2"><g id="Illustration"><path d="M2233.32,1400.57s21.72-26,62.47-27.2,96.28-25.41,120.13-27.53c5.75-.52,8.6-2.17,9.09-4.27,1-4.32-25.47-10.63-49-11.41-41.64-1.39-65.92,14.59-71.54,6.38-6.27-9.18,20.6-34.24,15.68-39.86-3.82-4.34-22.09,9.62-41.65,18.14-13.88,6-68.18,71-68.18,71Z" style="fill:url(#linear-gradient)"/><path d="M2234.65,1353.43l30.3,61.17a810.78,810.78,0,0,1-75.9,224.82c-49,95.62-160.74,313.58-357.46,333.36-150,15.08-275.89-92.34-323.53-133.44-44.06-38-83.59-71.55-102.78-125-30.28-84.36.29-188.36,73.61-286.3,36.1-48.22,111.21-37.83,132.55,18.49,33.66,88.86,90.43,150.58,155.65,162.64,73.33,13.56,155-36.12,189.76-57.21,51.68-31.38,64.86-55.51,129.15-105.22A897.33,897.33,0,0,1,2234.65,1353.43Z" style="fill:url(#linear-gradient-2)"/><g style="opacity:0.30000000000000004;mix-blend-mode:multiply"><path d="M1637.43,1810.63c56.19-12.65,77.4-64.82,154.42-69.5,97.39-5.91,139.23,72.91,201.53,52.12,50.84-17,59.29-81.6,94.74-164.8,27.5-64.54,75.19-149.44,164.09-239.58L2265,1414.6a810.78,810.78,0,0,1-75.9,224.82c-49,95.62-160.74,313.58-357.46,333.36-150,15.08-275.89-92.34-323.53-133.44-44.06-38-83.59-71.55-102.78-125a196.16,196.16,0,0,1-10.4-46.08C1511.05,1800.88,1587,1822,1637.43,1810.63Z" style="fill:url(#linear-gradient-3)"/></g><path d="M925.6,2184.27c-1.19-58.11-4.3-378.76,150.94-609.34,35.58-52.85,98.54-146.37,219.42-208.24a517.24,517.24,0,0,1,118.79-43.32l103.42,15.37a628.71,628.71,0,0,1,117.39,144c25.06,42.25,66.54,112.17,76.14,202.43,11.2,105.19-30.61,146.65-65,310.48A1300.59,1300.59,0,0,0,1620.19,2208l-357.78,30.74a1679.51,1679.51,0,0,0-16.77-187.27,1679.06,1679.06,0,0,0-39.13-190.07,1448.47,1448.47,0,0,0-43.32,382.93c-14.49,5.71-96.07,36.29-174.7-5.59A190.68,190.68,0,0,1,925.6,2184.27Z" style="fill:url(#linear-gradient-4)"/><path d="M1501.09,1167.8s2.9,74.69,0,124.82c-2.13,36.7,29.61,57.61,29.61,57.61s17.43,29.86-76.82,34.85-186,0-186,0,92.15-61.28,113.2-77.57,32.35-138,18.87-215.17Z" style="fill:url(#linear-gradient-5)"/><g style="opacity:0.30000000000000004;mix-blend-mode:multiply"><path d="M1126.85,2035.84c41.57-65.24-21.82-121.8,5.11-225.06,23-88.11,97.81-156.89,125.32-145.77,38,15.36-36.67,174.23,38.36,248.07,49.81,49,114.73,10.51,181.58,53.71,44.08,28.48,88.37,92.15,91.83,245.63l-306.64,26.35a1679.51,1679.51,0,0,0-16.77-187.27,1679.06,1679.06,0,0,0-39.13-190.07,1448.47,1448.47,0,0,0-43.32,382.93c-14.49,5.71-96.07,36.29-174.7-5.59-4.39-2.34-8.54-4.8-12.5-7.33,2-33.86,10.69-72.54,35.77-106.09C1052.52,2070.82,1096.77,2083,1126.85,2035.84Z" style="fill:url(#linear-gradient-6)"/></g><path d="M2486.94,1253.41H1812s19.44-755.47,17.89-735.74S859.53-111.26,484.22,16.74-275.14,997.87,274.74,1400.51s687.22-25.08,588,764.86l1181.58-80.47,483.36-627.62Z" style="fill:none"/></g></g></g></svg>