<svg xmlns="http://www.w3.org/2000/svg" xmlns:xlink="http://www.w3.org/1999/xlink" viewBox="0 0 3016.78 2820.95"><defs><clipPath id="clip-path" transform="translate(40.53)"><path d="M1836.73,2697.84l198.2,108.29s92.86-81.29,83.49-179.58C2099.3,2426,2276.27,2423.27,2350.23,2411c111.52-18.46,201.75-83.36,107.8-184.41s118.74-216,303.15-219.84c180.46-3.77,277.89-326.72-113.43-354.43C2414.05,1635.8,2335,1850,2269.43,1948.68s-224.38,23.07-240.79,178.44c-14,132.72,28.5,258.31-77.43,297S1793,2542.35,1836.73,2697.84Z" style="fill:none"/></clipPath><linearGradient id="linear-gradient" x1="7580.92" y1="1232.42" x2="7131.29" y2="2510.33" gradientTransform="translate(-3243.54 -2980.53) rotate(28.65)" gradientUnits="userSpaceOnUse"><stop offset="0" stop-color="#aa80f9"/><stop offset="1" stop-color="#6165d7"/></linearGradient><linearGradient id="linear-gradient-2" x1="4175.39" y1="656.66" x2="4649.03" y2="1901.17" gradientTransform="matrix(-1, -0.01, -0.01, 1, 6631.27, 375.63)" xlink:href="#linear-gradient"/><clipPath id="clip-path-2" transform="translate(40.53)"><path d="M2214.27,2086.53,2048.13,2054s-49.88-112.1,8.47-144.88,27.75-141.14,18.62-200.54c-24.8-161.16,164.25-154.09,150.17-363.23-3.74-55.63-30.9-160.92,16.53-207.27,54-52.8,99.39-5,133.47-48.7,53.26-68.31,145.39-95.78,205.91-30.15,59.73,64.77,1.83,200.87-157.44,314.83-104,94-103.92,120.82-90.79,185.71,9.19,45.46,64.23,162.6.74,212.85s-111,103.68-81.76,154.25C2296.54,2003.85,2214.27,2086.53,2214.27,2086.53Z" style="fill:none"/></clipPath><linearGradient id="linear-gradient-3" x1="9584.66" y1="554.88" x2="10222.29" y2="1604.58" gradientTransform="matrix(-0.99, -0.12, -0.12, 0.99, 12280.83, 1859.75)" gradientUnits="userSpaceOnUse"><stop offset="0" stop-color="#e38ddd"/><stop offset="1" stop-color="#9571f6"/></linearGradient><clipPath id="clip-path-3" transform="translate(40.53)"><path d="M2230.76,2176l-266.66-33c-11.6-37.65-24.17-106,33.41-115.36,80-13,95.12-142.34,78.45-190.65-20.63-59.8-65.68-199.9,57.7-221.84,102.7-18.27,173.46-10,192.8-130.7s97.1-188.35,212.74-167.6c121.7,21.84,237.84-120.83,332.92-57.54,165.68,110.27-19.95,359.6-240.47,412.46s-105.93,139.56-110.31,239.66c-6,136.65-196.85,85.12-253.48,132.49C2223.47,2081.09,2225.05,2139.64,2230.76,2176Z" style="fill:none"/></clipPath><clipPath id="clip-path-4" transform="translate(40.53)"><path d="M1099,2712.66,900.79,2821s-92.85-81.29-83.49-179.58c19.12-200.53-157.85-203.28-231.8-215.52-111.53-18.46-201.76-83.36-107.81-184.4S359,2025.45,174.54,2021.6C-5.91,2017.83-103.35,1694.88,288,1667.17c233.69-16.55,312.7,197.65,378.31,296.33s224.38,23.07,240.8,178.44c14,132.72-28.5,258.31,77.42,296.95S1142.72,2557.17,1099,2712.66Z" style="fill:none"/></clipPath><linearGradient id="linear-gradient-4" x1="15732.13" y1="-3204.83" x2="15282.5" y2="-1926.92" gradientTransform="matrix(-0.88, 0.48, 0.48, 0.88, 15459.61, -2980.53)" xlink:href="#linear-gradient"/><linearGradient id="linear-gradient-5" x1="-5104.85" y1="565.68" x2="-4631.21" y2="1810.19" gradientTransform="translate(5584.8 375.63) rotate(-0.65)" xlink:href="#linear-gradient"/><clipPath id="clip-path-5" transform="translate(40.53)"><path d="M721.46,2101.36l166.13-32.5s49.88-112.1-8.47-144.89-27.75-141.13-18.61-200.53c24.79-161.17-164.26-154.1-150.18-363.24,3.75-55.63,30.9-160.91-16.53-207.26-54-52.81-99.39-5-133.47-48.7-53.26-68.32-145.39-95.79-205.91-30.16-59.73,64.77-1.83,200.87,157.44,314.83,104,94,103.92,120.83,90.79,185.72-9.19,45.45-64.23,162.6-.73,212.84s111,103.69,81.75,154.26C639.18,2018.67,721.46,2101.36,721.46,2101.36Z" style="fill:none"/></clipPath><linearGradient id="linear-gradient-6" x1="365.44" y1="-509.73" x2="1003.06" y2="539.96" gradientTransform="translate(-64.76 1859.75) rotate(-6.68)" xlink:href="#linear-gradient-3"/><clipPath id="clip-path-6" transform="translate(40.53)"><path d="M705,2190.86l266.66-33c11.6-37.65,24.17-106-33.41-115.37-80.05-13-95.12-142.33-78.45-190.65,20.63-59.8,65.68-199.9-57.69-221.84-102.71-18.27-173.47-10-192.81-130.7S512.16,1311,396.52,1331.71c-121.7,21.84-237.83-120.84-332.92-57.55-165.68,110.28,19.95,359.61,240.47,412.46S410,1826.19,414.38,1926.28c6,136.65,196.85,85.12,253.48,132.5C712.25,2095.92,710.67,2154.47,705,2190.86Z" style="fill:none"/></clipPath></defs><g style="isolation:isolate"><g id="Layer_2" data-name="Layer 2"><g id="Illustration"><path d="M1310,.25C938.28,6.81,363.1,148.16,197.54,511.4c-57.83,126.87-53.91,313.38-46.08,686.39,2.3,109.64,6.11,269.44,32.91,467.72,55.67,411.88,93.56,692.28,237,855.55,359.37,409.1,1657.49,397.28,2211.83-339.24,302.39-401.78,348.91-973.32,72.41-1445.67C2401.17,216.1,1807.73-8.54,1310,.25Z" transform="translate(40.53)" style="fill:#f4f7fa"/><g style="clip-path:url(#clip-path)"><path d="M1836.73,2697.84l198.2,108.29s92.86-81.29,83.49-179.58C2099.3,2426,2276.27,2423.27,2350.23,2411c111.52-18.46,189.1-78.65,123.15-181.22-74.61-116,103.39-219.18,287.8-223,180.46-3.77,277.89-326.72-113.43-354.43C2414.05,1635.8,2335,1850,2269.43,1948.68s-224.38,23.07-240.79,178.44c-14,132.72,28.5,258.31-77.43,297S1793,2542.35,1836.73,2697.84Z" transform="translate(40.53)" style="fill:url(#linear-gradient)"/><g style="opacity:0.5;mix-blend-mode:soft-light"><path d="M1912.46,2763.1l4.53,1.5c.93-2.81,94.59-283.24,271.27-533.25C2351,2001,2619.61,1750.15,2974.81,1863l1.44-4.54c-158.11-50.22-312.5-33.79-458.87,48.83-116.93,66-229,174.14-333.07,321.44C2007.24,2479.27,1913.39,2760.29,1912.46,2763.1Z" transform="translate(40.53)" style="fill:#beb8f2"/><path d="M2457.71,1944.4l4.43,1.75c58.3-147.6,218.2-315.14,219.81-316.81l-3.44-3.3C2676.89,1627.72,2516.35,1795.94,2457.71,1944.4Z" transform="translate(40.53)" style="fill:#beb8f2"/><path d="M2556.74,1892c188.8-10.81,297.39,103.2,298.46,104.35l3.49-3.25c-1.09-1.17-111.11-116.8-302.22-105.86Z" transform="translate(40.53)" style="fill:#beb8f2"/><path d="M2081.66,2401.09c154.56-171.71,449.3-73.51,452.09-72.31l2.16-4.24c-2.63-1.44-301.86-99.88-457.8,73.36Z" transform="translate(40.53)" style="fill:#beb8f2"/><path d="M2126,2316.79l4.56,1.39c42.86-141.06-46.92-303.27-47.83-304.9l-4.16,2.34C2079.51,2017.22,2168.3,2177.71,2126,2316.79Z" transform="translate(40.53)" style="fill:#beb8f2"/><path d="M1932.7,2720.79c48-73.48,190.82-74.39,192.26-74.39v-4.77c-6,0-146.85.9-196.25,76.56Z" transform="translate(40.53)" style="fill:#beb8f2"/><path d="M1954,2654.09l4.51,1.54C1981,2590,1926.84,2473.56,1909,2435.3c-2.51-5.41-4.69-10.08-4.91-11l-4.65,1.08c.3,1.28,1.74,4.39,5.24,11.92C1922.32,2475.14,1975.91,2590.28,1954,2654.09Z" transform="translate(40.53)" style="fill:#beb8f2"/></g></g><path d="M2252.05,1926.9c25.58,44.24,7.23,90.27-11.27,121.5-4.9.22-7.67,1.6-12.55,2.93-44.05,11.93-65.38,7.63-110.66,12.53-9.75,1.06-39.29-4.54-51.22-7.6l-22.14-6.07s-46-108.26,12.39-141,27.75-141.14,18.62-200.54c-5.62-36.47,3.5-54.95,3.59-68.69,1-145.38-45-186-15.64-233.11,32.4-52,97.66-17.32,135.9-72,43.17-61.75-11.06-147.39,42.85-196.7,9.25-8.45,19-16.88,34.74-22.41,38.92-13.65,72.23,7.7,98.73-26.29,53.26-68.31,145.39-95.78,205.91-30.15,59.73,64.77,1.83,200.87-157.44,314.83-104,94-103.92,120.82-90.79,185.71,9.19,45.46,64.23,162.6.74,212.85S2222.81,1876.33,2252.05,1926.9Z" transform="translate(40.53)" style="fill:url(#linear-gradient-2)"/><g style="clip-path:url(#clip-path-2)"><g style="opacity:0.5;mix-blend-mode:soft-light"><path d="M2141.37,2064.61l-3.35-.25c1.21-18.49,2.68-37.12,4.36-55.37,12.47-135.12,38.1-264,76.17-383.12,32.27-100.92,73.9-196.23,123.75-283.29,40.09-70,85.68-135.08,135.51-193.42A1051.94,1051.94,0,0,1,2587,1038.37c6.53-5.67,13.55-11.12,20.34-16.39,9.05-7,18.4-14.28,26.65-22.11l2.42,2.2c-8.36,7.93-17.78,15.24-26.89,22.31-6.76,5.25-13.74,10.67-20.2,16.28a1047.77,1047.77,0,0,0-108.9,110.47c-49.71,58.19-95.19,123.11-135.18,193-49.75,86.87-91.3,182-123.5,282.72-38,118.9-63.6,247.59-76.05,382.5C2144,2027.54,2142.58,2046.14,2141.37,2064.61Z" transform="translate(40.53)" style="fill:#fcfdfe"/><path d="M2289.4,1452.4l-3.13-1.2c52.76-123.32-16.07-344.43-16.77-346.65l3.22-.82C2273.42,1106,2342.57,1328.08,2289.4,1452.4Z" transform="translate(40.53)" style="fill:#fcfdfe"/><path d="M2174.66,1810l-3.24-.85c25.2-87.91,195.15-161.86,196.87-162.6l1.46,2.83C2368.05,1650.12,2199.47,1723.48,2174.66,1810Z" transform="translate(40.53)" style="fill:#fcfdfe"/><path d="M2165,1861.12l-3.34-.31c5.2-59.38-21.94-143.57-76.42-237-2.74-4.7-2.74-4.7-2.69-5.29l3.34.27-1.67-.14,1.59-.45c.14.33,1.17,2.11,2.38,4.17C2143,1716.34,2170.29,1801.14,2165,1861.12Z" transform="translate(40.53)" style="fill:#fcfdfe"/><path d="M2144.09,2030.9l-3.12-1.18c25.68-60.78,125.79-88.41,126.79-88.68l1,3C2267.77,1944.3,2169.19,1971.52,2144.09,2030.9Z" transform="translate(40.53)" style="fill:#fcfdfe"/><path d="M2136.33,2065.05c-16.14-51.13-48.53-99.92-99-149.16l2.41-2.13c50.88,49.62,83.54,98.84,99.83,150.47Z" transform="translate(40.53)" style="fill:#fcfdfe"/><path d="M2451.72,1185.94l-3-1.36c33.48-67,51.78-144.85,57.79-170.44,1.45-6.19,2-8.37,2.3-9.1l3.1,1.24c-.24.56-1.07,4.1-2.12,8.58C2503.71,1040.53,2485.35,1118.66,2451.72,1185.94Z" transform="translate(40.53)" style="fill:#fcfdfe"/><path d="M2379.77,1287l-2.5-2.12c50.12-51.07,200.21-55.59,206.58-55.76l.16,3.12C2582.47,1232.32,2429,1236.93,2379.77,1287Z" transform="translate(40.53)" style="fill:#fcfdfe"/></g></g><path d="M2139,2403.14c-11.27-2.78,9.06-60.24-15.45-139.65-6.13-19.84-32-130.37-116.4-143.2l-49.14-7.47c-9.87-38.59-12-76.79,39.53-85.15,80-13,95.12-142.34,78.45-190.65-20.63-59.8-65.68-199.9,57.7-221.84,102.7-18.27,173.46-10,192.8-130.7s97.1-188.35,212.74-167.6c121.7,21.84,237.84-120.83,332.92-57.54,165.68,110.27-19.95,359.6-240.47,412.46s-105.93,139.56-110.31,239.66a173,173,0,0,1-8.84,40c-35.43,100.92-145.68,106.23-232.89,182.1C2160.67,2237,2158,2407.82,2139,2403.14Z" transform="translate(40.53)" style="fill:url(#linear-gradient-3)"/><g style="clip-path:url(#clip-path-3)"><g style="opacity:0.5;mix-blend-mode:soft-light"><path d="M2109.58,2120.79,2104,2119c124.81-382.25,446.05-700.24,838.35-829.88l2,5.22C2553.76,1423.47,2233.87,1740.14,2109.58,2120.79Z" transform="translate(40.53)" style="fill:#fcfdfe"/><path d="M2196.58,1918.4l-5.78-.69c16.58-157.24-112.69-296.8-114-298.19l4.29-3.62C2082.42,1617.31,2213.42,1758.68,2196.58,1918.4Z" transform="translate(40.53)" style="fill:#fcfdfe"/><path d="M2134.57,2051.12l-4.81-3.21c94.75-130.73,402.8-114,405.9-113.83l-.21,5.5C2532.39,1939.4,2227.52,1922.87,2134.57,2051.12Z" transform="translate(40.53)" style="fill:#fcfdfe"/><path d="M2437.81,1602.34l-5.08-2.81c65.4-109.67,4.23-297.75,3.61-299.63l5.53-1.54C2442.51,1300.27,2504.41,1490.65,2437.81,1602.34Z" transform="translate(40.53)" style="fill:#fcfdfe"/><path d="M2641.68,1439.73l-2.54-5c137.63-60,334.09,5.74,336.06,6.41l-1.84,5.19C2971.42,1445.64,2777.16,1380.71,2641.68,1439.73Z" transform="translate(40.53)" style="fill:#fcfdfe"/></g></g><rect x="1527.13" y="1450.71" width="1320.02" height="1267.08" style="fill:none"/><g style="clip-path:url(#clip-path-4)"><path d="M1099,2712.66,900.79,2821s-92.85-81.29-83.49-179.58c19.12-200.53-157.85-203.28-231.8-215.52-111.53-18.46-189.11-78.64-123.16-181.21,74.62-116-103.39-219.19-287.8-223C-5.91,2017.83-103.35,1694.88,288,1667.17c233.69-16.55,312.7,197.65,378.31,296.33s224.38,23.07,240.8,178.44c14,132.72-28.5,258.31,77.42,296.95S1142.72,2557.17,1099,2712.66Z" transform="translate(40.53)" style="fill:url(#linear-gradient-4)"/><g style="opacity:0.5;mix-blend-mode:soft-light"><path d="M1023.26,2777.93l-4.53,1.49c-.92-2.8-94.59-283.24-271.27-533.25C584.69,2015.85,316.11,1765-39.09,1877.77l-1.44-4.54c158.12-50.22,312.5-33.79,458.87,48.83,116.93,66,229,174.14,333.07,321.44C928.48,2494.09,1022.33,2775.12,1023.26,2777.93Z" transform="translate(40.53)" style="fill:#beb8f2"/><path d="M478,1959.22l-4.44,1.75c-58.3-147.59-218.2-315.13-219.8-316.81l3.43-3.3C258.83,1642.54,419.38,1810.76,478,1959.22Z" transform="translate(40.53)" style="fill:#beb8f2"/><path d="M379,1906.85c-188.8-10.8-297.39,103.2-298.46,104.36L77,2008c1.09-1.18,111.11-116.8,302.22-105.87Z" transform="translate(40.53)" style="fill:#beb8f2"/><path d="M854.06,2415.91C699.5,2244.2,404.77,2342.41,402,2343.6l-2.16-4.24c2.62-1.43,301.85-99.87,457.79,73.36Z" transform="translate(40.53)" style="fill:#beb8f2"/><path d="M809.69,2331.62l-4.57,1.38C762.27,2192,852,2029.73,853,2028.11l4.15,2.33C856.21,2032.05,767.42,2192.53,809.69,2331.62Z" transform="translate(40.53)" style="fill:#beb8f2"/><path d="M1003,2735.62c-48-73.49-190.82-74.39-192.26-74.4v-4.76c6,0,146.86.9,196.25,76.55Z" transform="translate(40.53)" style="fill:#beb8f2"/><path d="M981.73,2668.91l-4.51,1.55c-22.54-65.63,31.66-182.08,49.47-220.34,2.52-5.41,4.69-10.07,4.91-11l4.65,1.07c-.3,1.29-1.73,4.39-5.24,11.92C1013.4,2490,959.81,2605.1,981.73,2668.91Z" transform="translate(40.53)" style="fill:#beb8f2"/></g></g><path d="M683.67,1941.73c-25.58,44.23-7.23,90.26,11.27,121.49,4.91.23,7.67,1.61,12.55,2.93,44,11.93,65.39,7.63,110.66,12.54,9.75,1,39.3-4.55,51.22-7.61l22.14-6.07s46-108.25-12.39-141-27.75-141.13-18.61-200.53c5.61-36.48-3.51-55-3.6-68.69-.95-145.38,45-186,15.64-233.11-32.4-52-97.66-17.33-135.89-72-43.18-61.75,11.05-147.39-42.86-196.69-9.25-8.46-19-16.89-34.74-22.42-38.92-13.65-72.23,7.7-98.73-26.28-53.26-68.32-145.39-95.79-205.91-30.16-59.73,64.77-1.83,200.87,157.44,314.83,104,94,103.92,120.83,90.79,185.72-9.19,45.45-64.23,162.6-.73,212.84S712.91,1891.16,683.67,1941.73Z" transform="translate(40.53)" style="fill:url(#linear-gradient-5)"/><g style="clip-path:url(#clip-path-5)"><g style="opacity:0.5;mix-blend-mode:soft-light"><path d="M794.35,2079.43l3.35-.25c-1.21-18.49-2.68-37.12-4.36-55.37-12.47-135.12-38.09-264-76.17-383.12-32.27-100.92-73.9-196.23-123.75-283.28-40.08-70-85.67-135.09-135.51-193.42a1050.13,1050.13,0,0,0-109.22-110.8c-6.52-5.67-13.55-11.12-20.34-16.39-9-7-18.4-14.28-26.65-22.11l-2.42,2.2c8.37,7.94,17.78,15.25,26.89,22.32,6.76,5.24,13.75,10.67,20.2,16.27A1047.77,1047.77,0,0,1,455.27,1166c49.71,58.19,95.19,123.11,135.19,193,49.74,86.88,91.29,182,123.49,282.72,38,118.9,63.6,247.6,76,382.51C791.68,2042.36,793.15,2061,794.35,2079.43Z" transform="translate(40.53)" style="fill:#fcfdfe"/><path d="M646.33,1467.22l3.12-1.19c-52.76-123.33,16.07-344.44,16.77-346.66l-3.21-.82C662.3,1120.78,593.15,1342.91,646.33,1467.22Z" transform="translate(40.53)" style="fill:#fcfdfe"/><path d="M761.06,1824.84l3.24-.86c-25.2-87.9-195.15-161.86-196.87-162.6l-1.45,2.83C567.68,1664.94,736.25,1738.31,761.06,1824.84Z" transform="translate(40.53)" style="fill:#fcfdfe"/><path d="M770.69,1876l3.34-.32c-5.2-59.38,21.94-143.57,76.42-237.05,2.74-4.7,2.74-4.7,2.7-5.29l-3.35.28,1.67-.14-1.58-.45c-.15.33-1.18,2.1-2.38,4.16C792.72,1731.16,765.44,1816,770.69,1876Z" transform="translate(40.53)" style="fill:#fcfdfe"/><path d="M791.63,2045.73l3.12-1.19C769.07,1983.77,669,1956.13,668,1955.86l-1,3C668,1959.12,766.53,1986.34,791.63,2045.73Z" transform="translate(40.53)" style="fill:#fcfdfe"/><path d="M799.4,2079.88c16.13-51.14,48.53-99.93,99-149.17l-2.41-2.12c-50.88,49.62-83.53,98.83-99.83,150.47Z" transform="translate(40.53)" style="fill:#fcfdfe"/><path d="M484,1200.76l3.05-1.35c-33.48-67-51.78-144.85-57.79-170.45-1.45-6.19-2-8.37-2.3-9.1l-3.1,1.24c.24.56,1.07,4.1,2.13,8.59C432,1055.36,450.37,1133.48,484,1200.76Z" transform="translate(40.53)" style="fill:#fcfdfe"/><path d="M556,1301.87l2.5-2.13c-50.11-51.07-200.21-55.59-206.58-55.75l-.16,3.11C353.26,1247.14,506.77,1251.75,556,1301.87Z" transform="translate(40.53)" style="fill:#fcfdfe"/></g></g><path d="M796.75,2418c11.27-2.77-9-60.23,15.45-139.65,6.13-19.84,32-130.36,116.4-143.19l49.14-7.48c9.87-38.59,12-76.78-39.53-85.15-80.05-13-95.12-142.33-78.45-190.65,20.63-59.8,65.68-199.9-57.69-221.84-102.71-18.27-173.47-10-192.81-130.7S512.16,1311,396.52,1331.71c-121.7,21.84-237.83-120.84-332.92-57.55-165.68,110.28,19.95,359.61,240.47,412.46S410,1826.19,414.38,1926.28a172.65,172.65,0,0,0,8.85,40c35.43,100.91,145.67,106.22,232.88,182.1C775.05,2251.82,777.77,2422.64,796.75,2418Z" transform="translate(40.53)" style="fill:url(#linear-gradient-6)"/><g style="clip-path:url(#clip-path-6)"><g style="opacity:0.5;mix-blend-mode:soft-light"><path d="M826.15,2135.62l5.55-1.76C706.89,1751.62,385.65,1433.63-6.65,1304l-2,5.21C382,1438.3,701.85,1755,826.15,2135.62Z" transform="translate(40.53)" style="fill:#fcfdfe"/><path d="M739.14,1933.22l5.78-.69c-16.58-157.24,112.69-296.8,114-298.19l-4.29-3.61C853.3,1632.13,722.3,1773.5,739.14,1933.22Z" transform="translate(40.53)" style="fill:#fcfdfe"/><path d="M801.15,2065.94l4.81-3.2c-94.74-130.74-402.8-114-405.9-113.84l.21,5.51C403.34,1954.23,708.2,1937.69,801.15,2065.94Z" transform="translate(40.53)" style="fill:#fcfdfe"/><path d="M497.91,1617.16l5.08-2.81c-65.39-109.66-4.23-297.74-3.6-299.63l-5.54-1.53C493.22,1315.1,431.31,1505.47,497.91,1617.16Z" transform="translate(40.53)" style="fill:#fcfdfe"/><path d="M294.05,1454.56l2.53-5c-137.63-60-334.09,5.74-336.06,6.42l1.84,5.18C-35.7,1460.47,158.56,1395.54,294.05,1454.56Z" transform="translate(40.53)" style="fill:#fcfdfe"/></g></g><rect x="83.58" y="1267.17" width="1228.26" height="1270.61" style="fill:none"/></g></g></g></svg>