<svg xmlns="http://www.w3.org/2000/svg" xmlns:xlink="http://www.w3.org/1999/xlink" viewBox="0 0 1510.84 1103"><defs><linearGradient id="linear-gradient" x1="-2953.63" y1="551.19" x2="-1443" y2="551.19" gradientTransform="matrix(-1, 0, 0, 1, -1443.58, 2.29)" gradientUnits="userSpaceOnUse"><stop offset="0" stop-color="#311944"/><stop offset="1" stop-color="#6b3976"/></linearGradient><linearGradient id="linear-gradient-2" x1="-2953.63" y1="720.07" x2="-1442.99" y2="720.07" xlink:href="#linear-gradient"/><linearGradient id="linear-gradient-3" x1="-2838.75" y1="1044.56" x2="-2698.73" y2="586.14" gradientTransform="matrix(-1, 0, 0, 1, -1443.58, 2.29)" gradientUnits="userSpaceOnUse"><stop offset="0" stop-color="#ab316d"/><stop offset="1" stop-color="#792d3d"/></linearGradient></defs><g style="isolation:isolate"><g id="Layer_2" data-name="Layer 2"><g id="Illustration"><path d="M1365.65,963.87c79.56-65,119.34-97.46,134.13-138.93,32.31-90.63-11.42-193.19-63.62-252.27-73.24-82.91-180-99.28-247.55-109.64-86.81-13.31-92.29,7.12-132.76-10.27C944,404.7,981.51,246.71,877.49,125.57,762.72-8.08,556.92-2.22,505,1.31,228.05,20.1,86.16,260,72,284.82-58.78,514.79,3.91,792,137.6,951.57c38.23,45.62,136,162.33,249.09,150.61,108.86-11.29,139.44-132.08,290.82-152,21.15-2.79,85.24-11.24,155.59,15.8,79.45,30.53,91.89,77.49,176.63,106.93,68.7,23.86,128.38,16.56,140.32,14.94C1225.1,1077.62,1273,1039.55,1365.65,963.87Z" style="fill:url(#linear-gradient)"/><g style="opacity:0.30000000000000004;mix-blend-mode:multiply"><path d="M45.4,338.29C17.31,595.79,46,688.52,92.76,707.34c65.48,26.33,150.81-98.3,253.13-64.2,92,30.67,80,150.49,164.5,176.71,106.8,33.15,178.49-142,306.11-131.16C968.4,701.6,987.82,960,1157,1005.46c51.24,13.76,121.72,9.4,218.48-49.59l-9.8,8c-92.66,75.68-140.55,113.75-215.6,123.94-11.94,1.62-71.62,8.92-140.32-14.94-84.74-29.44-97.18-76.4-176.63-106.93-70.35-27-134.44-18.59-155.59-15.8-151.38,20-182,140.75-290.82,152-113.06,11.72-210.86-105-249.09-150.61C14.12,804.22-48.77,556.48,45.4,338.29Z" style="fill:url(#linear-gradient-2)"/></g><path d="M1424.66,758s48.08,115.6,47.9,185.48-49,110-86.08,92.82-93-89.84-93-89.84-7.48,19.57-35.93,0-49.67-129.39,5.64-98.27c0,0-8.78-30.79,4.8-75.47S1408.41,679.74,1424.66,758Z" style="fill:url(#linear-gradient-3)"/><path d="M1345.78,1004.54c-67.14.07-92.52-96.1-92.79-97.15a4.68,4.68,0,0,1,9.06-2.32c.26,1,27.59,104.43,98.57,88.39a4.67,4.67,0,0,1,2.06,9.12A76.8,76.8,0,0,1,1345.78,1004.54Z" style="fill:#fff"/><ellipse cx="1381.68" cy="995.18" rx="24.14" ry="13.24" transform="translate(-206.61 381.39) rotate(-14.64)" style="fill:#fff"/><ellipse cx="1249.19" cy="891.63" rx="22.56" ry="36.11" transform="matrix(0.97, -0.25, 0.25, 0.97, -184.75, 344.55)" style="fill:#fff"/><path d="M1237.78,872.51l-1.62-3.89c-1-2.52-2.4-6.23-4-11a257.73,257.73,0,0,1-10-40.32,199.35,199.35,0,0,1-1.28-58.75,141.34,141.34,0,0,1,8.2-32.36,133,133,0,0,1,16.48-30.31c6.74-9.46,15.13-17.59,23.86-24.81l6.69-5.21,7-4.62,3.47-2.28,3.59-2,7.12-4c2.54-1.36,4.8-2.3,7.2-3.45,2.53-.95,5-2,7.52-2.85a104.69,104.69,0,0,1,42.8-5.15,57.16,57.16,0,0,1,6.31.77,50.65,50.65,0,0,1,6.05,1.15c1.93.5,3.84.86,5.64,1.44l5.21,1.8a40.94,40.94,0,0,1,4.75,2.06c1.49.74,3,1.31,4.32,2.12,2.61,1.67,5.13,3,7.16,4.59l5.33,4.31c1.45,1.36,2.56,2.65,3.53,3.63l2.89,3.06a2.49,2.49,0,0,1-3.59,3.44l-.23-.24-2.71-2.79c-.9-.9-1.94-2.08-3.29-3.32l-5-3.93c-1.87-1.44-4.23-2.63-6.63-4.16-1.23-.74-2.64-1.25-4-1.92a37.41,37.41,0,0,0-4.41-1.86l-4.87-1.62c-1.68-.53-3.48-.84-5.28-1.29a44.42,44.42,0,0,0-5.61-1,53.76,53.76,0,0,0-6-.68,98.23,98.23,0,0,0-26.44,1.5,95.06,95.06,0,0,0-14,3.78c-2.35.77-4.56,1.79-6.88,2.68-2.28,1.11-4.85,2.24-6.95,3.41l-6.83,3.88-3.44,2-3.31,2.23-6.66,4.51-6.35,5c-8.26,7-16.15,14.78-22.43,23.8a125.87,125.87,0,0,0-15.29,28.83,133.76,133.76,0,0,0-7.46,30.8A191.1,191.1,0,0,0,1230.2,816a248.57,248.57,0,0,0,10,38.89c1.61,4.58,3,8.12,4,10.5l1.53,3.58.08.17a4.36,4.36,0,0,1-8,3.44Z" style="fill:#fff"/></g></g></g></svg>