<svg xmlns="http://www.w3.org/2000/svg" viewBox="0 0 831.21 967.77"><g id="Layer_2" data-name="Layer 2"><g id="Illustration"><path d="M809.31,412.14l-45.78,2.64a433.86,433.86,0,0,0-21.25-101.62L781,284.35c10.58-7.88,14.2-24.51,8.1-37.2L772.82,213.3c-6.13-12.76-19.76-16.82-30.45-9l-38.24,27.89A350.61,350.61,0,0,0,641,156.34l22-46.09c6.32-13.22,2.57-30-8.38-37.43l-29.28-20c-11.07-7.55-25.28-2.92-31.71,10.39l-22.06,45.64a290.17,290.17,0,0,0-91.31-28V28.14C480.28,12.59,469.51,0,456.17,0L420.48,0C407,0,396,12.77,396,28.49V81.78a315.9,315.9,0,0,0-95.7,31.2L276.45,66.1c-7-13.78-22.57-18.42-34.79-10.32L209,77.44c-12.35,8.2-16.6,26.12-9.45,40l24.72,47.95A411.15,411.15,0,0,0,152.52,250L107.8,222.43c-12.68-7.81-28.95-2.5-36.32,11.9L51.81,272.76c-7.42,14.5-3,32.54,9.81,40.25l46.29,27.81A466.82,466.82,0,0,0,82.64,454.11l-55.53,3.21C12.16,458.18,0,472.29,0,488.83v44c0,16.54,12.16,29.09,27.11,28l57-4A425.31,425.31,0,0,0,111.93,664L61.62,700.72c-12.83,9.35-17.23,28-9.81,41.51l19.67,35.9c7.37,13.46,23.64,16.67,36.32,7.24l50.87-37.86a337.34,337.34,0,0,0,70.18,70.42l-29.32,60.65c-7.15,14.78-2.9,32.16,9.45,38.76l32.68,17.47c12.22,6.53,27.78-.11,34.79-14.79l29.06-60.87A288.17,288.17,0,0,0,396,876.26v66c0,15.72,11,27.05,24.49,25.32L456.17,963c13.34-1.7,24.11-15.69,24.11-31.23V866.51a326.38,326.38,0,0,0,86.44-36.63l26.93,52.24c6.43,12.48,20.64,15.28,31.71,6.31l29.28-23.73c11-8.88,14.7-26.1,8.38-38.51L636.9,774.82a418.61,418.61,0,0,0,61.91-79L742.37,722c10.69,6.42,24.32.61,30.45-12.94l16.27-35.94c6.1-13.47,2.48-29.64-8.1-36.16L738.88,611a466.5,466.5,0,0,0,23.41-102.17l47-3.32c12.11-.86,21.9-13.57,21.9-28.39V437.71C831.21,422.88,821.42,411.44,809.31,412.14ZM438.37,675.35c-95.56,8.58-174.81-75.48-174.81-187.93s79.25-206.56,174.81-210.11c93.2-3.46,167.09,80.94,167.09,188.42S531.57,667,438.37,675.35Z" style="fill:#d8dee8"/></g></g></svg>