<svg xmlns="http://www.w3.org/2000/svg" viewBox="0 0 621.28 723.35"><g id="Layer_2" data-name="Layer 2"><g id="Illustration"><path d="M604.9,308.05l-34.21,2a324,324,0,0,0-15.88-75.95l28.93-21.54c7.91-5.88,10.61-18.32,6.06-27.8l-12.16-25.3c-4.59-9.54-14.77-12.58-22.76-6.75L526.3,173.52a262.57,262.57,0,0,0-47.18-56.67L495.57,82.4c4.72-9.88,1.92-22.39-6.27-28L467.41,39.5c-8.27-5.64-18.89-2.18-23.7,7.77L427.23,81.38a216.6,216.6,0,0,0-68.25-21V21c0-11.62-8.05-21-18-21H314.28C304.19,0,296,9.55,296,21.3V61.12a236.37,236.37,0,0,0-71.53,23.32l-17.82-35c-5.24-10.3-16.87-13.76-26-7.71L156.2,57.89C147,64,143.79,77.41,149.14,87.77l18.47,35.84A307.16,307.16,0,0,0,114,186.83L80.58,166.25c-9.48-5.84-21.65-1.87-27.16,8.9l-14.7,28.72c-5.54,10.84-2.25,24.33,7.34,30.09l34.6,20.78a348.15,348.15,0,0,0-18.89,84.68l-41.51,2.4C9.09,342.46,0,353,0,365.37v32.87C0,410.61,9.09,420,20.26,419.19l42.61-3a317.69,317.69,0,0,0,20.79,80.14l-37.6,27.42c-9.59,7-12.88,20.9-7.34,31l14.7,26.83c5.51,10.06,17.68,12.47,27.16,5.41l38-28.3a252,252,0,0,0,52.45,52.64l-21.91,45.33c-5.35,11.05-2.17,24,7.06,29l24.43,13.05c9.13,4.88,20.76-.08,26-11.05l21.72-45.5A215.49,215.49,0,0,0,296,655v49.33c0,11.75,8.21,20.23,18.3,18.93L341,719.8c10-1.28,18-11.73,18-23.35V647.66a243.8,243.8,0,0,0,64.61-27.38l20.12,39.05c4.81,9.32,15.43,11.42,23.71,4.72l21.88-17.74c8.19-6.64,11-19.51,6.27-28.78L476,579.13a313.14,313.14,0,0,0,46.28-59.06l32.56,19.56c8,4.8,18.17.45,22.76-9.68l12.16-26.86c4.55-10.07,1.85-22.15-6.06-27l-31.48-19.38a348.63,348.63,0,0,0,17.51-76.37l35.13-2.49c9.06-.64,16.38-10.14,16.38-21.21V327.16C621.28,316.08,614,307.52,604.9,308.05ZM327.65,504.78C256.23,511.19,197,448.37,197,364.31s59.24-154.39,130.66-157c69.67-2.58,124.89,60.5,124.89,140.84S397.32,498.53,327.65,504.78Z" style="fill:#d8dee8"/></g></g></svg>