<svg xmlns="http://www.w3.org/2000/svg" viewBox="0 0 2504 1496.94"><g style="isolation:isolate"><g id="Layer_2" data-name="Layer 2"><g id="Layer_1-2" data-name="Layer 1"><path d="M1634.42,183.59c-421.35-71.71-959.24,98.62-956.25,528.93C197.06,826.07,155.22,1199.6,268.78,1441.65H2291.84C2533.89,703.55,2055.76,255.31,1634.42,183.59Z" style="fill:#d9e3ff"/><circle cx="421.18" cy="479.43" r="262.97" style="fill:#d9e3ff"/><circle cx="639.32" cy="315.08" r="110.57" transform="translate(-35.54 544.35) rotate(-45)" style="fill:#b1c5fa"/><circle cx="2366.54" cy="873.88" r="137.46" transform="translate(75.22 1929.35) rotate(-45)" style="fill:#b1c5fa"/><path d="M2011.61,1434.78c-164.46-300.42,193-569.27,320.52-574.81,144,298.48-160.26,588.76-160.26,588.76Z" style="fill:#6b72de"/><path d="M2171.87,1448.73s304.3-290.28,160.26-588.76c-151.68,280.67-236.14,472.18-278.83,578.44Z" style="fill:#949bf7"/><path d="M2191.29,1414.52c14.41-117.86,67.73-223.28,225.49-235.9,81.58,142.93-134.53,269.92-134.53,269.92Z" style="fill:#6b72de"/><path d="M2282.25,1448.54s216.11-127,134.53-269.92c0,0-133.92,169.39-194,247.67Z" style="fill:#949bf7"/><g style="mix-blend-mode:multiply"><rect x="1647.13" y="768.42" width="570.1" height="461.05" style="fill:#a19dbf"/></g><rect x="1618.43" y="781.82" width="570.1" height="461.05" style="fill:#b0c5ff"/><g style="mix-blend-mode:multiply"><rect x="1730.66" y="1195.68" width="628.77" height="112.23" style="fill:#9dbfbd"/></g><rect x="1712.81" y="1174" width="628.77" height="112.23" style="fill:#feb44a"/><rect x="1738.95" y="1211.3" width="576.48" height="37.62" style="fill:#fe894a"/><rect x="1954.18" y="1211.3" width="361.25" height="37.62" style="fill:#fff"/><rect x="1934.09" y="1195.04" width="43.04" height="68.87" style="fill:#6b72de"/><circle cx="1903.48" cy="1012.34" r="99.48" transform="translate(-158.32 1642.47) rotate(-45)" style="fill:#6b72de"/><path d="M1877.84,1041.26V981.51c0-6.78,5.79-11.26,10.83-8.37l53.3,30.52c5.87,3.36,5.8,13.56-.11,16.81l-53.3,29.23C1883.53,1052.46,1877.84,1048,1877.84,1041.26Z" style="fill:#fff"/><rect x="898.47" y="339.89" width="737.5" height="1076.11" rx="48.78" style="fill:#423dd6"/><rect x="949.81" y="339.89" width="737.5" height="1076.11" rx="48.78" style="fill:#6865eb"/><rect x="969.36" y="359.45" width="698.38" height="1037" rx="29.23" style="fill:#8f8cff"/><rect x="988.92" y="420.24" width="659.27" height="915.41" rx="9.67" style="fill:#fff"/><path d="M536.94,1261.87a5,5,0,0,0,.93-.09,4.89,4.89,0,0,0,3.87-5.73c-41.83-216.39-90.93-359.12-159.18-462.81-39.11-59.41-84.07-105.13-137.45-139.76C189.19,617.21,125.53,594,50.48,582.57A4.89,4.89,0,1,0,49,592.23c303.11,46.24,412.36,299.55,483.14,665.68A4.9,4.9,0,0,0,536.94,1261.87Z" style="fill:#6b72de"/><path d="M316.3,716.21C301,592.5,169.63,507.05,0,558.06,100.76,731.52,230.85,726.42,316.3,716.21Z" style="fill:#949bf7"/><path d="M316.3,716.21C221.92,632,88,577.2,0,558.06,169.63,507.05,301,592.5,316.3,716.21Z" style="fill:#6b72de"/><path d="M640.3,1420.62c123.58-319.42-266-539-393.23-527.73-103.59,314.81,236.2,562.6,236.2,562.6Z" style="fill:#6b72de"/><path d="M483.27,1455.49s-339.79-247.79-236.2-562.6c187.22,258.32,296.11,437.06,352.39,536.8Z" style="fill:#949bf7"/><path d="M459.52,1424.14c-29.76-115-96.47-212.45-254.53-204.24-62.09,152.4,168.83,249.91,168.83,249.91Z" style="fill:#6b72de"/><path d="M373.82,1469.81S142.9,1372.3,205,1219.9c0,0,155,150.33,224.9,220Z" style="fill:#949bf7"/><path d="M1973.36,1437c-7.18-88.07-43.67-168-160.59-182.17-64.94,103.83,91.94,204.73,91.94,204.73Z" style="fill:#6b72de"/><path d="M1904.71,1459.57s-156.88-100.9-91.94-204.73c0,0,94.5,130,136.86,190Z" style="fill:#949bf7"/><path d="M619.36,1427.11c.56-118.73,41.22-229.65,196.43-260.6,3.65,193.14-102.12,283.78-102.12,283.78Z" style="fill:#949bf7"/><path d="M713.67,1450.29S881.93,1366,815.79,1166.51c0,0-113.25,183.87-163.82,268.62Z" style="fill:#6b72de"/><rect x="220.97" y="1416.25" width="2118.68" height="80.68" rx="33" style="fill:#b1c5fa"/><g style="mix-blend-mode:multiply"><rect x="585.36" y="1006.92" width="396.65" height="363.49" rx="24.23" style="fill:#a19dbf"/></g><rect x="557.3" y="973.76" width="396.65" height="363.49" rx="9.91" style="fill:#fff"/><path d="M843.75,1120.32c0,48.67-39.45,158.5-88.12,158.5S667.5,1169,667.5,1120.32a88.13,88.13,0,1,1,176.25,0Z" style="fill:#feb44a"/><circle cx="755.63" cy="1120.32" r="45.44" style="fill:#fff"/><path d="M1209,950.17c-115.74,115.74-156.87,149.22-148.27,305.13,0,40.18-9.56,77.48-9.56,77.48h548.1c1.91-176-95.66-323.31-149.22-382.61Z" style="fill:#423dd6"/><path d="M610.71,534.71c-11.27-27.83-17.44-51-17.12-64.27s.65-32.67-13.74-45.35S563,359.65,563,359.65c-14-2.89-19.67,13-19.3,28.82s6.85,25.71-4.12,25.88-73.65-55.27-88.36-54.66,3.8,28.73-.86,27.77c-27-10.43-34.76-2.31-31.57,11.71-8.26,16.52,15.14,44.43,15.14,44.43-12.58-3.81-23.55-3.64-17.31,7.37s83.9,58.59,107.65,67.13,42.19,48.79,42.19,48.79Z" style="fill:#ff8762"/><g style="mix-blend-mode:multiply"><path d="M499.76,474.74a1.14,1.14,0,0,0,.63-.05c.12,0,12.75-4.48,44.37,2.64a1.31,1.31,0,0,0,1.06-.3,1.16,1.16,0,0,0,.31-1.06c-.06-.26-5.81-26.69,5.13-51.06a1.14,1.14,0,0,0-2.08-.93c-9.62,21.43-6.7,44.37-5.61,50.76-31.28-6.71-43.47-2.38-44-2.18a1.13,1.13,0,0,0-.67,1.46A1.15,1.15,0,0,0,499.76,474.74Z" style="fill:#e0b3a8"/></g><g style="mix-blend-mode:multiply"><path d="M477.52,437.57l1.27-1.89-50.74-33.85a1.14,1.14,0,0,0-1.26,1.9Z" style="fill:#e0b3a8"/></g><g style="mix-blend-mode:multiply"><path d="M476.17,447.71a1.14,1.14,0,0,0,1.31-.75A87.68,87.68,0,0,1,487.37,428a1.13,1.13,0,0,0-.29-1.58,1.15,1.15,0,0,0-1.59.29,88.65,88.65,0,0,0-10.17,19.47,1.14,1.14,0,0,0,.72,1.45Z" style="fill:#e0b3a8"/></g><g style="mix-blend-mode:multiply"><path d="M483.88,416.19a1.14,1.14,0,0,0,.9-2C484.63,414,469.37,403,457.91,392a1.14,1.14,0,0,0-1.58,1.65A294.14,294.14,0,0,0,483.45,416,1,1,0,0,0,483.88,416.19Z" style="fill:#e0b3a8"/></g><g style="mix-blend-mode:multiply"><path d="M464.17,455.86a1.14,1.14,0,0,0,.74-2.13c-.12-.07-13.12-6.69-23.91-10.13a1.15,1.15,0,0,0-1.43.74,1.13,1.13,0,0,0,.74,1.43c10.61,3.38,23.44,9.93,23.57,10A1,1,0,0,0,464.17,455.86Z" style="fill:#e0b3a8"/></g><path d="M1217.64,529.25c-62.18,3.23-73.66,31.28-145.08,68.27s-298.44,102-454-79.07C599.39,529.93,550.93,572,550.93,572c21.68,68.87,155,368.59,602.62,251.89,61.22,61.22,68.87,82.27,63.13,97.57a152.89,152.89,0,0,0-7.65,28.7h241c-5.74-17.22,15.3-84.18,15.3-84.18,13.39,36.35,30.61,122.44,112.87,126.26s86.09-191.3,52.61-264-79.39-86.09-87-88c-51.65-47.83-97.57-97.57-126.27-107.14s-57.39-7.65-57.39-7.65S1262.6,554.08,1217.64,529.25Z" style="fill:#feb44a"/><path d="M1692.08,557.51c-8.61,35.87-14.35,70.3-33.48,96.61s-30.61,49.74-27.74,74.13c-47.82,19.13-82.26-6.7-82.26-6.7,4.78-17.69,0-46.39-8.61-63.13s-7.65-34-5.26-60.74-4.78-57.39-14.35-65.52c8.61-12.92,24.87-10.52,30.61-2.39s36.83,33.47,38.74,34.43,52.61,1.44,57.4-.48S1692.08,557.51,1692.08,557.51Z" style="fill:#ff7557"/><path d="M1530.43,405.47c16.92,48.17,22.34,133.16,24.07,186,.86,26.21,16,46.81,34.45,46.81h0c16.57,0,30.84-16.77,33.9-39.94C1636,498.87,1627,423.18,1627,423.18Z" style="fill:#474fc4"/><path d="M1303.73,297.7a2.45,2.45,0,0,1-2.24-1.47c-.3-.68-.64-1.55-1-2.59-2.5-6.5-7.68-20-22.36-30.17a2.45,2.45,0,0,1,2.78-4c15.92,11,21.47,25.49,24.14,32.45.37.95.67,1.76,1,2.38a2.46,2.46,0,0,1-2.24,3.43Z" style="fill:#2b1710"/><path d="M1206.42,243.19c-53.6,18.08-49.89,81.22-50.91,114.69s-128.27,52.38-73,155.79l327.13.59c25-61.17,40.38-112.8,15.59-158.76s10.68-87-.72-126.26S1321.34,165.92,1206.42,243.19Z" style="fill:#2b1710"/><path d="M1279.16,436.68c-52.65,16.34-90.43-29.73-79.86-71.21-14.81-80.23,9.39-164.22,135.85-136.59,61.1-.24,94.53,76.32,47.71,103.37C1324.61,399,1279.16,436.68,1279.16,436.68Z" style="fill:#2b1710"/><path d="M1331.39,461.47c-.85,23-6.21,46.69,28.52,64.18,23.67,134-141.06,18.62-142.53,3.53-.24-1.88,26.84,1.53,34.47-17.12s6-76.45-5.39-135.16c23.81,3.14,29.43-16.21,25.84-47.74s5-83.74,67.06-83.63c26.66,25.22,41.17,41.49,44,78.38s10.27,62.35,8.14,80.45C1389.43,422.26,1374.73,456.83,1331.39,461.47Z" style="fill:#ff8762"/><path d="M1249.49,228.18a2.45,2.45,0,0,1-1-4.69l5.23-2.28c80-35,137.85-60.21,177-2.91a2.45,2.45,0,0,1-4,2.76c-36.84-54-90.2-30.65-171,4.63l-5.23,2.28A2.43,2.43,0,0,1,1249.49,228.18Z" style="fill:#2b1710"/><path d="M1422.42,514.81a2.44,2.44,0,0,1-1.82-4.06c31.58-35.7,33.8-122,11.55-155.8-19.84-30.17-19.37-35.3-16.37-68.72.45-5,1-10.58,1.46-17a2.45,2.45,0,1,1,4.88.38c-.51,6.46-1,12.1-1.47,17.08-3,33.37-3.32,36.85,15.59,65.59,23.38,35.54,21.7,123.66-12,161.73A2.43,2.43,0,0,1,1422.42,514.81Z" style="fill:#2b1710"/><path d="M1465.93,437.73a2.45,2.45,0,0,1-2.44-2.29c-5-79.95-56.55-136.39-57.07-136.91a2.44,2.44,0,1,1,3.46-3.45c.54.53,53.33,57,58.49,140.06a2.45,2.45,0,0,1-2.29,2.59Z" style="fill:#2b1710"/><path d="M1059,502.68a2.45,2.45,0,0,1-2-1.12c-11.65-18.06-14.61-38.22-8.55-58.3,7.76-25.69,30.34-49.4,58.94-61.88,40.29-17.57,41.58-23.86,50-64.82,1.05-5.09,2.2-10.69,3.55-16.9a2.45,2.45,0,0,1,4.78,1c-1.35,6.18-2.5,11.76-3.54,16.84-8.49,41.16-10.26,49.73-52.86,68.31-27.33,11.92-48.87,34.46-56.22,58.81-5.63,18.67-2.87,37.42,8,54.24a2.45,2.45,0,0,1-.73,3.38A2.48,2.48,0,0,1,1059,502.68Z" style="fill:#2b1710"/><path d="M1084.08,361.15a2.44,2.44,0,0,1-.1-4.88c52-2.36,81.24-68.5,81.53-69.16a2.45,2.45,0,1,1,4.49,1.94c-1.23,2.84-30.7,69.61-85.8,72.1Z" style="fill:#2b1710"/><path d="M1695.39,557c.3,7.25-22.34,14.1-50.58,15.3s-51.38-3.72-51.68-11,22.33-14.11,50.57-15.3S1695.08,549.76,1695.39,557Z" style="fill:#ff8762"/><ellipse cx="1645.21" cy="580.7" rx="51.18" ry="13.15" transform="translate(-23.09 70.1) rotate(-2.42)" style="fill:#ff8762"/><ellipse cx="1647.13" cy="606.05" rx="51.18" ry="13.15" transform="translate(-24.16 70.2) rotate(-2.42)" style="fill:#ff8762"/><ellipse cx="1645.69" cy="629.01" rx="51.18" ry="13.15" transform="translate(-25.13 70.16) rotate(-2.42)" style="fill:#ff8762"/><path d="M1186.71,694.34h-.27a2.45,2.45,0,0,1-2.16-2.7c.09-.86,9.25-86.86-12-145.57a2.45,2.45,0,1,1,4.6-1.66c21.63,59.78,12.35,146.9,12.25,147.77A2.44,2.44,0,0,1,1186.71,694.34Z" style="fill:#fe894a"/><path d="M1466,858.23l-.35,0a2.45,2.45,0,0,1-2.07-2.77c.24-1.63,6-40.23,18.74-65.18,15.15-29.55,11.76-58.75-10.69-91.89C1447,662,1421.92,605,1425.32,554a2.45,2.45,0,1,1,4.88.32c-3.32,49.77,21.32,105.63,45.5,141.31,23.55,34.78,27,65.55,11,96.87-12.42,24.21-18.19,63.25-18.25,63.64A2.44,2.44,0,0,1,1466,858.23Z" style="fill:#fe894a"/><path d="M1506.19,898.41a2.44,2.44,0,0,1-2.34-1.77c-13.51-46.73,9.3-100.12,27.63-143,4.65-10.89,9-21.17,12.6-30.7a2.44,2.44,0,1,1,4.58,1.71c-3.6,9.63-8,20-12.69,30.91-18,42.18-40.44,94.67-27.43,139.73a2.44,2.44,0,0,1-1.67,3A2.24,2.24,0,0,1,1506.19,898.41Z" style="fill:#fe894a"/><path d="M1369.73,1326.62l-.28,0a2.44,2.44,0,0,1-2.15-2.7l17.22-152.09a2.44,2.44,0,0,1,2-2.13c.2,0,20.74-3.84,32.63-11.16,7-6.36.21-107.54-9.75-199.48a2.44,2.44,0,0,1,4.86-.53c0,.49,5.3,49.15,9,98.13,7.53,100.49,1.19,104.38-1.51,106-10.68,6.57-27.1,10.33-32.54,11.45l-17,150.31A2.44,2.44,0,0,1,1369.73,1326.62Z" style="fill:#4642e6"/><path d="M1141.78,1094.63a167.42,167.42,0,0,1-27.86-2.4,2.44,2.44,0,0,1,.82-4.82c100,16.83,150.35-58.8,159.79-113.74a2.44,2.44,0,1,1,4.82.82c-5.86,34.08-24,66.29-49.84,88.37C1211.57,1078.21,1182.78,1094.63,1141.78,1094.63Z" style="fill:#4642e6"/><path d="M739.68,432.84a3.67,3.67,0,0,1-2.51-6.34l110.1-103.85L765.86,184.88a3.67,3.67,0,0,1,6.32-3.73l82.9,140.3a3.66,3.66,0,0,1-.65,4.53L742.2,431.84A3.69,3.69,0,0,1,739.68,432.84Z" style="fill:#fe894a"/><path d="M857.66,323.15a3.67,3.67,0,0,1-2.32-6.51l155-126.26a3.66,3.66,0,1,1,4.63,5.68L860,322.33A3.67,3.67,0,0,1,857.66,323.15Z" style="fill:#fe894a"/><circle cx="732.03" cy="105.86" r="105.86" transform="translate(139.55 548.63) rotate(-45)" style="fill:#feb44a"/><circle cx="732.03" cy="60.58" r="22.96" transform="translate(504.89 759.11) rotate(-76.72)" style="fill:#423dd6"/><path d="M732,96.29a37,37,0,0,0-37,37v71.78a106.17,106.17,0,0,0,74,0V133.28A37,37,0,0,0,732,96.29Z" style="fill:#423dd6"/><circle cx="1036.85" cy="167.08" r="74.61" transform="translate(705.85 1163.78) rotate(-80.78)" style="fill:#feb44a"/><circle cx="1036.85" cy="135.16" r="16.18" transform="translate(737.35 1136.98) rotate(-80.78)" style="fill:#423dd6"/><path d="M1036.85,160.33a26.07,26.07,0,0,0-26.07,26.07V237a74.8,74.8,0,0,0,52.14,0V186.4A26.07,26.07,0,0,0,1036.85,160.33Z" style="fill:#423dd6"/><circle cx="851.28" cy="320.76" r="52.29" transform="translate(343.52 1075.57) rotate(-76.72)" style="fill:#feb44a"/><circle cx="741.6" cy="424.07" r="26.15" transform="translate(158.49 1048.4) rotate(-76.72)" style="fill:#feb44a"/></g></g></g></svg>