<svg xmlns="http://www.w3.org/2000/svg" viewBox="0 0 416.97 354.66"><g id="Layer_2" data-name="Layer 2"><g id="Layer_1-2" data-name="Layer 1"><path d="M85.42,284.16l-33.14,6.65A43.69,43.69,0,0,1,.86,256.57h0A43.68,43.68,0,0,1,35.1,205.15l33.14-6.65a43.68,43.68,0,0,1,51.42,34.24h0A43.69,43.69,0,0,1,85.42,284.16Z" style="fill:#474fc4"/><path d="M34,191.39C121.29,145.25,170.58,66.75,170.58,66.75L284.06,350.32C154.21,285,76.93,298.54,76.93,298.54,34.28,293.44,23.85,215.54,34,191.39Z" style="fill:#6b72de"/><ellipse cx="282.36" cy="177.33" rx="132.48" ry="178.87" transform="translate(-29.37 59.01) rotate(-11.34)" style="fill:#474fc4"/><ellipse cx="282.36" cy="177.33" rx="122.7" ry="169.1" transform="translate(-29.37 59.01) rotate(-11.34)" style="fill:#fe894a"/><path d="M162.05,201.47c7.55,37.6,23.66,70.48,44.62,95.24L292.52,228,272.2,126.68,158.36,137.92A224.8,224.8,0,0,0,162.05,201.47Z" style="fill:#c0c3fc"/><ellipse cx="282.36" cy="177.33" rx="37.48" ry="51.65" transform="translate(-29.37 59.01) rotate(-11.34)" style="fill:#fff"/></g></g></svg>