<svg xmlns="http://www.w3.org/2000/svg" viewBox="0 0 297.06 222.97"><g id="Layer_2" data-name="Layer 2"><g id="OBJECTS"><path d="M69.22,42.08C62.1,52.48,58,64.87,49.67,74.34,40.51,84.77,27.18,90.58,16.9,99.91c-17.1,15.53-23.52,44.55-8.37,62C26.31,182.37,60,176.23,83.77,189.26c16.69,9.15,28,27.58,46.44,32.46,14,3.73,28.91-1.48,41.72-8.33s24.89-15.51,38.88-19.45c22.31-6.29,48.56-.44,67.3-14.09,18.14-13.22,21.05-39.26,17.8-61.47-3.07-20.88-11.08-42.47-28.27-54.72-13.77-9.81-31.43-12.28-46.41-20.11-16-8.35-28.18-22.38-42.84-32.88C143.07-14.62,92,8.76,69.22,42.08Z" style="fill:#dae1fa"/><path d="M9.53,105.58c-.22,24.49,14,49.82,37.05,58,8.3,2.95,17.33,3.68,25.36,7.28,16.5,7.4,26.3,25.67,43.06,32.43,14.66,5.92,31.41,1.71,46-4.42s28.71-14.19,44.4-16.17c10.19-1.28,20.53.09,30.78-.47s21.12-3.53,27.64-11.47c8.73-10.61,6.91-26.3,2.67-39.38A141.08,141.08,0,0,0,210.88,58c-18.09-12-38.81-19.71-60-24.61-24.71-5.72-50.62-7.66-75.75-3.59C64.2,31.61,49.49,33.9,40,40c-8.52,5.48-15.26,17.59-19.9,26.35C13.7,78.44,9.65,91.86,9.53,105.58Z" style="fill:#ebeefa"/><path d="M223.85,62a.66.66,0,0,0-.44.21c-.33,0-.67,0-1,0a3.25,3.25,0,0,0-.1-1.16,3.14,3.14,0,0,0-.4-.94c.52-.47,1-1,1.51-1.47l.17,0a.62.62,0,0,0,.59-.65.62.62,0,1,0-1.23.06.59.59,0,0,0,0,.13c-.47.48-.95,1-1.44,1.4a3.6,3.6,0,0,0-1.25-.9c0-.26.09-.52.14-.78a.62.62,0,0,0-.27-1.19.61.61,0,0,0-.59.65.64.64,0,0,0,.23.45l-.12.67a3.57,3.57,0,0,0-2.4.37l-1.2-1.73a.72.72,0,0,0,.06-.29.62.62,0,0,0-.65-.59.62.62,0,1,0,.06,1.24h0l1.19,1.72A3.55,3.55,0,0,0,215.49,61l-1.51-.2a.61.61,0,0,0-.59-.37.62.62,0,0,0-.59.65.61.61,0,0,0,.64.59.6.6,0,0,0,.46-.24l1.46.19a3.06,3.06,0,0,0,.07,1.08,3.33,3.33,0,0,0,.77,1.4c-.47.39-.93.8-1.39,1.21a.64.64,0,0,0-.28-.06.62.62,0,0,0-.59.65.62.62,0,0,0,.64.59.63.63,0,0,0,.6-.65h0q.73-.67,1.5-1.32a3.47,3.47,0,0,0,.84.47,3.64,3.64,0,0,0,1.85.17c.23.49.48,1,.73,1.45a1.23,1.23,0,0,0,0,.19.62.62,0,0,0,.64.6.63.63,0,0,0,.6-.65.62.62,0,0,0-.65-.59h-.08c-.21-.38-.41-.77-.59-1.16a4,4,0,0,0,.64-.27,3.38,3.38,0,0,0,1.63-1.84h1a.62.62,0,1,0,.55-.85Z" style="fill:#9ea6fa"/><path d="M216.73,63.85a2.85,2.85,0,0,0,2.58.81c.22,0,.47-.16.5-.38a.46.46,0,0,0-.2-.42,3,3,0,0,0-.44-.22,1.81,1.81,0,0,1-.73-.67,5.7,5.7,0,0,1-.43-1.22c-.23-.74-1.36-1.79-1.93-.7A2.89,2.89,0,0,0,216.73,63.85Z" style="fill:#8f98fa"/><path d="M221.17,61.21a.51.51,0,0,0,.16-.25c.24-.87-1-2.34-1.78-1.41C219,60.14,220.8,61.5,221.17,61.21Z" style="fill:#aab2fa"/><path d="M35.93,161.75a.59.59,0,0,0-.44.2c-.33,0-.67,0-1,0a3.08,3.08,0,0,0-.09-1.17,3.25,3.25,0,0,0-.4-.94c.52-.47,1-1,1.51-1.47a.47.47,0,0,0,.17,0,.61.61,0,0,0,.59-.64.62.62,0,0,0-.65-.6.63.63,0,0,0-.59.65c0,.05,0,.09,0,.13-.46.48-.94,1-1.44,1.4a3.7,3.7,0,0,0-1.24-.9c0-.26.08-.52.14-.78a.62.62,0,1,0-.86-.54.57.57,0,0,0,.23.45c-.05.23-.08.45-.12.68a3.51,3.51,0,0,0-2.4.37l-1.2-1.74a.67.67,0,0,0,.06-.28.62.62,0,0,0-.65-.59.62.62,0,1,0,.06,1.23h0L28.82,159a3.55,3.55,0,0,0-1.25,1.73l-1.51-.2a.62.62,0,0,0-1.19.28.62.62,0,0,0,.65.59.59.59,0,0,0,.46-.24l1.45.19a3.33,3.33,0,0,0,.08,1.08,3.22,3.22,0,0,0,.77,1.4L26.89,165a.54.54,0,0,0-.28,0,.62.62,0,1,0,.64.59h0c.49-.45,1-.88,1.51-1.31a3.26,3.26,0,0,0,.84.46,3.6,3.6,0,0,0,1.84.17c.24.5.48,1,.74,1.45a.44.44,0,0,0,0,.2.62.62,0,1,0,.59-.65h-.08c-.21-.38-.41-.76-.6-1.15a3.61,3.61,0,0,0,.64-.27,3.38,3.38,0,0,0,1.64-1.85c.34,0,.69,0,1,0a.62.62,0,0,0,.6.39.62.62,0,0,0,0-1.23Z" style="fill:#9ea6fa"/><path d="M28.81,163.57a2.82,2.82,0,0,0,2.58.81c.22,0,.46-.15.5-.37a.46.46,0,0,0-.2-.42,3,3,0,0,0-.44-.23,1.73,1.73,0,0,1-.73-.66,5.78,5.78,0,0,1-.43-1.23c-.24-.74-1.37-1.78-1.93-.7A2.88,2.88,0,0,0,28.81,163.57Z" style="fill:#8f98fa"/><path d="M33.25,160.94a.53.53,0,0,0,.15-.26c.25-.87-.95-2.33-1.77-1.41C31.1,159.86,32.88,161.22,33.25,160.94Z" style="fill:#aab2fa"/><path d="M121.47,35.34a1.22,1.22,0,0,0-.93.26c-.67-.09-1.33-.2-2-.32a6.35,6.35,0,0,0,.22-2.34,6.91,6.91,0,0,0-.49-2c1.19-.76,2.36-1.55,3.5-2.39a1.15,1.15,0,0,0,.33.1,1.24,1.24,0,0,0,.31-2.47A1.24,1.24,0,0,0,121,27.27a1.13,1.13,0,0,0,0,.26c-1.08.8-2.2,1.56-3.33,2.28a7.27,7.27,0,0,0-2.15-2.2c.17-.5.35-1,.54-1.5a1.24,1.24,0,1,0-1.52-1.37,1.26,1.26,0,0,0,.3,1c-.16.43-.31.86-.46,1.29a7,7,0,0,0-4.87-.08l-1.78-3.85a1.42,1.42,0,0,0,.21-.54,1.24,1.24,0,0,0-2.47-.31,1.24,1.24,0,0,0,1.08,1.39h0l1.77,3.81a7.18,7.18,0,0,0-3.06,3l-2.93-.91a1.22,1.22,0,0,0-1-.92,1.24,1.24,0,1,0-.31,2.46,1.21,1.21,0,0,0,1-.32l2.81.87a6.16,6.16,0,0,0-.22,2.16,6.44,6.44,0,0,0,1.05,3c-1.07.63-2.12,1.27-3.16,1.93a1.16,1.16,0,0,0-.54-.21A1.24,1.24,0,1,0,103,39.9h0c1.13-.72,2.27-1.42,3.42-2.09A6.71,6.71,0,0,0,108,39a7.44,7.44,0,0,0,3.59,1c.29,1.05.62,2.08,1,3.11a1.21,1.21,0,0,0-.12.38,1.25,1.25,0,0,0,1.08,1.39,1.24,1.24,0,1,0,.31-2.46h-.17c-.27-.82-.54-1.65-.77-2.49a8.94,8.94,0,0,0,1.36-.31,6.83,6.83,0,0,0,3.85-3.1c.69.13,1.37.24,2,.34a1.24,1.24,0,1,0,1.37-1.49Z" style="fill:#9ea6fa"/><path d="M106.78,36.53A5.64,5.64,0,0,0,111.6,39c.45,0,1-.15,1.12-.57a.91.91,0,0,0-.26-.9,6.76,6.76,0,0,0-.79-.59,3.48,3.48,0,0,1-1.21-1.57,11,11,0,0,1-.44-2.56c-.21-1.55-2.09-4-3.58-2C105.31,32.25,105.85,35.12,106.78,36.53Z" style="fill:#8f98fa"/><path d="M116.45,32.82a.9.9,0,0,0,.39-.45c.79-1.64-1.09-4.94-3-3.39C112.57,30,115.63,33.26,116.45,32.82Z" style="fill:#aab2fa"/></g></g></svg>