<svg xmlns="http://www.w3.org/2000/svg" xmlns:xlink="http://www.w3.org/1999/xlink" viewBox="0 0 212.07 129.86"><defs><linearGradient id="Безымянный_градиент_22" x1="197.16" y1="-0.72" x2="228.66" y2="261.51" gradientTransform="matrix(-1, 0, 0, 1, 264.79, 0)" gradientUnits="userSpaceOnUse"><stop offset="0" stop-color="#ffba00"/><stop offset="1" stop-color="#ff9500"/></linearGradient><linearGradient id="linear-gradient" x1="141.19" y1="89.81" x2="141.19" y2="83.45" gradientTransform="matrix(-1, 0, 0, 1, 264.79, 0)" gradientUnits="userSpaceOnUse"><stop offset="0" stop-color="#5b9823"/><stop offset="0" stop-color="#5b9823"/><stop offset="0.23" stop-color="#65a624"/><stop offset="0.51" stop-color="#6baf25"/><stop offset="1" stop-color="#6db125"/></linearGradient></defs><g id="Layer_2" data-name="Layer 2"><g id="OBJECTS"><path d="M186,70.24,166.92,54.77H131.61a3.19,3.19,0,0,0-2.23.9,91.19,91.19,0,0,0,33,12.45A142.07,142.07,0,0,0,186,70.24Z" style="fill:#bbc7fa"/><path d="M162.37,68.12a91.19,91.19,0,0,1-33-12.45,3.22,3.22,0,0,0-1,2.31V73.4a3.21,3.21,0,0,0,3.21,3.21H193.9L186,70.24A142.07,142.07,0,0,1,162.37,68.12Z" style="fill:#cdd5fa"/><path d="M15.42,95.12H10.75a3.41,3.41,0,0,0-3.4,3.41v4.58a3.41,3.41,0,0,0,3.4,3.41h4.67Z" style="fill:#ff2e5f"/><path d="M10,96.48h5.42a0,0,0,0,1,0,0v3.93a0,0,0,0,1,0,0H10a.75.75,0,0,1-.75-.75V97.23A.75.75,0,0,1,10,96.48Z" style="fill:#ff577d"/><path d="M15.42,98H10.19a.47.47,0,0,1-.47-.47h0a.47.47,0,0,1,.47-.48h5.23Z" style="fill:#ffb0c3"/><path d="M15.42,99.87H10.19a.47.47,0,0,1-.47-.48h0a.47.47,0,0,1,.47-.47h5.23Z" style="fill:#ffb0c3"/><path d="M10,101.23h5.42a0,0,0,0,1,0,0v3.93a0,0,0,0,1,0,0H10a.75.75,0,0,1-.75-.75V102A.75.75,0,0,1,10,101.23Z" style="fill:#ff577d"/><path d="M15.42,102.72H10.19a.47.47,0,0,1-.47-.48h0a.47.47,0,0,1,.47-.47h5.23Z" style="fill:#ffb0c3"/><path d="M15.42,104.62H10.19a.48.48,0,0,1-.47-.48h0a.47.47,0,0,1,.47-.47h5.23Z" style="fill:#ffb0c3"/><path d="M11.73,100.46A18.91,18.91,0,0,0,15.42,103V95.12H10.75A3.38,3.38,0,0,0,8.18,96.3,18.86,18.86,0,0,0,11.73,100.46Z" style="fill:#fff;opacity:0.39"/><path d="M2.84,0H121a2.85,2.85,0,0,1,2.84,2.85v88A2.84,2.84,0,0,1,121,93.73H2.84A2.84,2.84,0,0,1,0,90.88v-88A2.85,2.85,0,0,1,2.84,0Z" style="fill:url(#Безымянный_градиент_22)"/><path d="M3.9,1.45H119a2.75,2.75,0,0,1,2.76,2.76V5.74A2.76,2.76,0,0,0,119,3H3.9A2.76,2.76,0,0,0,1.14,5.74V4.21A2.75,2.75,0,0,1,3.9,1.45Z" style="fill:#fff"/><rect x="11.86" y="93.7" width="111.69" height="20.89" style="fill:#333"/><path d="M94.53,94.17h25.65a1.58,1.58,0,0,1,1.42,1.7V113a1.58,1.58,0,0,1-1.42,1.7H94.53a1.57,1.57,0,0,1-1.41-1.7V95.87A1.57,1.57,0,0,1,94.53,94.17Z" style="fill:#525252"/><rect x="113.79" y="94.17" width="2.22" height="20.51" style="fill:#878787"/><rect x="98.71" y="94.17" width="2.22" height="20.51" style="fill:#878787"/><path d="M107.36,99.45a2.41,2.41,0,1,1-2.5,2.4A2.44,2.44,0,0,1,107.36,99.45Z" style="fill:#333"/><path d="M107.36,99a2.41,2.41,0,1,1-2.41,2.41A2.4,2.4,0,0,1,107.36,99Z" style="fill:#ccc"/><path d="M107.36,99.62a1.81,1.81,0,1,1-1.81,1.81A1.81,1.81,0,0,1,107.36,99.62Z" style="fill:#e6e6e6"/><rect x="123.55" y="83.06" width="71.11" height="5.8" style="fill:#a2c30d"/><path d="M159.85,78.36h0a1.13,1.13,0,0,0,1.4-.76l3.25-11a1.12,1.12,0,0,0-.75-1.39h0a1.11,1.11,0,0,0-1.39.75L159.1,77A1.12,1.12,0,0,0,159.85,78.36Z" style="fill:#0d0d0d"/><path d="M142,73.09a6.26,6.26,0,0,1,3-3.61,5.91,5.91,0,0,1,2.15-.53,7.48,7.48,0,0,1,7.29,4,12,12,0,0,1,.84,3.67q.21,2,.3,4a9.08,9.08,0,0,0-3.79-.26,20.77,20.77,0,0,1-7.8-1.57c-.61-.23-1.22-.48-1.83-.73-.79-.32-.86-.3-.83-1.17A12.77,12.77,0,0,1,142,73.09Z" style="fill:#7672f2"/><path d="M163.17,72.3l-2.83.71-1.59,2.52-1.12-2.2,2.66-2.84,3.57-1.4a.3.3,0,0,1,.39.37l-.87,2.64A.28.28,0,0,1,163.17,72.3Z" style="fill:#f2b18b"/><path d="M148.1,65.54l.34-1.05,2.89,2.5-.19,1.4a6.74,6.74,0,0,1-1.79-.81A3.65,3.65,0,0,1,148.1,65.54Z" style="fill:#f2947a"/><path d="M146.73,69.85l1.37-4.31a3.65,3.65,0,0,0,1.25,2,6.74,6.74,0,0,0,1.79.81l-.44,3.13Z" style="fill:#f2b18b"/><path d="M152,71.94c-.29.66-1.87.61-3.53-.12S145.71,70,146,69.29s1.88-.6,3.54.13S152.3,71.28,152,71.94Z" style="fill:#f2b18b"/><path d="M154,67.18a2.51,2.51,0,0,0,1.19-.77c.77-2.81-3.14-8.31-3.14-8.31l-2.86-.18L146.68,61l1.25,4.16a3.54,3.54,0,0,0,2.4,2.34h0A7,7,0,0,0,154,67.18Z" style="fill:#f2b18b"/><path d="M155.87,60.44a3.6,3.6,0,0,1-1.74,1.21,9.08,9.08,0,0,1-2.73.55c-.48,0-1.09-.1-1.18-.57s.24-.7.53-.94a19.15,19.15,0,0,1,2-1.43c.62-.37,2-1.21,2.79-.9S156.27,59.84,155.87,60.44Z" style="fill:#151852"/><path d="M146,64.74a.94.94,0,0,0,1.09.4.92.92,0,0,0-.49,1,1.24,1.24,0,0,0,.86,1.06,1.28,1.28,0,0,0,1.31-.64,2.84,2.84,0,0,0,.31-1.52c0-1.07-.55-3.05-2-3C145.94,62.18,145.43,63.89,146,64.74Z" style="fill:#151852"/><path d="M146,64.34c-.15-.08-.77-.11.81-1.52a25.36,25.36,0,0,1,7.72-5c.91-.37,2.33-.43,1.1.77a21.13,21.13,0,0,1-4.18,3.09A26.77,26.77,0,0,1,146,64.34Z" style="fill:#ef4d41"/><path d="M145.63,64.23s-2-2.81-1.06-4.74,2.52-3.05,3.45-3.16a4.75,4.75,0,0,1,3.87,1.17c1.58,1.28,1.75,1.28,1.75,1.28a57.34,57.34,0,0,1-4.5,3.63A25.07,25.07,0,0,1,145.63,64.23Z" style="fill:#ef4d41"/><path d="M158,72.71l2.11,1.58s-2.63,6.55-5.56,8.84S150,85.35,150,85.35a1.91,1.91,0,0,1-1.4-2.34C149.05,79.16,158,72.71,158,72.71Z" style="fill:#7672f2"/><path d="M148,64a1.19,1.19,0,0,1,1.47,0c.5.33.65.87.33,1.22a1.16,1.16,0,0,1-1.46,0C147.81,64.87,147.66,64.33,148,64Z" style="fill:#f2b18b"/><path d="M154.93,62.47a7,7,0,0,1,.8,3.3c.11,1.8-.72,1.74-1.15,2a4,4,0,0,1-3.69.18c-1.07-.63-1.31-3.6-1.31-3.6a29,29,0,0,0,3.68-.79A4,4,0,0,0,154.93,62.47Z" style="fill:#e1e5fa"/><path d="M193.9,76.61H131.61a3.21,3.21,0,0,1-3.21-3.21V58a3.21,3.21,0,0,1,3.21-3.21h35.31l-9-7.29a16.29,16.29,0,0,0-10.26-3.63h-24v39.6h78.7Z" style="fill:#ff7656"/><rect x="123.55" y="83.45" width="0.1" height="6.35" style="fill:url(#linear-gradient)"/><path d="M206,86.42l-3.67-3h-78.7v6.36h85.51A16.25,16.25,0,0,0,206,86.42Z" style="fill:#6db125"/><path d="M206,86.42l-3.67-3h-78.7v6.36h85.51A16.25,16.25,0,0,0,206,86.42Z" style="fill:#ff5a33"/><rect x="139.65" y="54.14" width="3.8" height="25.64" style="fill:#ff7656"/><rect x="165.92" y="44.95" width="5.19" height="41" transform="translate(6.86 146.37) rotate(-47.82)" style="fill:#ff7656"/><path d="M209.16,89.81H123.65v24.78h81.61a6.81,6.81,0,0,0,6.81-6.81V99.1A16.31,16.31,0,0,0,209.16,89.81Z" style="fill:#ff7656"/><path d="M162.7,94.17a20.52,20.52,0,0,0-20.52,20.42h8.52a12,12,0,0,1,24,0h8.52A20.52,20.52,0,0,0,162.7,94.17Z" style="fill:#0d0d0d"/><path d="M147.52,114.69A15.18,15.18,0,1,0,162.7,99.51,15.18,15.18,0,0,0,147.52,114.69Zm6.3,0a8.88,8.88,0,1,1,8.88,8.87A8.89,8.89,0,0,1,153.82,114.69Z" style="fill:#333"/><path d="M162.7,105.81a8.88,8.88,0,1,1-8.88,8.88A8.88,8.88,0,0,1,162.7,105.81Z" style="fill:#969696"/><path d="M165.75,106.36a3.8,3.8,0,0,1-6.11,0,8.76,8.76,0,0,1,6.11,0Z" style="fill:#333"/><path d="M171.43,113.17a3.8,3.8,0,0,1-3.05-5.29A8.81,8.81,0,0,1,171.43,113.17Z" style="fill:#333"/><path d="M171.43,116.2a8.83,8.83,0,0,1-3.05,5.3,3.8,3.8,0,0,1,3.05-5.3Z" style="fill:#333"/><path d="M162.7,121.47a3.25,3.25,0,0,1,3.05,1.54,8.76,8.76,0,0,1-6.11,0A3.25,3.25,0,0,1,162.7,121.47Z" style="fill:#333"/><path d="M156.82,118.08a3.23,3.23,0,0,1,.19,3.42,8.88,8.88,0,0,1-3-5.3A3.24,3.24,0,0,1,156.82,118.08Z" style="fill:#333"/><path d="M157,107.88a3.8,3.8,0,0,1-3,5.29A8.83,8.83,0,0,1,157,107.88Z" style="fill:#333"/><path d="M159.16,114.69a3.54,3.54,0,1,0,3.54-3.54A3.53,3.53,0,0,0,159.16,114.69Zm1.3,0a2.24,2.24,0,1,1,2.24,2.23A2.24,2.24,0,0,1,160.46,114.69Z" style="fill:#333"/><path d="M152.75,114.69a9.95,9.95,0,1,0,9.95-10A10,10,0,0,0,152.75,114.69Zm1.07,0a8.88,8.88,0,1,1,8.88,8.87A8.89,8.89,0,0,1,153.82,114.69Z" style="fill:#fff"/><path d="M162.7,126.68a12,12,0,0,0,12-12v-.1h-24v.1A12,12,0,0,0,162.7,126.68Z" style="fill:none"/><path d="M58.73,94.17a20.51,20.51,0,0,0-20.51,20.42h8.52a12,12,0,0,1,24,0h8.51A20.51,20.51,0,0,0,58.73,94.17Z" style="fill:#0d0d0d"/><path d="M43.56,114.69A15.18,15.18,0,1,0,58.73,99.51,15.17,15.17,0,0,0,43.56,114.69Zm6.3,0a8.88,8.88,0,1,1,8.87,8.87A8.88,8.88,0,0,1,49.86,114.69Z" style="fill:#333"/><circle cx="58.73" cy="114.69" r="8.87" transform="translate(-63.9 154.24) rotate(-80.76)" style="fill:#969696"/><path d="M61.79,106.36a3.23,3.23,0,0,1-3.06,1.54,3.23,3.23,0,0,1-3-1.54,8.76,8.76,0,0,1,6.11,0Z" style="fill:#333"/><path d="M67.47,113.17a3.24,3.24,0,0,1-2.86-1.88,3.19,3.19,0,0,1-.19-3.41A8.85,8.85,0,0,1,67.47,113.17Z" style="fill:#333"/><path d="M67.47,116.2a8.93,8.93,0,0,1-3,5.3,3.8,3.8,0,0,1,3-5.3Z" style="fill:#333"/><path d="M58.73,121.47A3.23,3.23,0,0,1,61.78,123a8.73,8.73,0,0,1-6.1,0A3.25,3.25,0,0,1,58.73,121.47Z" style="fill:#333"/><path d="M52.86,118.08a3.25,3.25,0,0,1,.19,3.42,8.83,8.83,0,0,1-3-5.3A3.25,3.25,0,0,1,52.86,118.08Z" style="fill:#333"/><path d="M53.05,107.88a3.8,3.8,0,0,1-3,5.29A8.78,8.78,0,0,1,53.05,107.88Z" style="fill:#333"/><path d="M55.2,114.69a3.54,3.54,0,1,0,3.53-3.54A3.53,3.53,0,0,0,55.2,114.69Zm1.3,0a2.23,2.23,0,1,1,2.23,2.23A2.23,2.23,0,0,1,56.5,114.69Z" style="fill:#333"/><path d="M48.78,114.69a10,10,0,1,0,9.95-10A10,10,0,0,0,48.78,114.69Zm1.08,0a8.88,8.88,0,1,1,8.87,8.87A8.88,8.88,0,0,1,49.86,114.69Z" style="fill:#fff"/><path d="M58.73,126.68a12,12,0,0,0,12-12v-.1h-24v.1A12,12,0,0,0,58.73,126.68Z" style="fill:none"/><path d="M212,98h-4.66a3.41,3.41,0,0,0-3.41,3.41V106a3.41,3.41,0,0,0,3.41,3.4H212Z" style="fill:#ff2e5f"/><path d="M206.53,99.33H212a0,0,0,0,1,0,0v3.93a0,0,0,0,1,0,0h-5.42a.75.75,0,0,1-.75-.75v-2.43A.75.75,0,0,1,206.53,99.33Z" style="fill:#ff577d"/><path d="M212,100.82h-5.22a.47.47,0,0,1-.47-.48h0a.47.47,0,0,1,.47-.47H212Z" style="fill:#ffb0c3"/><path d="M212,102.72h-5.22a.47.47,0,0,1-.47-.48h0a.47.47,0,0,1,.47-.47H212Z" style="fill:#ffb0c3"/><path d="M206.53,104.08H212a0,0,0,0,1,0,0V108a0,0,0,0,1,0,0h-5.42a.75.75,0,0,1-.75-.75v-2.43A.75.75,0,0,1,206.53,104.08Z" style="fill:#ff577d"/><path d="M212,105.57h-5.22a.48.48,0,0,1-.47-.48h0a.47.47,0,0,1,.47-.47H212Z" style="fill:#ffb0c3"/><path d="M212,107.46h-5.22a.47.47,0,0,1-.47-.47h0a.47.47,0,0,1,.47-.47H212Z" style="fill:#ffb0c3"/><path d="M208.27,103.31a18.84,18.84,0,0,0,3.68,2.51V98h-4.66a3.42,3.42,0,0,0-2.58,1.18A19.13,19.13,0,0,0,208.27,103.31Z" style="fill:#fff;opacity:0.39"/><path d="M16.92,39.64a22.88,22.88,0,0,1,3.44-.26,7.18,7.18,0,0,1,5.07,1.56,5.75,5.75,0,0,1,1.77,4.5,6.65,6.65,0,0,1-1.81,4.87,7.7,7.7,0,0,1-5.53,1.8A26.77,26.77,0,0,1,16.92,52Zm1.62,11.08a10.74,10.74,0,0,0,1.63.09c3.46,0,5.34-1.93,5.34-5.32,0-3-1.66-4.83-5.08-4.83a9.29,9.29,0,0,0-1.89.17Z" style="fill:#ff5a33"/><path d="M35.78,46.12H30.91v4.52h5.43V52H29.29V39.47h6.77v1.36H30.91v4h4.87Z" style="fill:#ff5a33"/><path d="M38.44,39.47h1.61V50.64H45.4V52h-7Z" style="fill:#ff5a33"/><path d="M48.82,39.47V52H47.2V39.47Z" style="fill:#ff5a33"/><path d="M54.4,52,50.31,39.47h1.74l2,6.17c.54,1.69,1,3.22,1.33,4.69h0c.35-1.45.87-3,1.43-4.67l2.12-6.19h1.73L56.18,52Z" style="fill:#ff5a33"/><path d="M68.5,46.12H63.63v4.52h5.43V52H62V39.47h6.77v1.36H63.63v4H68.5Z" style="fill:#ff5a33"/><path d="M71.16,39.64a16.47,16.47,0,0,1,3.1-.26,5.09,5.09,0,0,1,3.62,1,3.13,3.13,0,0,1,1,2.38A3.3,3.3,0,0,1,76.51,46V46a3.15,3.15,0,0,1,1.84,2.53,20.42,20.42,0,0,0,1,3.44H77.64a16.71,16.71,0,0,1-.83-3c-.38-1.73-1-2.38-2.51-2.44H72.77V52H71.16Zm1.61,5.7h1.66c1.73,0,2.82-.94,2.82-2.37,0-1.62-1.17-2.33-2.88-2.35a6.89,6.89,0,0,0-1.6.15Z" style="fill:#ff5a33"/><path d="M83.74,52V46.68l-4-7.21h1.84l1.76,3.46c.49,1,.86,1.71,1.25,2.58h0c.36-.82.79-1.63,1.27-2.58l1.8-3.46h1.84l-4.2,7.19V52Z" style="fill:#ff5a33"/><path d="M173.38,64.74h1.78a4,4,0,0,1,4,4v4.77a4,4,0,0,1-4,4h-1.78a2.26,2.26,0,0,1-2.26-2.26V67A2.26,2.26,0,0,1,173.38,64.74Z" style="fill:#ff896e"/></g></g></svg>