<svg xmlns="http://www.w3.org/2000/svg" xmlns:xlink="http://www.w3.org/1999/xlink" viewBox="0 0 78.91 59.82"><defs><linearGradient id="Безымянный_градиент_10" x1="-50.35" y1="-24.09" x2="74.81" y2="82.04" gradientTransform="translate(53.86 23.12) rotate(-17.37)" gradientUnits="userSpaceOnUse"><stop offset="0.19" stop-color="#4d47bd"/><stop offset="0.86" stop-color="#252259"/><stop offset="1"/></linearGradient></defs><g id="Layer_2" data-name="Layer 2"><g id="OBJECTS"><path d="M22.25,49.78c-2-1-4.62-4.9-2.59-7.15a2.55,2.55,0,0,1,.55-.43c.88-.49,1.79-1,2.73-1.37a3.28,3.28,0,0,0-.31-6.1c-2-.69-4.17-1.24-6.21-1.9a23.57,23.57,0,0,1-9-4.75A2.4,2.4,0,0,1,8.85,24l5.5-.54a1.68,1.68,0,0,0,.85-3C8.88,15.71,2.8,10.3.16,3.25A2.4,2.4,0,0,1,2.63,0,19.63,19.63,0,0,1,14.31,5.36c2.23,2.16,4.32,5,7,6.2A1.68,1.68,0,0,0,23.64,10a12.05,12.05,0,0,1,.8-4.56,3.58,3.58,0,0,1,5.39-1.64,13.69,13.69,0,0,1,4.51,6.73c1.41,4.24,2.31,9.17,6.41,11.36a1.59,1.59,0,0,0,.52.17c4,.61,2.71-5.85,5.71-7.38a3.43,3.43,0,0,1,4,1.16,59.73,59.73,0,0,1,4.15,7.26c5.08,11.16,8.75,24.32,5,28.25-2.76,2.91-17.9,2.38-19.31,2.33C34,53.42,28.43,52.93,22.25,49.78Z" style="fill:url(#Безымянный_градиент_10)"/><path d="M15,13.31c11,11.32,32.42,29.87,44,36.82a111,111,0,0,0,19.31,9.14" style="fill:none;stroke:#1f1473;stroke-linecap:round;stroke-linejoin:round;stroke-width:1.1007900000000002px"/><path d="M23.46,29.89l2.87.65c2.16.49,4.75.87,6.32-.7a4.45,4.45,0,0,0,1-4,13,13,0,0,0-1.71-3.91" style="fill:none;stroke:#1f1473;stroke-linecap:round;stroke-linejoin:round;stroke-width:1.1007900000000002px"/><path d="M32.49,41.82a39.32,39.32,0,0,0,7.42,3.23,13.14,13.14,0,0,0,8,0c1.68-.59,3-2.52,2.8-6.15-.15-2.54-2.47-7.1-3.5-9.26" style="fill:none;stroke:#1f1473;stroke-linecap:round;stroke-linejoin:round;stroke-width:1.1007900000000002px"/><path d="M24.92,8.94a.89.89,0,0,0,.08.43.75.75,0,0,0,1,.27,1.55,1.55,0,0,0,.72-.83,3.93,3.93,0,0,0,.35-1.76c0-.36-.15-.81-.52-.87a.74.74,0,0,0-.61.26A3.46,3.46,0,0,0,24.92,8.94Z" style="fill:#1f1473"/><path d="M31.55,13.38a.49.49,0,0,0,.05.24.41.41,0,0,0,.54.15.86.86,0,0,0,.4-.46,2.21,2.21,0,0,0,.2-1c0-.2-.09-.45-.29-.48a.47.47,0,0,0-.35.14A1.94,1.94,0,0,0,31.55,13.38Z" style="fill:#1f1473"/><path d="M28.86,8.92a.3.3,0,0,0-.1-.14.29.29,0,0,0-.4.06.66.66,0,0,0-.12.41,1.49,1.49,0,0,0,.16.69c.06.13.19.27.33.23s.14-.11.18-.19A1.35,1.35,0,0,0,28.86,8.92Z" style="fill:#1f1473"/><path d="M30.49,6.36a.24.24,0,0,0-.06-.09.19.19,0,0,0-.24,0,.4.4,0,0,0-.08.26,1,1,0,0,0,.1.42c0,.08.12.16.2.14s.09-.07.11-.12A.82.82,0,0,0,30.49,6.36Z" style="fill:#1f1473"/><path d="M32.36,8.59a.42.42,0,0,0-.09-.14.31.31,0,0,0-.4.06.68.68,0,0,0-.13.42,1.66,1.66,0,0,0,.16.69c.07.13.19.27.33.23a.3.3,0,0,0,.18-.2A1.35,1.35,0,0,0,32.36,8.59Z" style="fill:#1f1473"/><path d="M45.09,22.1a1,1,0,0,0,.07.43.75.75,0,0,0,1,.27,1.57,1.57,0,0,0,.73-.83,3.92,3.92,0,0,0,.35-1.75c0-.37-.16-.82-.52-.88a.8.8,0,0,0-.62.26A3.43,3.43,0,0,0,45.09,22.1Z" style="fill:#1f1473"/><path d="M51.72,26.54a.49.49,0,0,0,0,.24.41.41,0,0,0,.54.15.88.88,0,0,0,.41-.46,2.3,2.3,0,0,0,.19-1c0-.21-.09-.46-.29-.49a.42.42,0,0,0-.34.15A1.92,1.92,0,0,0,51.72,26.54Z" style="fill:#1f1473"/><path d="M49,22.08a.34.34,0,0,0-.09-.14.3.3,0,0,0-.4.06.62.62,0,0,0-.13.42,1.62,1.62,0,0,0,.16.68c.07.13.19.27.33.23a.29.29,0,0,0,.18-.19A1.35,1.35,0,0,0,49,22.08Z" style="fill:#1f1473"/><path d="M48.48,17.88a.45.45,0,0,0,.13-.11.3.3,0,0,0-.12-.39.63.63,0,0,0-.43-.07,1.61,1.61,0,0,0-.66.25c-.12.08-.24.22-.18.35a.29.29,0,0,0,.21.16A1.39,1.39,0,0,0,48.48,17.88Z" style="fill:#1f1473"/><path d="M50.66,19.52l-.06-.08a.19.19,0,0,0-.25,0,.39.39,0,0,0-.07.26.87.87,0,0,0,.1.42c0,.08.11.17.2.14s.09-.07.11-.12A.86.86,0,0,0,50.66,19.52Z" style="fill:#1f1473"/><path d="M52.53,21.75a.71.71,0,0,0-.1-.14.31.31,0,0,0-.4.06.69.69,0,0,0-.12.42,1.49,1.49,0,0,0,.16.69c.06.13.19.27.33.23s.14-.11.18-.19A1.42,1.42,0,0,0,52.53,21.75Z" style="fill:#1f1473"/></g></g></svg>