<svg xmlns="http://www.w3.org/2000/svg" xmlns:xlink="http://www.w3.org/1999/xlink" viewBox="0 0 106.34 97.99"><defs><linearGradient id="Безымянный_градиент_10" x1="217.47" y1="197.43" x2="225.85" y2="329.32" gradientTransform="matrix(0.83, 0.55, -0.55, 0.83, 9.59, -245.09)" gradientUnits="userSpaceOnUse"><stop offset="0.19" stop-color="#4d47bd"/><stop offset="0.86" stop-color="#252259"/><stop offset="1"/></linearGradient><linearGradient id="Безымянный_градиент_22" x1="-26.35" y1="41.04" x2="-17.97" y2="172.92" gradientTransform="matrix(0.99, 0.15, -0.15, 0.99, 81.78, -13.35)" gradientUnits="userSpaceOnUse"><stop offset="0" stop-color="#ffba00"/><stop offset="1" stop-color="#ff9500"/></linearGradient><clipPath id="clip-path" transform="translate(0 0.11)"><path d="M29.12,63.29l-2.93,4.86-5-3a43.65,43.65,0,0,1-21-34.39l-.06-.8A43.62,43.62,0,0,1,9.08.31L9.32,0h0A43.66,43.66,0,0,1,31.09,21.82l.45,1A43.62,43.62,0,0,1,29.12,63.29Z" style="fill:none"/></clipPath><linearGradient id="Безымянный_градиент_11" x1="-286.91" y1="351.09" x2="-222.82" y2="351.09" gradientTransform="matrix(0.62, 0.79, -0.79, 0.62, 451.33, 18.74)" gradientUnits="userSpaceOnUse"><stop offset="0.09" stop-color="#5640d4"/><stop offset="1" stop-color="#332292"/></linearGradient></defs><g id="Layer_2" data-name="Layer 2"><g id="OBJECTS"><path d="M52.61,44.92c1.67-1.57,6.17-2.7,7.61,0a2.23,2.23,0,0,1,.22.66c.16,1,.29,2,.37,3a3.29,3.29,0,0,0,5.85,1.77c1.34-1.69,2.57-3.51,3.88-5.21a23.56,23.56,0,0,1,7.51-6.85A2.39,2.39,0,0,1,81.45,41L80.1,46.37a1.68,1.68,0,0,0,2.55,1.81c6.56-4.36,13.7-8.25,21.23-8.36a2.4,2.4,0,0,1,2.22,3.42,19.53,19.53,0,0,1-9,9.18c-2.78,1.37-6.2,2.37-8.2,4.51a1.68,1.68,0,0,0,.73,2.72,12.32,12.32,0,0,1,4,2.29,3.58,3.58,0,0,1-.27,5.63,13.63,13.63,0,0,1-7.87,2c-4.46-.1-9.41-.91-12.86,2.21a1.76,1.76,0,0,0-.33.43c-1.92,3.56,4.59,4.52,5,7.86A3.43,3.43,0,0,1,75,83.41a60.19,60.19,0,0,1-8.24,1.45c-12.22,1-25.85,0-28.3-4.81-1.81-3.58,3.8-17.65,4.31-18.95C45.23,54.73,47.56,49.66,52.61,44.92Z" transform="translate(0 0.11)" style="fill:url(#Безымянный_градиент_10)"/><path d="M89.4,50.41c-14.34,6.48-39.06,20.42-49.52,29A111.64,111.64,0,0,0,24.77,94.51" transform="translate(0 0.11)" style="fill:none;stroke:#1f1473;stroke-linecap:round;stroke-linejoin:round;stroke-width:1.1007900000000002px"/><path d="M70.94,52.76l-1.58,2.48c-1.19,1.87-2.42,4.18-1.47,6.19a4.51,4.51,0,0,0,3.44,2.27,13.33,13.33,0,0,0,4.26-.29" transform="translate(0 0.11)" style="fill:none;stroke:#1f1473;stroke-linecap:round;stroke-linejoin:round;stroke-width:1.1007900000000002px"/><path d="M56.66,57.24a39.57,39.57,0,0,0-5.55,5.88,13.25,13.25,0,0,0-2.68,7.51c0,1.77,1.36,3.67,4.85,4.7,2.44.72,7.52.08,9.9-.17" transform="translate(0 0.11)" style="fill:none;stroke:#1f1473;stroke-linecap:round;stroke-linejoin:round;stroke-width:1.1007900000000002px"/><path d="M90.18,61.2a1.25,1.25,0,0,0-.43-.07.76.76,0,0,0-.59.83,1.66,1.66,0,0,0,.54,1,4.13,4.13,0,0,0,1.54.93c.35.11.82.12,1-.2a.79.79,0,0,0,0-.67A3.48,3.48,0,0,0,90.18,61.2Z" transform="translate(0 0.11)" style="fill:#1f1473"/><path d="M83.76,66a.47.47,0,0,0-.24,0,.42.42,0,0,0-.32.46.89.89,0,0,0,.3.53,2.17,2.17,0,0,0,.85.51c.2.06.46.07.56-.11a.44.44,0,0,0,0-.37A1.88,1.88,0,0,0,83.76,66Z" transform="translate(0 0.11)" style="fill:#1f1473"/><path d="M88.88,64.92a.49.49,0,0,0,.16,0,.29.29,0,0,0,.08-.39.62.62,0,0,0-.35-.26,1.53,1.53,0,0,0-.7-.08c-.15,0-.32.09-.33.23a.31.31,0,0,0,.12.24A1.37,1.37,0,0,0,88.88,64.92Z" transform="translate(0 0.11)" style="fill:#1f1473"/><path d="M90.73,67.32l.11,0a.18.18,0,0,0,0-.24.37.37,0,0,0-.21-.16.91.91,0,0,0-.43,0c-.09,0-.2,0-.21.14a.22.22,0,0,0,.08.15A.92.92,0,0,0,90.73,67.32Z" transform="translate(0 0.11)" style="fill:#1f1473"/><path d="M88,68.32a.33.33,0,0,0,.17,0,.29.29,0,0,0,.07-.39.62.62,0,0,0-.35-.26,1.5,1.5,0,0,0-.7-.08c-.15,0-.32.08-.33.23A.31.31,0,0,0,87,68,1.36,1.36,0,0,0,88,68.32Z" transform="translate(0 0.11)" style="fill:#1f1473"/><path d="M71,75.74a1.09,1.09,0,0,0-.43-.08.76.76,0,0,0-.59.84,1.61,1.61,0,0,0,.54,1,3.84,3.84,0,0,0,1.54.92c.35.11.82.13,1-.2a.79.79,0,0,0,0-.67A3.5,3.5,0,0,0,71,75.74Z" transform="translate(0 0.11)" style="fill:#1f1473"/><path d="M64.57,80.48a.51.51,0,0,0-.24,0,.41.41,0,0,0-.32.46.82.82,0,0,0,.3.53,2.06,2.06,0,0,0,.85.51c.19.07.45.08.55-.1a.44.44,0,0,0,0-.37A1.89,1.89,0,0,0,64.57,80.48Z" transform="translate(0 0.11)" style="fill:#1f1473"/><path d="M69.68,79.45l.17,0a.31.31,0,0,0,.08-.4.68.68,0,0,0-.36-.26,1.5,1.5,0,0,0-.7-.08c-.14,0-.31.09-.33.23a.32.32,0,0,0,.13.24A1.36,1.36,0,0,0,69.68,79.45Z" transform="translate(0 0.11)" style="fill:#1f1473"/><path d="M73.82,80.35a.38.38,0,0,0,.06.16.29.29,0,0,0,.4,0,.7.7,0,0,0,.22-.38,1.55,1.55,0,0,0,0-.71c0-.14-.13-.3-.27-.3a.32.32,0,0,0-.22.16A1.36,1.36,0,0,0,73.82,80.35Z" transform="translate(0 0.11)" style="fill:#1f1473"/><path d="M71.54,81.85a.17.17,0,0,0,.1,0,.18.18,0,0,0,0-.24.4.4,0,0,0-.22-.16.88.88,0,0,0-.43,0c-.09,0-.19.06-.2.14a.22.22,0,0,0,.08.15A.81.81,0,0,0,71.54,81.85Z" transform="translate(0 0.11)" style="fill:#1f1473"/><path d="M68.81,82.86a.43.43,0,0,0,.16,0,.29.29,0,0,0,.08-.39.62.62,0,0,0-.35-.26,1.52,1.52,0,0,0-.7-.08c-.15,0-.32.09-.33.23a.31.31,0,0,0,.12.24A1.4,1.4,0,0,0,68.81,82.86Z" transform="translate(0 0.11)" style="fill:#1f1473"/><path d="M25.32,40.61c.85-2.12,4.45-5,6.88-3.24a2.11,2.11,0,0,1,.48.51q.85,1.24,1.62,2.58a3.29,3.29,0,0,0,6.05-.87c.5-2.09.84-4.26,1.31-6.36a23.6,23.6,0,0,1,3.9-9.38,2.4,2.4,0,0,1,4.24,1l1,5.43a1.68,1.68,0,0,0,3.08.56C58,24.14,62.83,17.59,69.61,14.31a2.4,2.4,0,0,1,3.46,2.16,19.62,19.62,0,0,1-4.24,12.12c-1.94,2.42-4.62,4.77-5.52,7.55a1.68,1.68,0,0,0,1.81,2.16,12,12,0,0,1,4.62.37,3.59,3.59,0,0,1,2.14,5.22A13.79,13.79,0,0,1,65.59,49c-4.09,1.79-8.92,3.15-10.72,7.43a1.63,1.63,0,0,0-.12.53c-.23,4,6.08,2.16,7.88,5A3.42,3.42,0,0,1,61.85,66,59.7,59.7,0,0,1,55,70.85c-10.64,6.08-23.41,11-27.67,7.61-3.16-2.48-4-17.6-4.12-19C22.79,52.63,22.76,47.05,25.32,40.61Z" transform="translate(0 0.11)" style="fill:url(#Безымянный_градиент_22)"/><path d="M61,30C50.72,42,34.24,65.05,28.4,77.27a110.18,110.18,0,0,0-7.31,20.06" transform="translate(0 0.11)" style="fill:none;stroke:#fff;stroke-linecap:round;stroke-linejoin:round;stroke-width:1.1007900000000002px"/><path d="M45.25,40l-.39,2.92c-.28,2.2-.42,4.81,1.29,6.22a4.5,4.5,0,0,0,4.08.61A13,13,0,0,0,54,47.65" transform="translate(0 0.11)" style="fill:none;stroke:#fff;stroke-linecap:round;stroke-linejoin:round;stroke-width:1.1007900000000002px"/><path d="M34.2,50.07a39.48,39.48,0,0,0-2.53,7.68,13.18,13.18,0,0,0,.74,7.93c.75,1.61,2.79,2.76,6.39,2.21,2.51-.38,6.85-3.11,8.9-4.34" transform="translate(0 0.11)" style="fill:none;stroke:#fff;stroke-linecap:round;stroke-linejoin:round;stroke-width:1.1007900000000002px"/><path d="M66.25,39.48a1,1,0,0,0-.42.12.75.75,0,0,0-.18,1,1.56,1.56,0,0,0,.9.64,3.85,3.85,0,0,0,1.78.19c.36,0,.8-.23.82-.6a.77.77,0,0,0-.32-.59A3.47,3.47,0,0,0,66.25,39.48Z" transform="translate(0 0.11)" style="fill:#fff"/><path d="M62.44,46.5a.46.46,0,0,0-.23.06.43.43,0,0,0-.1.56.87.87,0,0,0,.5.35,2.06,2.06,0,0,0,1,.1c.2,0,.44-.12.45-.33a.45.45,0,0,0-.17-.33A2,2,0,0,0,62.44,46.5Z" transform="translate(0 0.11)" style="fill:#fff"/><path d="M66.64,43.4a.35.35,0,0,0,.13-.11.3.3,0,0,0-.1-.39.62.62,0,0,0-.42-.09,1.58,1.58,0,0,0-.67.23c-.13.07-.25.21-.2.35a.32.32,0,0,0,.21.16A1.39,1.39,0,0,0,66.64,43.4Z" transform="translate(0 0.11)" style="fill:#fff"/><path d="M69.34,44.79a.27.27,0,0,0,.08-.07.19.19,0,0,0-.06-.24.4.4,0,0,0-.26,0,.91.91,0,0,0-.42.14c-.07,0-.15.13-.12.21a.22.22,0,0,0,.13.1A.83.83,0,0,0,69.34,44.79Z" transform="translate(0 0.11)" style="fill:#fff"/><path d="M67.29,46.86a.47.47,0,0,0,.13-.11.3.3,0,0,0-.1-.39.64.64,0,0,0-.43-.09,1.53,1.53,0,0,0-.67.23c-.12.07-.25.21-.19.34a.27.27,0,0,0,.21.16A1.38,1.38,0,0,0,67.29,46.86Z" transform="translate(0 0.11)" style="fill:#fff"/><path d="M55,60.77a1.06,1.06,0,0,0-.42.12.75.75,0,0,0-.18,1,1.64,1.64,0,0,0,.9.64,4,4,0,0,0,1.78.19c.37,0,.8-.23.83-.6a.8.8,0,0,0-.32-.59A3.5,3.5,0,0,0,55,60.77Z" transform="translate(0 0.11)" style="fill:#fff"/><path d="M51.21,67.78a.51.51,0,0,0-.24.07.42.42,0,0,0-.1.55,1,1,0,0,0,.5.36,2.09,2.09,0,0,0,1,.1c.2,0,.44-.13.46-.33a.43.43,0,0,0-.18-.33A1.93,1.93,0,0,0,51.21,67.78Z" transform="translate(0 0.11)" style="fill:#fff"/><path d="M55.4,64.69l.14-.11a.3.3,0,0,0-.1-.39A.64.64,0,0,0,55,64.1a1.45,1.45,0,0,0-.67.23c-.12.07-.25.21-.2.34a.27.27,0,0,0,.21.16A1.38,1.38,0,0,0,55.4,64.69Z" transform="translate(0 0.11)" style="fill:#fff"/><path d="M59.53,63.76a.45.45,0,0,0,.13.11.29.29,0,0,0,.37-.14.66.66,0,0,0,0-.44,1.47,1.47,0,0,0-.3-.63c-.09-.12-.25-.23-.37-.16a.3.3,0,0,0-.14.23A1.43,1.43,0,0,0,59.53,63.76Z" transform="translate(0 0.11)" style="fill:#fff"/><path d="M58.1,66.08a.27.27,0,0,0,.08-.07.18.18,0,0,0-.06-.24.38.38,0,0,0-.26,0,1,1,0,0,0-.41.13c-.08.05-.15.14-.12.22a.19.19,0,0,0,.13.1A.89.89,0,0,0,58.1,66.08Z" transform="translate(0 0.11)" style="fill:#fff"/><path d="M56.05,68.14a.36.36,0,0,0,.14-.11.29.29,0,0,0-.1-.38.64.64,0,0,0-.43-.09,1.56,1.56,0,0,0-.67.22c-.12.08-.25.22-.2.35a.29.29,0,0,0,.21.16A1.34,1.34,0,0,0,56.05,68.14Z" transform="translate(0 0.11)" style="fill:#fff"/><g style="clip-path:url(#clip-path)"><path d="M29.12,63.29l-2.93,4.86-5-3a43.65,43.65,0,0,1-21-34.39l-.06-.8A43.62,43.62,0,0,1,9.08.31L9.32,0h0A43.66,43.66,0,0,1,31.09,21.82l.45,1A43.62,43.62,0,0,1,29.12,63.29Z" transform="translate(0 0.11)" style="fill:url(#Безымянный_градиент_11)"/><line x1="9.32" y1="0.11" x2="26.19" y2="68.26" style="fill:none;stroke:#8981eb;stroke-miterlimit:10;stroke-width:0.9288500000000001px"/><line x1="15.23" y1="24" x2="0.49" y2="21.1" style="fill:none;stroke:#8981eb;stroke-miterlimit:10;stroke-width:0.9288500000000001px"/><line x1="18.39" y1="36.76" x2="31.09" y2="21.93" style="fill:none;stroke:#8981eb;stroke-miterlimit:10;stroke-width:0.9288500000000001px"/><line x1="23.07" y1="56.16" x2="9.38" y2="55.11" style="fill:none;stroke:#8981eb;stroke-miterlimit:10;stroke-width:0.9288500000000001px"/><line x1="20.13" y1="43.81" x2="2.18" y2="41.12" style="fill:none;stroke:#8981eb;stroke-miterlimit:10;stroke-width:0.9288500000000001px"/><line x1="22.17" y1="52.53" x2="35.46" y2="41.07" style="fill:none;stroke:#8981eb;stroke-miterlimit:10;stroke-width:0.9288500000000001px"/></g></g></g></svg>