<svg xmlns="http://www.w3.org/2000/svg" viewBox="0 0 800.75 988.13"><g style="isolation:isolate"><g id="Layer_2" data-name="Layer 2"><g id="Layer_1-2" data-name="Layer 1"><path d="M121.07,207s-69.3,5.81-71.72,24.23,2.91,50.88,68.33,57.18h67.77s-20.28-56.21-19.31-58.15S121.07,207,121.07,207Z" style="fill:#efadab"/><path d="M9.88,481.73a18.81,18.81,0,0,0-7.32,26c31.89,55,158.69,273.58,170.12,291.36,13.09,20.35,45.07,68.33,151.2,93s149.75,96,149.75,96H800.75S723.69,866,659.72,549.06c0,0-49.43-263.14-142.47-254.42,0,0-56.7-59.61-111.95-48,0,0-104.68-62.51-164.29-62.51L97.84,14.94c-14.17-16.75-39.15-20-56.57-6.7-5.61,4.29-9.88,10-11.06,17.44-4.37,27.62,32,97.41,90.13,181.73S322.43,559.24,259.91,677c0,0-64-48-119.21-125C94.43,487.44,40,465.74,9.88,481.73Z" style="fill:#ffc0bb"/><path d="M241.54,184.21a595.14,595.14,0,0,1,53.63,52.44c22.71,24.71,51.38,61.35,68.22,89.66,21.23,35,35.24,65.67,41.87,104.2l-.43.09c-7.62-36.2-27.55-75.18-44.91-102.12-13-21.05-37-54.51-67.35-89.57-15.22-17.56-34.53-38.31-51.32-54.38Z" style="fill:#eaa0a0"/><path d="M404.37,246.21c15.45,7.91,29.24,18.94,41.42,31.41a200.31,200.31,0,0,1,31.39,41.88A204.31,204.31,0,0,1,496.83,368c3.76,15.81,6.19,26.54,6.58,51.56l-.44,0A253.76,253.76,0,0,0,493.55,369c-4.91-16-11.81-33.11-20.16-47.33A224.54,224.54,0,0,0,443.26,280C432.31,268,418,255,404.15,246.59Z" style="fill:#eaa0a0"/><path d="M516,293.42c13.67,10.34,27.51,28.64,34.22,41a184.87,184.87,0,0,1,19.55,49.84c3.23,11.8,4.05,23.27,4.56,35.28l-.44.06c-2-11.64-3.28-20.32-7.42-34.4-6.35-21.36-11.34-32.35-19.85-48.82-5.09-10.15-18.29-30.26-30.81-42.65Z" style="fill:#eaa0a0"/><path d="M75.91,549.41c2.9-14.72-14.25-38.06-29.82-55.67A36.2,36.2,0,0,0,7.54,483.23a18.83,18.83,0,0,0-5,24.54c8.57,14.78,24,41.37,42.19,72.71C58.37,573.54,73.22,563,75.91,549.41Z" style="fill:#eaa0a0"/><path d="M89.65,81.35c8.27-1.66,45.8-14.14,43.5-21h0l-37-43.74A42.18,42.18,0,0,0,67.93,1.89h0l-.18,0c-.3,0-1-.07-1.92-.07-5,0-17.19,1.42-19.87,14.85C43.3,29.92,65.27,62.18,75,75.59A14.61,14.61,0,0,0,89.65,81.35Z" style="fill:#eaa0a0"/><path d="M473.63,988.13H800.75S750.23,908.05,697,709.33c-23.34,146.32-152.11,137.88-203.21,146-58.84,9.35-287.25-38.27-319.25-53.27,14.24,21.71,48,66.51,149.3,90.11C430,916.89,473.63,988.13,473.63,988.13Z" style="fill:#ffc0bb;opacity:0.2;mix-blend-mode:multiply"/><path d="M137.64,233.94C201.78,337,316.85,573.72,259.91,677l37.79,37.3s95.48-105.77-56.45-339A1556.47,1556.47,0,0,0,137.64,233.94Z" style="fill:#ffc0bb;opacity:0.2;mix-blend-mode:multiply"/></g></g></g></svg>