<svg xmlns="http://www.w3.org/2000/svg" viewBox="0 0 1576.09 1802.47"><g style="isolation:isolate"><g id="Layer_2" data-name="Layer 2"><g id="Layer_1-2" data-name="Layer 1"><path d="M744.09,1626.07S97.55,1578.51,19.8,1262.37s94.56-359.15,153.4-536.22-208-281.5-29.42-522.43,442-245.13,553-131.66,239-69.34,445,33.63,256.48,311,191.34,473.53,202,317.92,235.47,502.17S1299.76,1707.31,744.09,1626.07Z" style="fill:#c9edf9"/><path d="M89,1802.47H476.42L508.56,1716A122.35,122.35,0,0,1,573,1647.18c28.06-12.7,65.82-35.75,102.43-76.84,71.24-80,109-165.74,109-165.74l-240.11-1.17s21.61-134.31-97.72-312.69a100.91,100.91,0,0,1-16.6-64.89l11.32-130.09s81.09-90.63,31.34-203.06c0,0-47.58-65.87-66.45-41.76,0,0-143.72,342.22-156.8,393.11s-30.53,82.87-13.09,242.79c4.62,42.34,6.28,77.64,6.22,106.68a378.58,378.58,0,0,1-36.39,161.12Z" style="fill:#ffc0bb"/><path d="M450.34,1580.48c-36-39.92-85.92-33.62-138.45-51.83s-69.39-149.52-69.39-149.52v0q.12,7.44.11,14.41a378.58,378.58,0,0,1-36.39,161.12L89,1802.47H476.42L508.56,1716A122.35,122.35,0,0,1,573,1647.18c23.88-10.81,54.79-29.12,86-59.66C552.35,1632.37,486.3,1620.41,450.34,1580.48Z" style="fill:#ffc0bb;opacity:0.2;mix-blend-mode:multiply"/><path d="M767.3,263.88A13.38,13.38,0,0,0,750.9,254a19.67,19.67,0,0,0-23.67-10.46,24.26,24.26,0,0,0-43.57,4.24,16.64,16.64,0,0,0-24.73,14.54c0,.54,0,1.08.08,1.61Z" style="fill:#fff"/><path d="M1141.81,203.34A34.93,34.93,0,0,0,1099,177.4a51.43,51.43,0,0,0-61.81-27.3,63.33,63.33,0,0,0-113.75,11.06,43.44,43.44,0,0,0-64.56,38c0,1.43.08,2.83.21,4.22Z" style="fill:#fff"/><path d="M374.81,469.73A29.23,29.23,0,0,0,339,448a43,43,0,0,0-51.74-22.85,53,53,0,0,0-95.2,9.26,36.35,36.35,0,0,0-54,31.77c0,1.19.06,2.37.17,3.53Z" style="fill:#fff"/><path d="M279,252.11c89.07,140.54,308.6,265.78,308.6,265.78S413.11,503.72,326.51,390.94l31.4-26s-25,2.41-45.87,4.83C292.78,337.81,280.31,299.06,279,252.11Z" style="fill:#e6a748"/><path d="M512.73,310.23c-13.55,6.15-33.58,15.51-33.58,15.51L498.45,298c-22.48-17.49-47.23-29.15-71.75-36.78-9.94,14.47-21.62,30.64-21.62,30.64l-2.32-36.92C337,240.79,279,252.11,279,252.11c89.07,140.54,308.6,265.78,308.6,265.78C586.63,414.63,555.19,350.15,512.73,310.23Z" style="fill:#ffcb83"/><path d="M246.32,450.4a206.83,206.83,0,0,1,78.61-27.07c7.78,8.88,17.33,19.33,17.33,19.33l.53-20.92c99.28-4.76,183,57.77,183,57.77-56.81,34.56-105.7,44.25-146,41.38-2.54-7.3-6.15-18.2-6.15-18.2l-6.74,16.83a182.87,182.87,0,0,1-51.31-15.23c3.57-8.73,7.32-18.71,7.32-18.71l-21.17,11.6C265.39,476.62,246.32,450.4,246.32,450.4Z" style="fill:#ff6e53"/><path d="M379.78,520.89c-2.54-7.3-6.15-18.2-6.15-18.2l-6.74,16.83a182.87,182.87,0,0,1-51.31-15.23c3.57-8.73,7.32-18.71,7.32-18.71l-21.17,11.6c-36.34-20.56-55.41-46.78-55.41-46.78,115.5-13.2,279.45,29.11,279.45,29.11C469,514.07,420.07,523.76,379.78,520.89Z" style="fill:#e74a60"/><path d="M1001.11,422.77s82.07-54.92,100.8-18.74S995.3,568.26,995.3,568.26Z" style="fill:#eaa0a0"/><path d="M1001.11,662.08s82.07-54.93,100.8-18.74S995.3,807.56,995.3,807.56Z" style="fill:#eaa0a0"/><path d="M1001.11,825.12s82.07-54.92,100.8-18.74S995.3,970.61,995.3,970.61Z" style="fill:#eaa0a0"/><path d="M944.44,361.22H493.93A60.76,60.76,0,0,0,433.18,422v920.71a60.76,60.76,0,0,0,60.75,60.75H944.44a60.75,60.75,0,0,0,60.74-60.75V422A60.76,60.76,0,0,0,944.44,361.22Z" style="fill:#063e70"/><path d="M474.23,1135.37s-81.49,199.47-73.58,237.18,57.35,88.15,178.67,71.34S784.5,1404.6,784.5,1404.6s5.07-269.2,0-282.85S561.29,1011.2,552.71,1011.2,474.23,1135.37,474.23,1135.37Z" style="fill:#ffc0bb;opacity:0.2;mix-blend-mode:multiply"/><rect x="462.63" y="444.02" width="513.1" height="876.61" style="fill:#fff"/><path d="M595.39,644H843a34.28,34.28,0,0,1,34.28,34.28v329.46A34.27,34.27,0,0,1,843,1042H595.39a34.27,34.27,0,0,1-34.27-34.27V678.26A34.28,34.28,0,0,1,595.39,644Z" style="fill:#c9edf9"/><path d="M609.28,805.17l25.05,120.21a11.1,11.1,0,0,0,10.77,9H793.27a11.1,11.1,0,0,0,10.77-9l25.05-120.21ZM653.46,922.7a6.06,6.06,0,0,1-6.06-6.07L639,831.43a6.07,6.07,0,0,1,12.14,0l8.41,85.2A6.07,6.07,0,0,1,653.46,922.7Zm30.52,0h0a6.07,6.07,0,0,1-6.07-6.07l-3.36-85.2a6.07,6.07,0,1,1,12.13,0l3.37,85.2A6.07,6.07,0,0,1,684,922.7Zm41.27-6.07a6.07,6.07,0,1,1-12.13,0v-85.2a6.07,6.07,0,1,1,12.13,0Zm35.21,0a6.07,6.07,0,0,1-12.14,0l3.37-85.2a6.07,6.07,0,1,1,12.13,0Zm30.51,0a6.07,6.07,0,1,1-12.13,0l8.41-85.2a6.07,6.07,0,0,1,12.14,0Z" style="fill:#6577ff"/><path d="M830.66,814.88H607.71a9.71,9.71,0,0,1-9.71-9.71h0a9.71,9.71,0,0,1,9.71-9.71H830.66a9.7,9.7,0,0,1,9.7,9.71h0A9.7,9.7,0,0,1,830.66,814.88Z" style="fill:#4054e7"/><path d="M654.53,796.19V787.8a25.3,25.3,0,0,1,25.3-25.3h78.71a25.3,25.3,0,0,1,25.3,25.3v8.39a5.44,5.44,0,0,0,5.43,5.44h0a5.44,5.44,0,0,0,5.44-5.44V787.8a36.17,36.17,0,0,0-36.17-36.17H679.83a36.17,36.17,0,0,0-36.17,36.17v8.39a5.44,5.44,0,0,0,5.43,5.44h0A5.44,5.44,0,0,0,654.53,796.19Z" style="fill:#6577ff"/><rect x="609.82" y="405.48" width="219.56" height="10.98" rx="4.75" style="fill:#fff"/><path d="M423,974.26s3.1,11.51,10.1,17.17l8.32-95.67S501,829.09,486.63,739.18A134.35,134.35,0,0,0,443,659.49c-13.36-11.75-28-19.6-36.69-8.55,0,0-67.59,160.94-114.28,278.49Z" style="fill:#ffc0bb"/><rect x="462.63" y="1268.78" width="513.1" height="51.85" style="fill:#65cefe"/><rect x="462.63" y="444.02" width="513.1" height="46.52" style="fill:#c0efff"/><path d="M418.43,745.47c18.67-8.59,28.42-57.18,31.91-79-15-15.08-33.78-28.64-44.06-15.51,0,0-14.89,35.44-35.51,85.2C384.87,744,404.47,751.89,418.43,745.47Z" style="fill:#eaa0a0"/><path d="M200.62,1573.86c41,25.19,173,100.5,309.44,116.56,8,.94,13.61,8.26,11.25,14.6l-23.84,63.85c-1.58,4.23-6.33,6.69-11.66,6-40.22-4.88-206.16-29.86-322.91-120.18-4-3.07-5.65-7.73-4.17-11.72l24.33-65.16C185.35,1571.71,193.94,1569.76,200.62,1573.86Z" style="fill:#064c91"/><path d="M188.64,1634.93l-.45-.17a4.64,4.64,0,0,1-2.72-6l7.34-19.65a4.63,4.63,0,0,1,5.95-2.72l.46.17a4.62,4.62,0,0,1,2.71,6l-7.34,19.66A4.63,4.63,0,0,1,188.64,1634.93Z" style="fill:#063e70"/><path d="M213.19,1650.05l-.45-.16a4.63,4.63,0,0,1-2.72-6l7.34-19.66a4.63,4.63,0,0,1,5.95-2.71l.45.17a4.62,4.62,0,0,1,2.72,6l-7.34,19.66A4.62,4.62,0,0,1,213.19,1650.05Z" style="fill:#063e70"/><path d="M237.55,1665h0a4.86,4.86,0,0,1-2.86-6.26l7.17-19.21a4.87,4.87,0,0,1,6.26-2.85h0a4.86,4.86,0,0,1,2.86,6.26l-7.17,19.21A4.85,4.85,0,0,1,237.55,1665Z" style="fill:#063e70"/><path d="M263.08,1677.3l-.46-.17a4.63,4.63,0,0,1-2.71-6l7.34-19.66a4.63,4.63,0,0,1,5.95-2.72l.45.17a4.63,4.63,0,0,1,2.72,6L269,1674.58A4.63,4.63,0,0,1,263.08,1677.3Z" style="fill:#063e70"/><path d="M288,1691.5l-.45-.16a4.63,4.63,0,0,1-2.72-6l7.34-19.65a4.62,4.62,0,0,1,5.95-2.72l.45.17a4.62,4.62,0,0,1,2.72,6l-7.34,19.66A4.62,4.62,0,0,1,288,1691.5Z" style="fill:#063e70"/><path d="M314,1702.77l-.45-.17a4.63,4.63,0,0,1-2.72-5.95l7.34-19.66a4.63,4.63,0,0,1,5.95-2.72l.45.17a4.62,4.62,0,0,1,2.72,6l-7.34,19.66A4.63,4.63,0,0,1,314,1702.77Z" style="fill:#063e70"/><path d="M340.46,1712.66l-.45-.17a4.63,4.63,0,0,1-2.72-6l7.34-19.66a4.63,4.63,0,0,1,6-2.71l.45.16a4.63,4.63,0,0,1,2.71,6l-7.34,19.65A4.62,4.62,0,0,1,340.46,1712.66Z" style="fill:#063e70"/><path d="M367.25,1721.1h0a4.86,4.86,0,0,1-2.86-6.26l7.17-19.21a4.86,4.86,0,0,1,6.26-2.85h0a4.86,4.86,0,0,1,2.86,6.26l-7.17,19.21A4.87,4.87,0,0,1,367.25,1721.1Z" style="fill:#063e70"/><path d="M395.36,1726.69h0a4.87,4.87,0,0,1-2.86-6.26l7.17-19.21a4.87,4.87,0,0,1,6.26-2.86h0a4.86,4.86,0,0,1,2.86,6.26l-7.17,19.21A4.86,4.86,0,0,1,395.36,1726.69Z" style="fill:#063e70"/><path d="M423,1734.34l-.45-.17a4.62,4.62,0,0,1-2.71-6l7.34-19.66a4.63,4.63,0,0,1,5.95-2.72l.45.17a4.64,4.64,0,0,1,2.72,6l-7.34,19.66A4.63,4.63,0,0,1,423,1734.34Z" style="fill:#063e70"/><path d="M451.37,1739.1l-.45-.17a4.63,4.63,0,0,1-2.72-6l7.34-19.66a4.63,4.63,0,0,1,6-2.71l.45.16a4.63,4.63,0,0,1,2.71,6l-7.34,19.66A4.62,4.62,0,0,1,451.37,1739.1Z" style="fill:#063e70"/><path d="M479.6,1743.68h0a4.86,4.86,0,0,1-2.85-6.27l7.17-19.2a4.86,4.86,0,0,1,6.26-2.86h0a4.86,4.86,0,0,1,2.85,6.26l-7.17,19.21A4.86,4.86,0,0,1,479.6,1743.68Z" style="fill:#063e70"/><path d="M281.62,1721.73l.12-.3a5.8,5.8,0,0,1-1.29-.32l-32.3-12.06a6.43,6.43,0,0,1-3.45-8.4l29.12-78a6.45,6.45,0,0,1,8.12-4.09l32.29,12.06a6,6,0,0,1,3.69,4.23c2.53,1.11,5.08,2.22,7.67,3.32.86-6.56-2.5-12.93-8.51-15.17l-32.3-12.06c-7.08-2.64-15.16,1.43-18,9.08l-29.12,78c-2.86,7.65.58,16,7.65,18.66l32.3,12.06a13.6,13.6,0,0,0,13.94-3Q286.59,1723.77,281.62,1721.73Z" style="fill:#ffcb83"/><path d="M274.54,1659.83l-14.05-5.25a5.28,5.28,0,0,0-3.68,9.86l14.05,5.24Z" style="fill:#eefbff"/><path d="M20.07,658.46c-13.31-67.33,87.14-90,103.3-23.26a103.84,103.84,0,0,1,2.7,20.29c3.13,80.17-45.37,167.44-97,152.75s-21.9-69.45-6.26-102.3C30.11,690.6,23.5,675.83,20.07,658.46Z" style="fill:#c9edf9"/><path d="M1481.16,511.59c-29.42-10.27-61.64,5.4-72.72,34.54-8.61,22.65-18.47,54.25-19.36,82-1.61,50.14,18.32,157.74,94.56,184.31s121.73-43.52,71-124.62C1532.93,653.22,1543.76,533.44,1481.16,511.59Z" style="fill:#c9edf9"/><path d="M1230.2,1003.82a27.66,27.66,0,0,1,33.91-20.54,40.72,40.72,0,0,1,49-21.63,50.16,50.16,0,0,1,90.09,8.77,34.4,34.4,0,0,1,51.13,30.06c0,1.13-.06,2.24-.17,3.34Z" style="fill:#fff"/><path d="M366.65,120.53a19.78,19.78,0,0,1,19.27-15.34,20,20,0,0,1,5,.64,29.15,29.15,0,0,1,35-15.48,35.89,35.89,0,0,1,64.46,6.28A24.61,24.61,0,0,1,527,118.14c0,.81,0,1.6-.11,2.39Z" style="fill:#fff"/><path d="M1214.35,847.78S1211,881,1184.76,883.31c26.22,2.3,29.59,35.53,29.59,35.53s3.37-33.23,29.59-35.53C1217.72,881,1214.35,847.78,1214.35,847.78Z" style="fill:#fff"/><path d="M256.41,602.2s-3.37,33.23-29.59,35.53c26.22,2.29,29.59,35.52,29.59,35.52S259.78,640,286,637.73C259.78,635.43,256.41,602.2,256.41,602.2Z" style="fill:#fff"/><path d="M1283.72,755.85s-2.23,22-19.57,23.5c17.34,1.52,19.57,23.51,19.57,23.51s2.23-22,19.58-23.51C1286,777.83,1283.72,755.85,1283.72,755.85Z" style="fill:#fff"/><path d="M311.58,524.45s-2.23,22-19.58,23.51c17.35,1.52,19.58,23.5,19.58,23.5s2.22-22,19.57-23.5C313.8,546.44,311.58,524.45,311.58,524.45Z" style="fill:#fff"/><path d="M1182.36,689.85s-1,9.83-8.76,10.51c7.76.68,8.76,10.52,8.76,10.52s1-9.84,8.76-10.52C1183.36,699.68,1182.36,689.85,1182.36,689.85Z" style="fill:#fff"/><path d="M279.7,732s-1,9.83-8.76,10.51c7.76.68,8.76,10.52,8.76,10.52s1-9.84,8.76-10.52C280.69,741.79,279.7,732,279.7,732Z" style="fill:#fff"/><path d="M801.13,618.8h0a40.93,40.93,0,0,1-40.93-40.93V547.55h81.85v30.32A40.92,40.92,0,0,1,801.13,618.8Z" style="fill:#e74a60"/><path d="M719.28,618.8h0a40.93,40.93,0,0,1-40.93-40.93V547.55H760.2v30.32A40.92,40.92,0,0,1,719.28,618.8Z" style="fill:#65cefe"/><path d="M637.43,618.8h0a40.93,40.93,0,0,1-40.93-40.93V547.55h81.85v30.32A40.92,40.92,0,0,1,637.43,618.8Z" style="fill:#e74a60"/><path d="M555.58,618.8h0a40.93,40.93,0,0,1-40.93-40.93V547.55H596.5v30.32A40.92,40.92,0,0,1,555.58,618.8Z" style="fill:#65cefe"/><path d="M432.8,547.55h81.85a0,0,0,0,1,0,0v30.33a40.93,40.93,0,0,1-40.93,40.93h0a40.92,40.92,0,0,1-40.92-40.92V547.55A0,0,0,0,1,432.8,547.55Z" style="fill:#e74a60"/><path d="M1046.49,618.8h0a40.92,40.92,0,0,1-40.92-40.93V547.55h81.85v30.32A40.93,40.93,0,0,1,1046.49,618.8Z" style="fill:#65cefe"/><path d="M964.64,618.8h0a40.92,40.92,0,0,1-40.92-40.93V547.55h81.85v30.32A40.93,40.93,0,0,1,964.64,618.8Z" style="fill:#e74a60"/><path d="M883,618.8h0a40.93,40.93,0,0,1-40.93-40.93V547.55h81.86v30.32A40.93,40.93,0,0,1,883,618.8Z" style="fill:#65cefe"/><path d="M351,547.55H432.8a0,0,0,0,1,0,0v30.33a40.92,40.92,0,0,1-40.92,40.92h0A40.92,40.92,0,0,1,351,577.87V547.55A0,0,0,0,1,351,547.55Z" style="fill:#65cefe"/><polygon points="748.38 444.02 690.18 444.02 678.35 547.55 760.2 547.55 748.38 444.02" style="fill:#eefbff"/><polygon points="690.18 444.02 631.99 444.02 596.5 547.55 678.35 547.55 690.18 444.02" style="fill:#ff6e53"/><polygon points="631.99 444.02 573.79 444.02 514.65 547.55 596.5 547.55 631.99 444.02" style="fill:#eefbff"/><polygon points="573.79 444.02 515.6 444.02 432.8 547.55 514.65 547.55 573.79 444.02" style="fill:#ff6e53"/><polygon points="515.6 444.02 457.4 444.02 350.95 547.55 432.8 547.55 515.6 444.02" style="fill:#eefbff"/><polygon points="980.77 444.02 922.58 444.02 1005.57 547.55 1087.42 547.55 980.77 444.02" style="fill:#eefbff"/><polygon points="922.87 444.02 864.67 444.02 923.72 547.55 1005.57 547.55 922.87 444.02" style="fill:#ff6e53"/><polygon points="864.67 444.02 806.48 444.02 842.05 547.55 923.91 547.55 864.67 444.02" style="fill:#eefbff"/><polygon points="806.48 444.02 748.28 444.02 760.2 547.55 842.05 547.55 806.48 444.02" style="fill:#ff6e53"/><path d="M563.18,1095.34h312a33.59,33.59,0,0,1,33.59,33.59v4.48A33.59,33.59,0,0,1,875.19,1167h-312a33.59,33.59,0,0,1-33.59-33.59v-4.48A33.6,33.6,0,0,1,563.18,1095.34Z" style="fill:#ff6e53"/><path d="M642.61,1136.78a9.49,9.49,0,0,1-.37,2.68,8.12,8.12,0,0,1-1,2.2,7.51,7.51,0,0,1-1.61,1.72,9.37,9.37,0,0,1-2.12,1.24,12.5,12.5,0,0,1-2.52.75,17.72,17.72,0,0,1-3.09.25h-8.05a1.74,1.74,0,0,1-1-.37,1.56,1.56,0,0,1-.49-1.3v-27.49a1.54,1.54,0,0,1,.49-1.3,1.68,1.68,0,0,1,1-.37h7a16.25,16.25,0,0,1,4.53.52,8,8,0,0,1,2.94,1.53,6.23,6.23,0,0,1,1.78,2.45,8.73,8.73,0,0,1,.59,3.29,7.93,7.93,0,0,1-.26,2.09,6.75,6.75,0,0,1-.77,1.85,6.19,6.19,0,0,1-1.29,1.51,6.57,6.57,0,0,1-1.78,1.1,7.44,7.44,0,0,1,2.36.87,7.22,7.22,0,0,1,1.92,1.61,7.49,7.49,0,0,1,1.3,2.28A8.39,8.39,0,0,1,642.61,1136.78Zm-6.18-13.8a6.4,6.4,0,0,0-.3-2,3.7,3.7,0,0,0-1-1.54,4.31,4.31,0,0,0-1.73-1,9.54,9.54,0,0,0-2.83-.34h-4.23v10H631a6.56,6.56,0,0,0,2.56-.41,4.64,4.64,0,0,0,1.62-1.12,4.4,4.4,0,0,0,.94-1.64A6.4,6.4,0,0,0,636.43,1123Zm1.86,14a6.09,6.09,0,0,0-.44-2.43,4.64,4.64,0,0,0-1.28-1.77,5.66,5.66,0,0,0-2.12-1.08,11.45,11.45,0,0,0-3.19-.37h-4.9v10.86h5.94a8.16,8.16,0,0,0,2.45-.33,5.36,5.36,0,0,0,1.84-1,4.59,4.59,0,0,0,1.25-1.63A5.36,5.36,0,0,0,638.29,1137Z" style="fill:#fff"/><path d="M672,1134.23a14.22,14.22,0,0,1-.83,5,10.17,10.17,0,0,1-2.34,3.73,9.85,9.85,0,0,1-3.72,2.31,14.54,14.54,0,0,1-5,.79,14,14,0,0,1-4.65-.74,9.84,9.84,0,0,1-3.59-2.18,9.51,9.51,0,0,1-2.31-3.61,14.21,14.21,0,0,1-.81-5v-19.13a.64.64,0,0,1,.09-.34.67.67,0,0,1,.34-.22,3,3,0,0,1,.62-.15,8.56,8.56,0,0,1,1,0,8.77,8.77,0,0,1,1,0,2.92,2.92,0,0,1,.63.15.69.69,0,0,1,.33.22.64.64,0,0,1,.09.34V1134a12.28,12.28,0,0,0,.52,3.74,7,7,0,0,0,1.52,2.65,6.3,6.3,0,0,0,2.38,1.6,8.6,8.6,0,0,0,3.13.54,9,9,0,0,0,3.18-.53,6,6,0,0,0,2.36-1.57,6.89,6.89,0,0,0,1.48-2.6,11.59,11.59,0,0,0,.51-3.62v-18.84a.57.57,0,0,1,.1-.34.6.6,0,0,1,.33-.22,3.25,3.25,0,0,1,.63-.15,9.63,9.63,0,0,1,2,0,3.13,3.13,0,0,1,.62.15.69.69,0,0,1,.33.22.58.58,0,0,1,.11.34Z" style="fill:#fff"/><path d="M697.28,1143.92a5.72,5.72,0,0,1,0,.76,1.74,1.74,0,0,1-.17.53.84.84,0,0,1-.27.31.62.62,0,0,1-.35.1H681.66a1.72,1.72,0,0,1-1-.37,1.53,1.53,0,0,1-.49-1.3v-27.49a1.51,1.51,0,0,1,.49-1.3,1.66,1.66,0,0,1,1-.37h14.62a.7.7,0,0,1,.35.09.72.72,0,0,1,.25.31,2.74,2.74,0,0,1,.15.54,4.42,4.42,0,0,1,.06.8,4.22,4.22,0,0,1-.06.75,2.34,2.34,0,0,1-.15.52.69.69,0,0,1-.25.3.7.7,0,0,1-.35.09h-12v9.68h10.34a.51.51,0,0,1,.34.11.94.94,0,0,1,.27.29,1.53,1.53,0,0,1,.15.53,5.78,5.78,0,0,1,0,.78,5.06,5.06,0,0,1,0,.74,1.41,1.41,0,0,1-.15.5.73.73,0,0,1-.27.28.74.74,0,0,1-.34.08H684.23v11h12.22a.7.7,0,0,1,.35.09,1,1,0,0,1,.27.3,1.65,1.65,0,0,1,.17.53A5.91,5.91,0,0,1,697.28,1143.92Z" style="fill:#fff"/><path d="M738.29,1143.92a2,2,0,0,1-.16.82,1.63,1.63,0,0,1-.42.54,1.56,1.56,0,0,1-.58.31,2.08,2.08,0,0,1-.64.1h-1.36a4.2,4.2,0,0,1-1.12-.13,2.58,2.58,0,0,1-.91-.48,4.43,4.43,0,0,1-.86-.94,12,12,0,0,1-.92-1.53l-9.4-17.53c-.49-.91-1-1.85-1.49-2.85s-1-2-1.39-2.89h0c0,1.14,0,2.31.07,3.5s0,2.37,0,3.55V1145a.55.55,0,0,1-.1.32.65.65,0,0,1-.34.24,4.37,4.37,0,0,1-.63.14,6.62,6.62,0,0,1-1,.06,6.71,6.71,0,0,1-1-.06,3.91,3.91,0,0,1-.62-.14.63.63,0,0,1-.32-.24.55.55,0,0,1-.1-.32v-28.45a1.6,1.6,0,0,1,.54-1.36,1.91,1.91,0,0,1,1.18-.4h2a5,5,0,0,1,1.2.12,2.59,2.59,0,0,1,.86.39,3.33,3.33,0,0,1,.73.76,10.4,10.4,0,0,1,.75,1.23l7.23,13.53c.45.83.88,1.63,1.29,2.42s.82,1.56,1.2,2.32.76,1.52,1.14,2.25.75,1.48,1.12,2.23h0c0-1.25,0-2.56-.06-3.92s0-2.66,0-3.92v-16.72a.52.52,0,0,1,.1-.31.77.77,0,0,1,.34-.25,2.21,2.21,0,0,1,.63-.16,9.37,9.37,0,0,1,1,0,9,9,0,0,1,1,0,2,2,0,0,1,.63.16.8.8,0,0,1,.33.25.6.6,0,0,1,.1.31Z" style="fill:#fff"/><path d="M772.31,1129.84a24.21,24.21,0,0,1-.88,6.75,14.16,14.16,0,0,1-2.64,5.11,11.55,11.55,0,0,1-4.39,3.24,15.65,15.65,0,0,1-6.17,1.13,15.89,15.89,0,0,1-6-1,10.52,10.52,0,0,1-4.19-3,12.76,12.76,0,0,1-2.47-4.91,25.36,25.36,0,0,1-.81-6.74,23.64,23.64,0,0,1,.88-6.63,13.79,13.79,0,0,1,2.65-5.06,11.55,11.55,0,0,1,4.41-3.21,15.47,15.47,0,0,1,6.17-1.14,15.79,15.79,0,0,1,5.93,1,10.73,10.73,0,0,1,4.2,3,12.74,12.74,0,0,1,2.51,4.86A24.64,24.64,0,0,1,772.31,1129.84Zm-4.34.29a24,24,0,0,0-.46-4.87,11.32,11.32,0,0,0-1.55-3.91,7.44,7.44,0,0,0-2.89-2.58,9.73,9.73,0,0,0-4.47-.93,9.13,9.13,0,0,0-4.48,1,8.48,8.48,0,0,0-2.94,2.67,11.06,11.06,0,0,0-1.61,3.89,21.59,21.59,0,0,0-.49,4.68,26.07,26.07,0,0,0,.45,5,11.22,11.22,0,0,0,1.52,3.94,7.35,7.35,0,0,0,2.87,2.57,9.89,9.89,0,0,0,4.51.92,9.3,9.3,0,0,0,4.52-1,8.16,8.16,0,0,0,2.95-2.7,11.43,11.43,0,0,0,1.6-4A23.23,23.23,0,0,0,768,1130.13Z" style="fill:#fff"/><path d="M807.78,1144.71a1.31,1.31,0,0,1-.28.54,1.43,1.43,0,0,1-.53.31,3.9,3.9,0,0,1-.82.15c-.33,0-.73,0-1.2,0s-.91,0-1.25,0a4,4,0,0,1-.85-.15,1.16,1.16,0,0,1-.5-.31,1.43,1.43,0,0,1-.26-.54l-6.46-23.27h0l-6,23.27a1.28,1.28,0,0,1-.24.54,1.14,1.14,0,0,1-.48.31,3.46,3.46,0,0,1-.8.15c-.32,0-.74,0-1.25,0s-1,0-1.31,0a4,4,0,0,1-.85-.15,1.24,1.24,0,0,1-.52-.31,1.18,1.18,0,0,1-.25-.54l-8.14-28.47a4.11,4.11,0,0,1-.16-.86.55.55,0,0,1,.19-.47,1.19,1.19,0,0,1,.66-.22c.3,0,.7,0,1.21,0s.88,0,1.17,0a2.16,2.16,0,0,1,.65.13.52.52,0,0,1,.31.26,1.56,1.56,0,0,1,.13.43l6.94,25.83h0l6.58-25.78a1.62,1.62,0,0,1,.18-.44.63.63,0,0,1,.34-.27,2.38,2.38,0,0,1,.68-.15c.29,0,.68,0,1.16,0a10.17,10.17,0,0,1,1.06,0,2.24,2.24,0,0,1,.63.15.63.63,0,0,1,.34.27,1.62,1.62,0,0,1,.18.44l7.08,25.78h.05l6.79-25.8a3,3,0,0,1,.14-.42.51.51,0,0,1,.3-.27,2.07,2.07,0,0,1,.64-.15c.28,0,.65,0,1.11,0a11,11,0,0,1,1.13,0,1.2,1.2,0,0,1,.61.23.58.58,0,0,1,.17.48,5.13,5.13,0,0,1-.12.85Z" style="fill:#fff"/></g></g></g></svg>