<svg xmlns="http://www.w3.org/2000/svg" viewBox="0 0 267.06 336.44"><g id="Layer_2" data-name="Layer 2"><g id="OBJECTS"><circle cx="133.53" cy="133.53" r="133.53" transform="translate(-55.31 133.53) rotate(-45)" style="fill:#616e77"/><path d="M135.9,275.29a23.22,23.22,0,1,1-23.22-23.22A23.21,23.21,0,0,1,135.9,275.29Z" style="fill:#ffda13"/><path d="M128,275.29A15.33,15.33,0,1,1,112.68,260,15.33,15.33,0,0,1,128,275.29Z" style="fill:#ffaf20"/><path d="M112.68,255.07a20.22,20.22,0,1,1-20.22,20.22,20.24,20.24,0,0,1,20.22-20.22m0-3a23.22,23.22,0,1,0,23.22,23.22,23.23,23.23,0,0,0-23.22-23.22Z" style="fill:#ffaf20"/><path d="M112.68,252.07a23.22,23.22,0,1,0,23.22,23.22A23.23,23.23,0,0,0,112.68,252.07Z" style="fill:#110e00;opacity:0.2"/><path d="M137.06,169.27a23.22,23.22,0,1,1-23.22-23.22A23.23,23.23,0,0,1,137.06,169.27Z" style="fill:#ffda13"/><path d="M129.16,169.27a15.32,15.32,0,1,1-15.32-15.33A15.32,15.32,0,0,1,129.16,169.27Z" style="fill:#ffaf20"/><path d="M113.84,149.05a20.22,20.22,0,1,1-20.22,20.22,20.24,20.24,0,0,1,20.22-20.22m0-3a23.22,23.22,0,1,0,23.22,23.22,23.22,23.22,0,0,0-23.22-23.22Z" style="fill:#ffaf20"/><path d="M113.84,146.05a23.22,23.22,0,1,0,23.22,23.22A23.22,23.22,0,0,0,113.84,146.05Z" style="fill:#110e00;opacity:0.2"/><path d="M113.84,146.05a23.1,23.1,0,0,0-11.42,3c0,.59-.07,1.19-.07,1.8A23.2,23.2,0,0,0,137,171.06c.05-.59.08-1.19.08-1.79A23.22,23.22,0,0,0,113.84,146.05Z" style="fill:#110e00;opacity:0.2"/><path d="M182.34,285.13a23.22,23.22,0,1,1-23.22-23.22A23.22,23.22,0,0,1,182.34,285.13Z" style="fill:#ffda13"/><path d="M174.45,285.13a15.33,15.33,0,1,1-15.33-15.32A15.32,15.32,0,0,1,174.45,285.13Z" style="fill:#ffaf20"/><path d="M159.12,264.91a20.22,20.22,0,1,1-20.22,20.22,20.24,20.24,0,0,1,20.22-20.22m0-3a23.22,23.22,0,1,0,23.22,23.22,23.23,23.23,0,0,0-23.22-23.22Z" style="fill:#ffaf20"/><path d="M159.12,261.91a23.22,23.22,0,1,0,23.22,23.22A23.23,23.23,0,0,0,159.12,261.91Z" style="fill:#110e00;opacity:0.2"/><path d="M95.89,218.12c-7.87.49-14.17,2.23-14.06,3.89l.73,11.88,25.64-1.59-.77-12.48C107.35,218.5,102.18,217.73,95.89,218.12Z" style="fill:#829f26"/><path d="M95.89,218.12c-7.87.49-14.17,2.23-14.06,3.89l.19,3.17c.1-1.66,2.07-2.56,2.07-2.56,1.31-.71,5.45-1.89,11.93-2.29a30.45,30.45,0,0,1,9.25.52s1.82.42,2.29,1.1l-.13-2.13C107.35,218.5,102.18,217.73,95.89,218.12Z" style="fill:#3b4b0b"/><path d="M107.43,219.82,109,245.33l-9.12.56c-.06-1-1.46-23.57-1.46-23.57S106.9,221.72,107.43,219.82Z" style="fill:#8faf2a"/><path d="M103.12,224s3.06-.41,4.46-1.7l-.15-2.44c-.53,1.9-9,2.5-9,2.5s.06.86.14,2.26l2.21-.27C101.48,224.22,102.29,224.11,103.12,224Z" style="fill:#475a0d"/><polygon points="98.43 222.31 98.65 225.77 100.59 225.65 100.42 223.05 98.43 222.31" style="fill:#475a0d"/><path d="M99.87,224.68c-9.84.6-17.91-.59-18-2.67l4.54,73.55c.13,2.08,8.2,3.27,18,2.66,12.29-.76,22.12-3.48,22-6.08l-4.54-73.55C122,221.19,112.16,223.92,99.87,224.68Z" style="fill:#9dc02e"/><path d="M100,226.89c4-.25,14.12-1.11,19.89-3.74l4.24,68.69c-1.36,1.17-8.23,3.3-19.86,4.17-10.23.76-15.41-.86-18-2.79l.14,2.34c.13,2.08,8.2,3.27,18,2.66,12.29-.76,22.12-3.48,22-6.08l-4.54-73.55c.16,2.6-9.67,5.33-22,6.09-9.84.6-17.91-.59-18-2.67l.19,3.17C86.36,227.4,95.46,227.17,100,226.89Z" style="fill:#4e630e"/><path d="M121.87,219.28l-.18-.09c-.55,1.09-2.73,2.17-6,3.09a4.35,4.35,0,0,0,4.52,5.21,4.37,4.37,0,0,0,2.14-.72Z" style="fill:#4e630e"/><path d="M123.9,287.46a4.34,4.34,0,0,0-2.19,7.91c3-1,4.73-2.12,4.66-3.23l-.26-4.22A4.21,4.21,0,0,0,123.9,287.46Z" style="fill:#4e630e"/><path d="M107.58,222l.12.16Z" style="fill:#475a0d"/><path d="M90.4,244.25a21.84,21.84,0,0,0-7.1,1.66l1.77,28.57a21.31,21.31,0,0,0,7.25.77c10.2-.63,18-8.08,17.51-16.64S100.6,243.63,90.4,244.25Z" style="fill:#4e630e"/><path d="M94.87,224.83c-7.43,0-12.94-1.11-13-2.82l4.54,73.55c.11,1.71,5.61,2.82,13,2.82Z" style="fill:#110e00;opacity:0.2"/><path d="M104.33,256.92a23.22,23.22,0,0,0,21.3,23.14l-2.84-45.87A23.23,23.23,0,0,0,104.33,256.92Z" style="fill:#110e00;opacity:0.2"/><path d="M169.26,304.89c7.86-.49,14.16-2.23,14.06-3.89l-.74-11.88-25.64,1.58.77,12.48C157.8,304.51,163,305.28,169.26,304.89Z" style="fill:#829f26"/><path d="M169.26,304.89c7.86-.49,14.16-2.23,14.06-3.89l-.2-3.17c-.1,1.66-2.06,2.56-2.06,2.56-1.31.71-5.45,1.89-11.94,2.29a30,30,0,0,1-9.25-.53s-1.82-.41-2.29-1.09l.13,2.12C157.8,304.51,163,305.28,169.26,304.89Z" style="fill:#3b4b0b"/><path d="M157.71,303.18l-1.57-25.5,9.12-.56c.06,1,1.45,23.57,1.45,23.57S158.24,301.29,157.71,303.18Z" style="fill:#8faf2a"/><path d="M162,299s-3.06.42-4.46,1.71l.15,2.43c.53-1.89,9-2.49,9-2.49s-.05-.86-.14-2.26l-2.2.27C163.66,298.79,162.85,298.9,162,299Z" style="fill:#475a0d"/><polygon points="166.71 300.69 166.5 297.24 164.56 297.36 164.72 299.96 166.71 300.69" style="fill:#475a0d"/><path d="M165.28,298.33c9.83-.61,17.91.59,18,2.67l-4.55-73.55c-.12-2.08-8.2-3.27-18-2.66-12.29.75-22.13,3.48-22,6.08l4.54,73.54C143.15,301.81,153,299.09,165.28,298.33Z" style="fill:#9dc02e"/><path d="M165.14,296.12c-4,.24-14.12,1.11-19.89,3.74L141,231.17c1.37-1.17,8.24-3.3,19.86-4.17,10.23-.76,15.42.86,18,2.79l-.15-2.34c-.12-2.08-8.2-3.27-18-2.66-12.29.75-22.13,3.48-22,6.08l4.54,73.54c-.16-2.6,9.68-5.32,22-6.08,9.83-.61,17.91.59,18,2.67l-.2-3.17C178.78,295.61,169.68,295.84,165.14,296.12Z" style="fill:#4e630e"/><path d="M143.27,303.73l.18.09c.55-1.09,2.73-2.17,6-3.09a4.31,4.31,0,0,0-4.51-5.21,4.3,4.3,0,0,0-2.14.72Z" style="fill:#4e630e"/><path d="M141.24,235.55a4.34,4.34,0,0,0,2.19-7.91c-3,1-4.73,2.12-4.66,3.23l.26,4.22A4.34,4.34,0,0,0,141.24,235.55Z" style="fill:#4e630e"/><path d="M157.56,301a1.59,1.59,0,0,1-.11-.16Z" style="fill:#475a0d"/><path d="M174.74,278.75a21.52,21.52,0,0,0,7.1-1.65l-1.76-28.57a21.37,21.37,0,0,0-7.25-.77c-10.2.63-18,8.08-17.51,16.64S164.54,279.38,174.74,278.75Z" style="fill:#4e630e"/><path d="M170.27,298.18c7.44,0,12.94,1.1,13,2.82l-4.55-73.55c-.1-1.71-5.61-2.82-13-2.82Z" style="fill:#110e00;opacity:0.2"/><path d="M214.32,325.47c0,6.06-36.17,11-80.79,11s-80.79-4.91-80.79-11,36.17-11,80.79-11S214.32,319.41,214.32,325.47Z" style="fill:#6c7a84"/><ellipse cx="133.53" cy="319.66" rx="60.14" ry="6.96" style="fill:#fff;opacity:0.2"/><path d="M147.72,301.32c-15.05-4.46-28.25-4.68-29.5-.48l-.65,2.19c-.85,0-1.72,0-2.59,0-15.69,0-28.41,3.54-28.41,7.92v3.59c0,4.37,12.72,7.91,28.41,7.91,9.94,0,18.68-1.42,23.76-3.57,1.13.38,2.28.74,3.46,1.09,15.05,4.46,28.25,4.68,29.49.48l1-3.44C174,312.79,162.77,305.78,147.72,301.32Z" style="fill:#110e00;opacity:0.2"/><path d="M154,249a23.22,23.22,0,1,1-23.22-23.23A23.21,23.21,0,0,1,154,249Z" style="fill:#ffda13"/><path d="M146.11,249a15.33,15.33,0,1,1-15.33-15.33A15.32,15.32,0,0,1,146.11,249Z" style="fill:#ffaf20"/><path d="M130.78,228.8A20.22,20.22,0,1,1,110.56,249a20.25,20.25,0,0,1,20.22-20.23m0-3A23.22,23.22,0,1,0,154,249a23.23,23.23,0,0,0-23.22-23.23Z" style="fill:#ffaf20"/><path d="M159.73,111.36H84.83v16.78c13.21,4.65,30.18,7.45,48.7,7.45a171.32,171.32,0,0,0,26.2-2Z" style="fill:#fff;opacity:0.2"/><path d="M173.38,111.36v19.46c3.1-.81,6.06-1.7,8.85-2.68V111.36Z" style="fill:#fff;opacity:0.2"/><g style="opacity:0.2"><path d="M163.79,137.33a166,166,0,0,1-30.26,2.72c-17.43,0-34.37-2.59-47.7-7.29a3,3,0,0,0-2,5.66c14,4.92,31.61,7.63,49.7,7.63a169.36,169.36,0,0,0,35.77-3.71Z" style="fill:#fff"/><path d="M163.79,137.33a166,166,0,0,1-30.26,2.72c-17.43,0-34.37-2.59-47.7-7.29a3,3,0,0,0-2,5.66c14,4.92,31.61,7.63,49.7,7.63a169.36,169.36,0,0,0,35.77-3.71Z" style="fill:#fff"/><path d="M182.14,138.79l1.09-.37a3,3,0,0,0-2-5.66c-1.36.48-2.77.94-4.21,1.37Z" style="fill:#fff"/></g><path d="M185.79,125.83V111.36H81.27v14.47a10,10,0,0,0-7.87,9.76V319.66c0,3.84,26.92,7,60.13,7s60.14-3.12,60.14-7V135.59A10,10,0,0,0,185.79,125.83Z" style="fill:none;stroke:#fff;stroke-miterlimit:10;stroke-width:3px"/><path d="M193.67,111c0,3.84-26.93,7-60.14,7s-60.13-3.12-60.13-7V92.33H193.67Z" style="fill:#ff6b13"/><path d="M88,92.33H73.4V111c0,1.74,5.49,3.32,14.56,4.54Z" style="fill:#b94e0e"/><path d="M181.13,115.24c7.85-1.17,12.54-2.65,12.54-4.25V92.33H181.13Z" style="fill:#b94e0e"/><path d="M91.83,116q2.86.31,6.08.6V92.33H91.83Z" style="fill:#b94e0e"/><ellipse cx="133.53" cy="92.33" rx="60.14" ry="6.95" style="fill:#f28729"/><polygon points="158.98 94.92 108.08 94.92 104.11 89.92 153.86 89.92 158.98 94.92" style="fill:#b94e0e"/><polygon points="106.09 92.42 108.08 94.92 156.42 94.92 153.86 92.42 106.09 92.42" style="fill:#97400b"/><path d="M136.88,312.71c0,4.38-12.72,7.92-28.41,7.92s-28.41-3.54-28.41-7.92v-3.59h56.82Z" style="fill:#d19100"/><path d="M136.88,309.12c0,4.37-12.72,7.92-28.41,7.92s-28.41-3.55-28.41-7.92,12.72-7.92,28.41-7.92S136.88,304.75,136.88,309.12Z" style="fill:#ffda13"/><path d="M108.47,303.2A76.19,76.19,0,0,1,128,305.45c5.69,1.59,6.85,3.3,6.85,3.67s-1.16,2.09-6.85,3.67A76.19,76.19,0,0,1,108.47,315a76.19,76.19,0,0,1-19.56-2.25c-5.69-1.58-6.85-3.29-6.85-3.67s1.16-2.08,6.85-3.67a76.19,76.19,0,0,1,19.56-2.25m0-2c-15.69,0-28.41,3.55-28.41,7.92S92.78,317,108.47,317s28.41-3.55,28.41-7.92-12.72-7.92-28.41-7.92Z" style="fill:#ffaf20"/><path d="M108.47,305.53c11.55,0,19,2.08,21.65,3.59-2.61,1.51-10.11,3.59-21.65,3.59s-19-2.08-21.65-3.59c2.61-1.51,10.1-3.59,21.65-3.59" style="fill:#ffaf20"/><path d="M136.17,307.36c-2.87-3.52-14.18-6.16-27.7-6.16a94,94,0,0,0-11.68.71c-3.2,2.21-4.89,4.38-4.43,6.13l.91,3.47c1.11,4.23,14.31,4.43,29.49.45A90.24,90.24,0,0,0,136.17,307.36Z" style="fill:#110e00;opacity:0.2"/><path d="M181,318.92c-1.25,4.19-14.45,4-29.5-.48s-26.23-11.48-25-15.67l1-3.44L182,315.48Z" style="fill:#d19100"/><path d="M182,315.48c-1.25,4.19-14.45,4-29.5-.49s-26.23-11.47-25-15.66,14.45-4,29.49.48S183.23,311.28,182,315.48Z" style="fill:#ffda13"/><path d="M156.42,301.73a75.94,75.94,0,0,1,18.12,7.71c5,3.14,5.63,5.11,5.53,5.47s-1.71,1.66-7.62,1.57a76.55,76.55,0,0,1-19.39-3.4A76.49,76.49,0,0,1,135,305.37c-5-3.14-5.64-5.11-5.53-5.47s1.7-1.67,7.62-1.57a75.6,75.6,0,0,1,19.38,3.4m.57-1.92c-15-4.46-28.25-4.67-29.49-.48s9.95,11.21,25,15.66,28.25,4.68,29.5.49-10-11.21-25-15.67Z" style="fill:#ffaf20"/><path d="M155.76,304c11.07,3.28,17.67,7.41,19.74,9.59-2.93.71-10.71.57-21.78-2.71s-17.66-7.4-19.74-9.59c2.93-.71,10.71-.57,21.78,2.71" style="fill:#ffaf20"/><path d="M127.5,299.33l-1,3.44c-.53,1.77,1.17,4,4.43,6.41,8.68-3.61,14.19-7.83,13.4-10.83l-.38-1.44C135,295.64,128.36,296.43,127.5,299.33Z" style="fill:#110e00;opacity:0.2"/><path d="M143.4,293.87c1.11,4.22-10.3,10.88-25.48,14.86s-28.38,3.77-29.49-.46l-.91-3.47,55-14.41Z" style="fill:#d19100"/><path d="M142.49,290.39c1.11,4.23-10.3,10.89-25.48,14.86S88.63,309,87.52,304.8s10.3-10.89,25.48-14.86S141.38,286.16,142.49,290.39Z" style="fill:#ffda13"/><path d="M113.5,291.87A75.91,75.91,0,0,1,133,289.09c5.91.09,7.47,1.45,7.57,1.81s-.6,2.31-5.71,5.29a76.21,76.21,0,0,1-18.35,7.13A76.34,76.34,0,0,1,97,306.11c-5.91-.1-7.47-1.46-7.57-1.82s.6-2.31,5.71-5.29a76.12,76.12,0,0,1,18.34-7.13m-.5-1.93c-15.18,4-26.59,10.63-25.48,14.86s14.31,4.43,29.49.45,26.59-10.63,25.48-14.86S128.18,286,113,289.94Z" style="fill:#ffaf20"/><path d="M114.09,294.12c11.17-2.92,18.95-2.82,21.86-2-2.14,2.12-8.87,6-20,9s-18.94,2.81-21.85,2c2.14-2.13,8.86-6,20-9" style="fill:#ffaf20"/><path d="M143.4,293.87l-.91-3.48c-.92-3.51-10.2-4.25-22-2.11-1.21,3.13,4.55,9,13.8,14.47C140.42,299.64,144.05,296.34,143.4,293.87Z" style="fill:#110e00;opacity:0.2"/><polygon points="100.59 201.64 99.51 198.49 98.43 201.64 95.28 202.72 98.43 203.79 99.51 206.95 100.59 203.79 103.74 202.72 100.59 201.64" style="fill:#fff"/><polygon points="175.52 189.77 174.45 186.62 173.37 189.77 170.22 190.85 173.37 191.93 174.45 195.08 175.52 191.93 178.68 190.85 175.52 189.77" style="fill:#fff"/><polygon points="89.3 154.77 87.95 150.85 86.62 154.77 82.69 156.11 86.62 157.45 87.95 161.37 89.3 157.45 93.22 156.11 89.3 154.77" style="fill:#fff"/><polygon points="172.59 276.17 171.25 272.24 169.91 276.17 165.99 277.51 169.91 278.84 171.25 282.77 172.59 278.84 176.51 277.51 172.59 276.17" style="fill:#fff"/><polygon points="87.9 289.05 86.56 285.13 85.22 289.05 81.3 290.39 85.22 291.73 86.56 295.65 87.9 291.73 91.83 290.39 87.9 289.05" style="fill:#fff"/><polygon points="105.06 278.8 103.72 274.88 102.38 278.8 98.46 280.14 102.38 281.48 103.72 285.4 105.06 281.48 108.98 280.14 105.06 278.8" style="fill:#fff"/><polygon points="172.59 154.77 171.25 150.85 169.91 154.77 165.99 156.11 169.91 157.45 171.25 161.37 172.59 157.45 176.51 156.11 172.59 154.77" style="fill:#fff"/><path d="M175.86,308.65c-1.84,4-14.87,1.8-29.1-4.83s-24.25-15.22-22.41-19.18l1.52-3.26,51.51,24Z" style="fill:#d19100"/><path d="M177.38,305.39c-1.85,4-14.88,1.8-29.1-4.83S124,285.35,125.87,281.38s14.88-1.8,29.1,4.83S179.23,301.43,177.38,305.39Z" style="fill:#ffda13"/><path d="M154.12,288a76.26,76.26,0,0,1,16.78,10.3c4.49,3.84,4.82,5.89,4.67,6.23s-1.94,1.4-7.77.43a76.7,76.7,0,0,1-18.68-6.23,76.27,76.27,0,0,1-16.77-10.3c-4.49-3.84-4.82-5.89-4.67-6.22s1.94-1.4,7.77-.43A75.87,75.87,0,0,1,154.12,288m.85-1.81c-14.22-6.63-27.25-8.79-29.1-4.83s8.19,12.55,22.41,19.18,27.25,8.79,29.1,4.83S169.2,292.84,155,286.21Z" style="fill:#ffaf20"/><path d="M153.14,290.13c10.47,4.88,16.39,9.93,18.11,12.41-3,.26-10.68-1-21.14-5.9s-16.38-9.93-18.11-12.4c3-.27,10.68,1,21.14,5.89" style="fill:#ffaf20"/><path d="M82.4,305.47c13.93,5.33,31.72,8.54,51.13,8.54s37.2-3.21,51.13-8.54V133.88c-13.93,5.33-31.72,8.54-51.13,8.54s-37.2-3.21-51.13-8.54Z" style="fill:#e3db9a"/><path d="M129.83,168.64v-9.35h7.4v9.35c6.42,2.88,9.71,13.67,9.71,30.74v4h-8.55v-5.22c0-9-1.65-12.4-4.53-12.4s-4.52,3.41-4.52,12.4c0,25.89,17.68,27.15,17.68,63.11,0,17.08-3.37,28-9.79,30.92v9.17h-7.4v-9.17c-6.5-2.87-9.79-13.84-9.79-30.92V252.6h8.56v9.89c0,9,1.8,12.22,4.69,12.22s4.68-3.23,4.68-12.22c0-25.89-17.68-27.15-17.68-63.11C120.29,182.49,123.5,171.7,129.83,168.64Z" style="fill:#bab37e"/><polygon points="75.56 162.44 79.9 174.19 103.37 132.85 99.03 121.09 75.56 162.44" style="fill:#f6f792;opacity:0.6000000000000001"/><polygon points="168.03 121.09 163.69 132.85 187.16 174.19 191.5 162.44 168.03 121.09" style="fill:#f6f792;opacity:0.6000000000000001"/><polygon points="191.5 280.02 187.16 268.27 163.7 309.61 168.03 321.37 191.5 280.02" style="fill:#f6f792;opacity:0.6000000000000001"/><polygon points="99.03 321.37 103.37 309.61 79.9 268.27 75.56 280.02 99.03 321.37" style="fill:#f6f792;opacity:0.6000000000000001"/><path d="M189.67,318V142c-14.75,5-34.47,8.07-56.14,8.07V322.62C163.78,322.62,184.5,320.06,189.67,318Z" style="fill:#fff;opacity:0.2"/></g></g></svg>