<svg xmlns="http://www.w3.org/2000/svg" viewBox="0 0 202.38 289.67"><g id="Layer_2" data-name="Layer 2"><g id="OBJECTS"><polygon points="60.86 91.31 59.52 87.38 58.18 91.31 54.26 92.64 58.18 93.98 59.52 97.91 60.86 93.98 64.78 92.64 60.86 91.31" style="fill:#fff"/><polygon points="61.32 12.1 59.98 8.18 58.64 12.1 54.72 13.44 58.64 14.78 59.98 18.7 61.32 14.78 65.24 13.44 61.32 12.1" style="fill:#fff"/><polygon points="142.42 101.83 141.08 97.91 139.74 101.83 135.81 103.17 139.74 104.51 141.08 108.43 142.42 104.51 146.34 103.17 142.42 101.83" style="fill:#fff"/><polygon points="190.55 159.09 189.47 155.93 188.4 159.09 185.24 160.16 188.4 161.24 189.47 164.39 190.55 161.24 193.7 160.16 190.55 159.09" style="fill:#fff"/><polygon points="5.31 107.35 4.23 104.2 3.15 107.35 0 108.43 3.15 109.5 4.23 112.66 5.31 109.5 8.46 108.43 5.31 107.35" style="fill:#fff"/><polygon points="22.24 150.71 21.16 147.56 20.08 150.71 16.93 151.79 20.08 152.87 21.16 156.02 22.24 152.87 25.39 151.79 22.24 150.71" style="fill:#fff"/><polygon points="178.06 187.29 176.99 184.14 175.91 187.29 172.76 188.37 175.91 189.45 176.99 192.6 178.06 189.45 181.22 188.37 178.06 187.29" style="fill:#fff"/><polygon points="200.03 222.59 199.23 220.24 198.42 222.59 196.07 223.4 198.42 224.2 199.23 226.55 200.03 224.2 202.38 223.4 200.03 222.59" style="fill:#fff"/><polygon points="190.55 284.36 189.47 281.21 188.4 284.36 185.24 285.44 188.4 286.51 189.47 289.67 190.55 286.51 193.7 285.44 190.55 284.36" style="fill:#fff"/><polygon points="5.31 274.95 4.23 271.8 3.15 274.95 0 276.03 3.15 277.11 4.23 280.26 5.31 277.11 8.46 276.03 5.31 274.95" style="fill:#fff"/><polygon points="17.54 215.04 16.7 212.6 15.87 215.04 13.42 215.88 15.87 216.72 16.7 219.16 17.54 216.72 19.99 215.88 17.54 215.04" style="fill:#fff"/><polygon points="49.4 56.72 47.27 50.47 45.13 56.72 38.88 58.85 45.13 60.99 47.27 67.24 49.4 60.99 55.65 58.85 49.4 56.72" style="fill:#fff"/><polygon points="179.12 73.49 176.99 67.24 174.85 73.49 168.6 75.63 174.85 77.76 176.99 84.01 179.12 77.76 185.38 75.63 179.12 73.49" style="fill:#fff"/><polygon points="144.91 55.59 143.2 50.59 141.49 55.59 136.48 57.31 141.49 59.02 143.2 64.03 144.91 59.02 149.92 57.31 144.91 55.59" style="fill:#fff"/><polygon points="138.71 5.01 137 0 135.29 5.01 130.28 6.72 135.29 8.43 137 13.44 138.71 8.43 143.72 6.72 138.71 5.01" style="fill:#fff"/></g></g></svg>