<svg xmlns="http://www.w3.org/2000/svg" viewBox="0 0 46.44 112.13"><g id="Layer_2" data-name="Layer 2"><g id="OBJECTS"><circle cx="23.22" cy="88.91" r="23.22" transform="translate(-68.31 97.11) rotate(-80.48)" style="fill:#ffda13"/><path d="M38.54,88.91A15.32,15.32,0,1,1,23.22,73.59,15.32,15.32,0,0,1,38.54,88.91Z" style="fill:#ffaf20"/><path d="M23.22,68.69A20.22,20.22,0,1,1,3,88.91,20.24,20.24,0,0,1,23.22,68.69m0-3A23.22,23.22,0,1,0,46.44,88.91,23.23,23.23,0,0,0,23.22,65.69Z" style="fill:#ffaf20"/><circle cx="23.22" cy="23.22" r="23.22" transform="translate(-7.44 11.47) rotate(-24.03)" style="fill:#ffda13"/><path d="M38.54,23.22A15.32,15.32,0,1,1,23.22,7.9,15.32,15.32,0,0,1,38.54,23.22Z" style="fill:#ffaf20"/><path d="M23.22,3A20.22,20.22,0,1,1,3,23.22,20.24,20.24,0,0,1,23.22,3m0-3A23.22,23.22,0,1,0,46.44,23.22,23.23,23.23,0,0,0,23.22,0Z" style="fill:#ffaf20"/></g></g></svg>